<svg width="12" height="7" viewBox="0 0 12 7" fill="none" xmlns="http://www.w3.org/2000/svg">
<path d="M1 1.33469C1 1.24979 1.03424 1.1629 1.1007 1.09774C1.23363 0.967421 1.45114 0.967421 1.58407 1.09774L6.13374 5.5582L10.617 1.1629C10.7499 1.03258 10.9674 1.03258 11.1003 1.1629C11.2332 1.29322 11.2332 1.50647 11.1003 1.63679L6.37542 6.271C6.2425 6.40132 6.02498 6.40132 5.89206 6.271L1.1007 1.5736C1.03222 1.50647 1 1.42157 1 1.33469Z" fill="white"/>
<path fill-rule="evenodd" clip-rule="evenodd" d="M6.72553 6.62797L11.4504 1.99382C11.4504 1.9938 11.4503 1.99385 11.4504 1.99382C11.7832 1.66746 11.7832 1.13219 11.4504 0.805862C11.123 0.484925 10.5943 0.484925 10.2669 0.805862L6.13374 4.85799L1.9341 0.740703C1.60675 0.419766 1.07802 0.419766 0.750666 0.740703C0.586821 0.901334 0.5 1.11753 0.5 1.33469C0.5 1.54997 0.582122 1.7654 0.750666 1.93064L5.54202 6.62804C5.86938 6.94898 6.39818 6.9489 6.72553 6.62797ZM6.13374 5.5582L1.58407 1.09774C1.45114 0.967421 1.23363 0.967421 1.1007 1.09774C1.03424 1.1629 1 1.24979 1 1.33469C1 1.42157 1.03222 1.50647 1.1007 1.5736L5.89206 6.271C6.02498 6.40132 6.2425 6.40132 6.37542 6.271L11.1003 1.63679C11.2332 1.50647 11.2332 1.29322 11.1003 1.1629C10.9674 1.03258 10.7499 1.03258 10.617 1.1629L6.13374 5.5582Z" fill="white"/>
</svg>
