<svg width="7" height="10" viewBox="0 0 7 10" fill="none" xmlns="http://www.w3.org/2000/svg">
<path d="M1.11225 9.16666C1.0415 9.16666 0.969088 9.13869 0.914789 9.08439C0.806189 8.97579 0.806189 8.79808 0.914789 8.68948L4.63186 4.97241L0.969088 1.30963C0.860489 1.20103 0.860489 1.02332 0.969088 0.914725C1.07769 0.806125 1.2554 0.806125 1.364 0.914725L5.22587 4.77495C5.33447 4.88355 5.33447 5.06126 5.22587 5.16986L1.31134 9.08439C1.2554 9.14033 1.18465 9.16666 1.11225 9.16666Z" fill="#C31625"/>
<path fill-rule="evenodd" clip-rule="evenodd" d="M5.22587 4.77495C5.33447 4.88355 5.33447 5.06126 5.22587 5.16986L1.31134 9.08439L1.31052 9.08521C1.2547 9.14059 1.1843 9.16666 1.11225 9.16666C1.0415 9.16666 0.969088 9.13869 0.914789 9.08439C0.806189 8.97579 0.806189 8.79808 0.914789 8.68948L4.63186 4.97241L0.969088 1.30963C0.860489 1.20103 0.860489 1.02332 0.969088 0.914725C1.07769 0.806125 1.2554 0.806125 1.364 0.914725L5.22587 4.77495ZM3.45334 4.97241L0.325529 8.10022C-0.10851 8.53426 -0.10851 9.23961 0.325529 9.67365C0.540233 9.88835 0.826381 10 1.11225 10C1.39341 10 1.67991 9.89434 1.9006 9.67365L5.81513 5.75912C6.24917 5.32508 6.24917 4.61973 5.81513 4.18569L1.95326 0.325466C1.51921 -0.108447 0.813826 -0.10853 0.379829 0.325466C-0.0542102 0.759505 -0.0542102 1.46485 0.379829 1.89889L3.45334 4.97241Z" fill="#C31625"/>
</svg>
