<svg width="14" height="13" viewBox="0 0 14 13" fill="none" xmlns="http://www.w3.org/2000/svg">
<path d="M7.98786 1.16479C7.93676 1.11268 7.8758 1.07126 7.80854 1.04295C7.74127 1.01463 7.66904 0.999981 7.59606 0.999856C7.52308 0.99973 7.4508 1.01413 7.38344 1.04221C7.31608 1.0703 7.25498 1.11151 7.2037 1.16345C7.15242 1.21538 7.11199 1.277 7.08477 1.34471C7.05754 1.41243 7.04406 1.48488 7.04512 1.55786C7.04617 1.63083 7.06174 1.70287 7.09091 1.76977C7.12008 1.83667 7.16228 1.89709 7.21503 1.94752L11.2722 5.95687L1.55001 5.95688C1.40413 5.95688 1.26422 6.01483 1.16107 6.11798C1.05791 6.22114 0.999959 6.36105 0.999959 6.50693C0.999959 6.65281 1.05791 6.79272 1.16107 6.89588C1.26422 6.99903 1.40413 7.05699 1.55001 7.05699L11.2711 7.05698L7.21503 11.0647C7.11397 11.1677 7.05747 11.3064 7.05772 11.4507C7.05797 11.5951 7.11495 11.7336 7.21636 11.8363C7.31777 11.939 7.4555 11.9977 7.59983 11.9998C7.74415 12.0019 7.88352 11.9472 7.98786 11.8474L12.8993 6.99538C12.964 6.93143 13.0154 6.85528 13.0504 6.77134C13.0855 6.6874 13.1035 6.59734 13.1035 6.50638C13.1035 6.41542 13.0855 6.32535 13.0504 6.24142C13.0154 6.15748 12.964 6.08133 12.8993 6.01738L7.98786 1.16479Z" fill="#414140"/>
<path fill-rule="evenodd" clip-rule="evenodd" d="M7.21503 11.0647L11.2711 7.05698L1.55001 7.05699C1.40413 7.05699 1.26422 6.99903 1.16107 6.89588C1.05791 6.79272 0.999959 6.65281 0.999959 6.50693C0.999959 6.36105 1.05791 6.22114 1.16107 6.11798C1.26422 6.01483 1.40413 5.95688 1.55001 5.95688L11.2722 5.95687L7.21503 1.94752C7.16228 1.89709 7.12008 1.83667 7.09091 1.76977C7.06174 1.70287 7.04617 1.63083 7.04512 1.55786C7.04406 1.48488 7.05754 1.41243 7.08477 1.34471C7.11199 1.277 7.15242 1.21538 7.2037 1.16345C7.25498 1.11151 7.31608 1.0703 7.38344 1.04221C7.4508 1.01413 7.52308 0.99973 7.59606 0.999856C7.66904 0.999981 7.74127 1.01463 7.80854 1.04295C7.8758 1.07126 7.93676 1.11268 7.98786 1.16479L12.8993 6.01738C12.964 6.08133 13.0154 6.15748 13.0504 6.24142C13.0855 6.32535 13.1035 6.41542 13.1035 6.50638C13.1035 6.59734 13.0855 6.6874 13.0504 6.77134C13.0154 6.85528 12.964 6.93143 12.8993 6.99538L7.98786 11.8474C7.88352 11.9472 7.74415 12.0019 7.59983 11.9998C7.4555 11.9977 7.31777 11.939 7.21636 11.8363C7.11495 11.7336 7.05797 11.5951 7.05772 11.4507C7.05747 11.3064 7.11397 11.1677 7.21503 11.0647ZM8.20002 0.952828C8.12143 0.873178 8.02789 0.809821 7.92474 0.7664C7.82079 0.722638 7.70917 0.700001 7.59638 0.699807C7.4836 0.699613 7.3719 0.721866 7.2678 0.76527C7.16369 0.808674 7.06927 0.87236 6.99003 0.952619C6.91078 1.03288 6.8483 1.1281 6.80623 1.23275C6.76415 1.3374 6.74332 1.44937 6.74495 1.56214C6.74658 1.67492 6.77064 1.78624 6.81572 1.88963C6.86044 1.99217 6.92495 2.08487 7.00555 2.16242L10.5417 5.65683L1.54982 5.65683C1.32437 5.65683 1.10816 5.74639 0.948739 5.9058C0.789322 6.06522 0.699764 6.28143 0.699764 6.50688C0.699764 6.73233 0.789322 6.94854 0.94874 7.10796C1.10816 7.26738 1.32437 7.35694 1.54982 7.35694L10.5405 7.35694L7.00398 10.8512L7.00063 10.8546C6.84446 11.0139 6.75714 11.2281 6.75753 11.4512C6.75791 11.6743 6.84596 11.8883 7.00269 12.047C7.15941 12.2057 7.37225 12.2965 7.5953 12.2997C7.81834 12.3029 8.03371 12.2184 8.19496 12.0642L13.1099 7.20875C13.2029 7.1169 13.2767 7.00747 13.327 6.8869C13.3774 6.76634 13.4033 6.63699 13.4033 6.50633C13.4033 6.37568 13.3774 6.24632 13.327 6.12576C13.2767 6.00519 13.2029 5.89582 13.11 5.80397L8.20002 0.952828Z" fill="#414140"/>
</svg>
