<svg width="23" height="21" viewBox="0 0 23 21" fill="none" xmlns="http://www.w3.org/2000/svg">
<path d="M13.3787 1.1523C13.1536 0.922734 12.8851 0.740366 12.5887 0.615869C12.2923 0.491372 11.9741 0.427246 11.6526 0.427246C11.3312 0.427246 11.0129 0.491372 10.7166 0.615869C10.4202 0.740366 10.1516 0.922734 9.9266 1.1523L1.24915 9.98873C0.792757 10.4603 0.537598 11.0908 0.537598 11.747C0.537598 12.4032 0.792757 13.0338 1.24915 13.5053L7.44177 19.8124C7.87314 20.1938 8.4357 20.4272 9.05385 20.4272H14.2536C14.577 20.427 14.897 20.362 15.1949 20.2362C15.4928 20.1104 15.7624 19.9262 15.988 19.6946L22.0606 13.5109C22.5175 13.0396 22.773 12.409 22.773 11.7526C22.773 11.0962 22.5175 10.4656 22.0606 9.99429L13.3787 1.1523ZM13.1385 17.2931L12.2713 18.1737C12.2392 18.207 12.2007 18.2336 12.1581 18.2517C12.1155 18.2699 12.0697 18.2792 12.0234 18.2793H11.2819C11.1972 18.2785 11.1158 18.2469 11.0528 18.1903L10.169 17.292C10.1038 17.2246 10.0673 17.1345 10.0673 17.0408C10.0673 16.947 10.1038 16.8569 10.169 16.7895L11.4075 15.5287C11.4395 15.4958 11.4778 15.4697 11.5201 15.4518C11.5624 15.4339 11.6078 15.4247 11.6537 15.4247C11.6997 15.4247 11.7451 15.4339 11.7874 15.4518C11.8297 15.4697 11.868 15.4958 11.9 15.5287L13.1385 16.7906C13.204 16.8579 13.2406 16.948 13.2406 17.0419C13.2406 17.1357 13.204 17.2259 13.1385 17.2931ZM13.1385 12.0022L9.67533 15.5299C9.64296 15.5627 9.60436 15.5888 9.56179 15.6065C9.51921 15.6243 9.47353 15.6334 9.42741 15.6332H8.68696C8.60187 15.6336 8.5196 15.6027 8.45571 15.5465L7.57407 14.6482C7.50879 14.5806 7.4723 14.4903 7.4723 14.3964C7.4723 14.3024 7.50879 14.2121 7.57407 14.1446L11.4086 10.24C11.4407 10.2072 11.479 10.1812 11.5213 10.1634C11.5636 10.1456 11.609 10.1365 11.6549 10.1365C11.7007 10.1365 11.7461 10.1456 11.7884 10.1634C11.8307 10.1812 11.869 10.2072 11.9011 10.24L13.1396 11.5019C13.205 11.5687 13.2415 11.6585 13.2415 11.752C13.2415 11.8455 13.205 11.9353 13.1396 12.0022H13.1385ZM13.1385 6.71454L7.07933 12.8849C7.04699 12.9182 7.00826 12.9446 6.96547 12.9626C6.92267 12.9805 6.87669 12.9897 6.83029 12.9894H6.08873C6.00398 12.9897 5.92208 12.9588 5.85859 12.9027L4.97584 12.0022C4.91077 11.9352 4.87438 11.8454 4.87438 11.752C4.87438 11.6586 4.91077 11.5689 4.97584 11.5019L11.4075 4.95125C11.4396 4.91848 11.4779 4.89244 11.5202 4.87466C11.5625 4.85688 11.6079 4.84773 11.6537 4.84773C11.6996 4.84773 11.745 4.85688 11.7873 4.87466C11.8296 4.89244 11.8679 4.91848 11.9 4.95125L13.1385 6.21201C13.204 6.27927 13.2406 6.36942 13.2406 6.46328C13.2406 6.55713 13.204 6.64728 13.1385 6.71454Z" fill="black"/>
</svg>
