<svg width="30" height="28" viewBox="0 0 30 28" fill="none" xmlns="http://www.w3.org/2000/svg">
<path d="M8.7 17.7272V8.42725H3C1.35 8.42725 0 9.77725 0 11.4272V20.4272C0 22.0772 1.35 23.4272 3 23.4272H4.5V27.9272L9 23.4272H16.5C18.15 23.4272 19.5 22.0772 19.5 20.4272V17.6972C19.4014 17.7184 19.3008 17.729 19.2 17.7287H8.7V17.7272ZM27 0.927246H13.5C11.85 0.927246 10.5 2.27725 10.5 3.92725V15.9272H21L25.5 20.4272V15.9272H27C28.65 15.9272 30 14.5787 30 12.9272V3.92725C30 2.27725 28.65 0.927246 27 0.927246Z" fill="white"/>
</svg>
