<svg width="21" height="21" viewBox="0 0 21 21" fill="none" xmlns="http://www.w3.org/2000/svg">
<path fill-rule="evenodd" clip-rule="evenodd" d="M0.541993 10.1275C4.5931 10.077 6.87047 9.79992 8.39039 8.28002C9.91029 6.76012 10.1874 4.48275 10.2379 0.431641C4.95322 0.5872 0.69756 4.84285 0.541993 10.1275ZM10.8373 0.431641C10.8878 4.48274 11.1649 6.76012 12.6848 8.28002C14.2047 9.79992 16.4821 10.077 20.5332 10.1275C20.3776 4.84285 16.122 0.587201 10.8373 0.431641ZM20.5332 10.727C16.4821 10.7775 14.2047 11.0545 12.6848 12.5744C11.1649 14.0944 10.8878 16.3717 10.8373 20.4228C16.122 20.2673 20.3776 16.0116 20.5332 10.727ZM10.2379 20.4228C10.1874 16.3717 9.91029 14.0944 8.39039 12.5745C6.87049 11.0545 4.5931 10.7775 0.541992 10.727C0.697552 16.0116 4.95321 20.2673 10.2379 20.4228Z" fill="black"/>
</svg>
