<svg width="23" height="23" viewBox="0 0 23 23" fill="none" xmlns="http://www.w3.org/2000/svg">
<path d="M4.32045 17.3234C5.25545 16.6084 6.30045 16.0448 7.45545 15.6327C8.61044 15.2205 9.82044 15.0141 11.0854 15.0134C12.3504 15.0126 13.5604 15.2191 14.7154 15.6327C15.8704 16.0463 16.9154 16.6098 17.8504 17.3234C18.4921 16.5717 18.9919 15.7192 19.3497 14.7659C19.7076 13.8125 19.8862 12.795 19.8854 11.7134C19.8854 9.27504 19.0285 7.19861 17.3147 5.48408C15.6009 3.76954 13.5245 2.91264 11.0854 2.91338C8.64638 2.91411 6.56995 3.77138 4.85615 5.48518C3.14235 7.19897 2.28545 9.27504 2.28545 11.7134C2.28545 12.795 2.46438 13.8125 2.82225 14.7659C3.18012 15.7192 3.67951 16.5717 4.32045 17.3234ZM11.0854 12.8134C10.0038 12.8134 9.09151 12.4423 8.34865 11.7002C7.60578 10.958 7.23471 10.0458 7.23545 8.96337C7.23618 7.88097 7.60761 6.96871 8.34974 6.22657C9.09188 5.48444 10.0038 5.11338 11.0854 5.11338C12.1671 5.11338 13.0794 5.48481 13.8222 6.22767C14.5651 6.97054 14.9362 7.88244 14.9354 8.96337C14.9347 10.0443 14.5636 10.9566 13.8222 11.7002C13.0808 12.4438 12.1686 12.8148 11.0854 12.8134ZM11.0854 22.7134C9.56378 22.7134 8.13378 22.4244 6.79545 21.8466C5.45711 21.2687 4.29295 20.4851 3.30295 19.4959C2.31295 18.5066 1.52938 17.3424 0.95225 16.0034C0.375117 14.6643 0.0861839 13.2343 0.0854506 11.7134C0.0847173 10.1924 0.37365 8.76244 0.95225 7.42337C1.53085 6.08431 2.31442 4.92014 3.30295 3.93088C4.29148 2.94161 5.45565 2.15804 6.79545 1.58018C8.13525 1.00231 9.56524 0.713379 11.0854 0.713379C12.6056 0.713379 14.0356 1.00231 15.3754 1.58018C16.7152 2.15804 17.8794 2.94161 18.8679 3.93088C19.8565 4.92014 20.6404 6.08431 21.2197 7.42337C21.7991 8.76244 22.0876 10.1924 22.0854 11.7134C22.0832 13.2343 21.7943 14.6643 21.2186 16.0034C20.643 17.3424 19.8594 18.5066 18.8679 19.4959C17.8765 20.4851 16.7123 21.2691 15.3754 21.8477C14.0386 22.4263 12.6086 22.7148 11.0854 22.7134ZM11.0854 20.5134C12.0571 20.5134 12.9738 20.3715 13.8354 20.0877C14.6971 19.8039 15.4854 19.3958 16.2004 18.8634C15.4854 18.3317 14.6971 17.924 13.8354 17.6402C12.9738 17.3564 12.0571 17.2141 11.0854 17.2134C10.1138 17.2126 9.19711 17.3549 8.33544 17.6402C7.47378 17.9254 6.68545 18.3332 5.97045 18.8634C6.68545 19.395 7.47378 19.8031 8.33544 20.0877C9.19711 20.3722 10.1138 20.5141 11.0854 20.5134ZM11.0854 10.6134C11.5621 10.6134 11.9563 10.4575 12.2679 10.1459C12.5796 9.83421 12.7354 9.44004 12.7354 8.96337C12.7354 8.48671 12.5796 8.09254 12.2679 7.78087C11.9563 7.46921 11.5621 7.31337 11.0854 7.31337C10.6088 7.31337 10.2146 7.46921 9.90294 7.78087C9.59128 8.09254 9.43544 8.48671 9.43544 8.96337C9.43544 9.44004 9.59128 9.83421 9.90294 10.1459C10.2146 10.4575 10.6088 10.6134 11.0854 10.6134Z" fill="black"/>
</svg>
