<svg width="22" height="22" viewBox="0 0 22 22" fill="none" xmlns="http://www.w3.org/2000/svg">
<path d="M8.16495 21.4442C9.17295 21.7487 10.1914 21.9272 11.2729 21.9272C14.0577 21.9272 16.7284 20.821 18.6976 18.8519C20.6667 16.8827 21.7729 14.212 21.7729 11.4272C21.7729 10.0484 21.5014 8.68299 20.9737 7.40907C20.446 6.13515 19.6726 4.97764 18.6976 4.00262C17.7226 3.02761 16.565 2.25419 15.2911 1.72651C14.0172 1.19884 12.6518 0.927246 11.2729 0.927246C9.89407 0.927246 8.52869 1.19884 7.25477 1.72651C5.98085 2.25419 4.82334 3.02761 3.84833 4.00262C1.8792 5.97176 0.772949 8.64247 0.772949 11.4272C0.772949 15.8897 3.57645 19.7222 7.53495 21.2342C7.44045 20.4152 7.34595 19.0607 7.53495 18.1262L8.74245 12.9392C8.74245 12.9392 8.43795 12.3302 8.43795 11.3642C8.43795 9.91525 9.34095 8.83375 10.3699 8.83375C11.2729 8.83375 11.6929 9.49525 11.6929 10.3457C11.6929 11.2487 11.0944 12.5402 10.7899 13.7792C10.6114 14.8082 11.3359 15.7112 12.3859 15.7112C14.2549 15.7112 15.7039 13.7162 15.7039 10.9022C15.7039 8.38225 13.8979 6.66025 11.3044 6.66025C8.34345 6.66025 6.60045 8.86525 6.60045 11.1857C6.60045 12.0887 6.89445 13.0022 7.37745 13.6007C7.47195 13.6637 7.47195 13.7477 7.44045 13.9052L7.13595 15.0497C7.13595 15.2282 7.02045 15.2912 6.84195 15.1652C5.49795 14.5772 4.72095 12.6662 4.72095 11.1227C4.72095 7.80475 7.07295 4.79125 11.6089 4.79125C15.2209 4.79125 18.0349 7.38475 18.0349 10.8287C18.0349 14.4407 15.7984 17.3387 12.5959 17.3387C11.5774 17.3387 10.5799 16.7927 10.2229 16.1522L9.51945 18.6407C9.27795 19.5437 8.61645 20.7512 8.16495 21.4757V21.4442Z" fill="black"/>
</svg>
