<svg width="21" height="25" viewBox="0 0 21 25" fill="none" xmlns="http://www.w3.org/2000/svg">
<path d="M20.5 12.4271C20.5007 12.7358 20.4216 13.0394 20.2703 13.3084C20.1189 13.5775 19.9005 13.8027 19.6364 13.9624L3.26364 23.9783C2.9876 24.1473 2.67144 24.2396 2.34782 24.2456C2.02419 24.2516 1.70483 24.1711 1.42273 24.0124C1.14331 23.8561 0.910541 23.6283 0.748368 23.3523C0.586195 23.0763 0.500467 22.762 0.5 22.4419V2.41237C0.500467 2.09224 0.586195 1.77801 0.748368 1.502C0.910541 1.22599 1.14331 0.99815 1.42273 0.84192C1.70483 0.683225 2.02419 0.602717 2.34782 0.60871C2.67144 0.614703 2.9876 0.70698 3.26364 0.876011L19.6364 10.8919C19.9005 11.0515 20.1189 11.2768 20.2703 11.5458C20.4216 11.8149 20.5007 12.1185 20.5 12.4271Z" fill="black"/>
</svg>
