<svg width="20" height="20" viewBox="0 0 20 20" fill="none" xmlns="http://www.w3.org/2000/svg">
<path fill-rule="evenodd" clip-rule="evenodd" d="M14.6381 13.2923C15.8254 11.761 16.385 9.83464 16.203 7.9052C16.021 5.97576 15.111 4.18816 13.6583 2.90607C12.2055 1.62398 10.3191 0.943708 8.38281 1.00365C6.4465 1.06359 4.60574 1.85924 3.23502 3.22874C1.8631 4.59918 1.06517 6.44139 1.00382 8.37995C0.942469 10.3185 1.62232 12.2075 2.90484 13.662C4.18735 15.1165 5.976 16.0271 7.90629 16.2081C9.83659 16.3892 11.7632 15.8271 13.2936 14.6364L13.3346 14.6792L17.3737 18.7209C17.4621 18.8094 17.5671 18.8796 17.6827 18.9275C17.7983 18.9753 17.9222 19 18.0473 19C18.1724 19 18.2963 18.9753 18.4119 18.9275C18.5275 18.8796 18.6325 18.8094 18.721 18.7209C18.8094 18.6324 18.8796 18.5273 18.9275 18.4117C18.9754 18.296 19 18.1721 19 18.0469C19 17.9218 18.9754 17.7978 18.9275 17.6822C18.8796 17.5666 18.8094 17.4615 18.721 17.373L14.6809 13.3323C14.667 13.3186 14.6527 13.3053 14.6381 13.2923ZM12.6614 4.57658C13.199 5.1057 13.6266 5.73606 13.9194 6.43131C14.2123 7.12655 14.3646 7.87293 14.3677 8.62737C14.3708 9.38182 14.2245 10.1294 13.9373 10.827C13.6501 11.5246 13.2277 12.1585 12.6944 12.6919C12.1612 13.2254 11.5276 13.648 10.8303 13.9353C10.1329 14.2226 9.38565 14.3689 8.6315 14.3658C7.87736 14.3628 7.13128 14.2104 6.43631 13.9174C5.74134 13.6244 5.11123 13.1967 4.58233 12.6589C3.52535 11.5841 2.93571 10.1351 2.94185 8.62737C2.94799 7.11967 3.5494 5.67547 4.61509 4.60936C5.68078 3.54325 7.1244 2.94159 8.6315 2.93545C10.1386 2.92931 11.5871 3.51919 12.6614 4.57658Z" fill="black"/>
<path fill-rule="evenodd" clip-rule="evenodd" d="M13.3346 14.6792L13.2936 14.6364C11.7632 15.8271 9.83659 16.3892 7.90629 16.2081C5.976 16.0271 4.18735 15.1165 2.90484 13.662C1.62232 12.2075 0.942469 10.3185 1.00382 8.37995C1.06517 6.44139 1.8631 4.59918 3.23502 3.22874C4.60574 1.85924 6.4465 1.06359 8.38281 1.00365C10.3191 0.943708 12.2055 1.62398 13.6583 2.90607C15.111 4.18816 16.021 5.97576 16.203 7.9052C16.385 9.83464 15.8254 11.761 14.6381 13.2923C14.6527 13.3053 14.667 13.3186 14.6809 13.3323L18.721 17.373C18.8094 17.4615 18.8796 17.5666 18.9275 17.6822C18.9754 17.7978 19 17.9218 19 18.0469C19 18.1721 18.9754 18.296 18.9275 18.4117C18.8796 18.5273 18.8094 18.6324 18.721 18.7209C18.6325 18.8094 18.5275 18.8796 18.4119 18.9275C18.2963 18.9753 18.1724 19 18.0473 19C17.9222 19 17.7983 18.9753 17.6827 18.9275C17.5671 18.8796 17.4621 18.8094 17.3737 18.7209L13.3346 14.6792ZM15.2958 13.2402C16.3802 11.6716 16.8808 9.76631 16.7008 7.85824C16.5068 5.80228 15.5372 3.89741 13.9891 2.53118C12.4411 1.16496 10.4308 0.440012 8.36734 0.503889C6.30388 0.567767 4.34229 1.41566 2.88162 2.87503C1.41968 4.33541 0.569442 6.29844 0.504069 8.36413C0.438696 10.4298 1.16313 12.4428 2.52981 13.9927C3.89648 15.5427 5.80255 16.513 7.85961 16.706C9.76872 16.885 11.6745 16.3819 13.2424 15.2943L17.02 19.0743C17.1549 19.2092 17.3151 19.3163 17.4913 19.3894C17.6676 19.4624 17.8565 19.5 18.0473 19.5C18.2381 19.5 18.427 19.4624 18.6033 19.3894C18.7796 19.3163 18.9397 19.2093 19.0746 19.0743C19.2095 18.9394 19.3165 18.7792 19.3894 18.6029C19.4624 18.4267 19.5 18.2377 19.5 18.0469C19.5 17.8561 19.4624 17.6672 19.3894 17.4909C19.3165 17.3147 19.2095 17.1545 19.0746 17.0195L15.2958 13.2402ZM13.4586 6.6254C13.1914 5.99096 12.8012 5.41575 12.3107 4.93293C11.3304 3.96807 10.0087 3.42985 8.63354 3.43545C7.25841 3.44105 5.94115 3.99002 4.96871 4.96284C3.99627 5.93567 3.44745 7.25355 3.44185 8.62941C3.43625 10.0053 3.97433 11.3276 4.93882 12.3083C5.42144 12.799 5.99641 13.1893 6.63054 13.4566C7.26467 13.724 7.94543 13.863 8.63354 13.8658C9.32166 13.8686 10.0035 13.7351 10.6398 13.473C11.2761 13.2108 11.8542 12.8252 12.3408 12.3384C12.8274 11.8517 13.2129 11.2733 13.4749 10.6367C13.737 10.0001 13.8705 9.31788 13.8677 8.62941C13.8649 7.94094 13.7259 7.25984 13.4586 6.6254ZM13.9194 6.43131C13.6266 5.73606 13.199 5.1057 12.6614 4.57658C11.5871 3.51919 10.1386 2.92931 8.6315 2.93545C7.1244 2.94159 5.68078 3.54325 4.61509 4.60936C3.5494 5.67547 2.94799 7.11967 2.94185 8.62737C2.93571 10.1351 3.52535 11.5841 4.58233 12.6589C5.11123 13.1967 5.74134 13.6244 6.43631 13.9174C7.13128 14.2104 7.87736 14.3628 8.6315 14.3658C9.38565 14.3689 10.1329 14.2226 10.8303 13.9353C11.5276 13.648 12.1612 13.2254 12.6944 12.6919C13.2277 12.1585 13.6501 11.5246 13.9373 10.827C14.2245 10.1294 14.3708 9.38182 14.3677 8.62737C14.3646 7.87293 14.2123 7.12655 13.9194 6.43131Z" fill="black"/>
</svg>
