<svg width="21" height="21" viewBox="0 0 21 21" fill="none" xmlns="http://www.w3.org/2000/svg">
<path fill-rule="evenodd" clip-rule="evenodd" d="M3.32959 3.85615C5.20303 1.98146 7.74834 0.927246 10.3999 0.927246C13.0515 0.927246 15.5968 1.98146 17.4702 3.85615C19.3452 5.73084 20.3999 8.27615 20.3999 10.9272C20.3999 13.5783 19.3452 16.1237 17.4702 17.9983C15.5968 19.873 13.0515 20.9272 10.3999 20.9272C7.74834 20.9272 5.20303 19.873 3.32959 17.9983C1.45459 16.1237 0.399902 13.5783 0.399902 10.9272C0.400439 8.27503 1.45423 5.73159 3.32959 3.85615ZM10.7579 8.30972C9.78598 8.7143 7.84223 9.5516 4.9266 10.8216C4.45316 11.0099 4.20473 11.1941 4.18285 11.3741C4.14438 11.6782 4.52519 11.7981 5.04264 11.9611C5.11361 11.9834 5.18715 12.0066 5.26254 12.0311C5.77348 12.1971 6.46098 12.3913 6.81723 12.3989C7.14223 12.406 7.50316 12.2724 7.9016 11.9983C10.6266 10.1597 12.0313 9.23034 12.1204 9.21035C12.1829 9.19628 12.2688 9.17847 12.3266 9.2305C12.386 9.28238 12.3797 9.38081 12.3735 9.40722C12.3366 9.56782 10.8464 10.9534 10.0709 11.6744C9.82708 11.901 9.65392 12.062 9.61879 12.0986C9.5403 12.1802 9.46029 12.2573 9.38339 12.3314C8.90921 12.7885 8.55346 13.1314 9.40316 13.6913C9.81516 13.9627 10.144 14.1866 10.4727 14.4105C10.8258 14.6511 11.1788 14.8915 11.6344 15.1903C11.7516 15.2671 11.8635 15.3469 11.9725 15.4246C12.3866 15.7198 12.7586 15.985 13.2188 15.9427C13.486 15.9182 13.7625 15.6669 13.9016 14.9175C14.2329 13.1464 14.8844 9.30925 15.0344 7.728C15.0485 7.58956 15.0313 7.41222 15.0188 7.33441C15.0047 7.25652 14.9766 7.14558 14.8766 7.06355C14.7563 6.96628 14.5719 6.94581 14.4891 6.94714C14.1125 6.95394 13.536 7.15456 10.7579 8.30972Z" fill="black"/>
</svg>
