<svg width="22" height="21" viewBox="0 0 22 21" fill="none" xmlns="http://www.w3.org/2000/svg">
<path fill-rule="evenodd" clip-rule="evenodd" d="M17.7441 1.2593C15.2398 0.625758 12.6451 0.354168 10.0632 0.443986L10.0632 0.443956C7.97141 0.515053 5.88655 0.824614 3.86589 1.37155C2.41553 1.77628 1.23802 3.02144 0.930394 4.4965C0.355287 7.34185 0.356893 10.3032 0.933077 13.1486C1.24337 14.5958 2.38399 15.8201 3.80223 16.243C6.63074 17.0166 9.58441 17.3214 12.5119 17.1642C12.9008 17.1375 13.2946 17.2754 13.5819 17.5379C14.0085 17.8978 14.435 18.2578 14.8614 18.6177C15.5551 19.2034 16.2487 19.7889 16.9432 20.3736C17.077 20.487 17.3584 20.4148 17.3386 20.2117C17.3397 19.6264 17.3395 19.0411 17.3393 18.4558C17.3391 17.9349 17.3389 17.414 17.3396 16.8932C17.3332 16.6424 17.5199 16.412 17.7671 16.3666C18.2887 16.2473 18.8012 16.0688 19.2522 15.7763C20.2008 15.178 20.8925 14.1879 21.1183 13.0887C21.6805 10.2637 21.6773 7.32743 21.1102 4.50295C20.8422 3.25348 19.9681 2.15215 18.8087 1.61216C18.4712 1.44802 18.1084 1.34485 17.7441 1.2593ZM6.27201 4.71142C6.26131 4.43662 6.48228 4.18479 6.75297 4.14844L6.75295 4.14843C8.43662 4.14125 10.1207 4.14228 11.8047 4.14331C13.0028 4.14404 14.2009 4.14477 15.3989 4.14255C15.7049 4.1249 16.0008 4.39275 15.9879 4.70552C15.9881 4.85218 15.9882 4.99888 15.9884 5.14561C15.9891 5.6793 15.9898 6.21337 15.9869 6.74677C15.9821 7.04938 15.6953 7.30066 15.3963 7.28409C15.0786 7.28537 14.7609 7.28504 14.4432 7.28472C14.1012 7.28437 13.7593 7.28402 13.4173 7.28568C13.1118 7.2766 12.831 7.54872 12.8454 7.85721C12.8452 8.7618 12.8453 9.66625 12.8454 10.5707C12.8456 11.4666 12.8457 12.3626 12.8454 13.2587C12.8674 13.5827 12.5677 13.8762 12.2452 13.8537C12.0202 13.8537 11.7953 13.8539 11.5703 13.854C11.046 13.8543 10.5217 13.8547 9.99767 13.8532C9.68255 13.8666 9.39901 13.5779 9.41506 13.264C9.41445 12.2349 9.41454 11.2059 9.41463 10.177C9.41469 9.40517 9.41476 8.63334 9.41453 7.86151C9.42578 7.62093 9.25833 7.3937 9.03362 7.31724C8.94097 7.28069 8.84122 7.28221 8.74264 7.28372C8.71428 7.28415 8.68602 7.28458 8.65806 7.2841C8.57166 7.28418 8.48526 7.28426 8.39886 7.28435C7.87858 7.28487 7.3583 7.28539 6.83803 7.28356C6.5438 7.28677 6.27042 7.02854 6.27256 6.73235C6.27095 6.0587 6.27148 5.38507 6.27201 4.71143V4.71142Z" fill="black"/>
</svg>
