<svg width="23" height="23" viewBox="0 0 23 23" fill="none" xmlns="http://www.w3.org/2000/svg">
<path d="M11.7729 0.427246C5.69774 0.427246 0.772949 5.35204 0.772949 11.4272C0.772949 17.5025 5.69774 22.4272 11.7729 22.4272C17.8482 22.4272 22.7729 17.5025 22.7729 11.4272C22.7729 5.35204 17.8482 0.427246 11.7729 0.427246ZM16.0034 12.8378C16.0034 12.8378 16.9762 13.798 17.2157 14.2437C17.2225 14.2536 17.2267 14.2613 17.2283 14.2666C17.3253 14.4293 17.3493 14.558 17.3004 14.6528C17.2202 14.8109 16.9452 14.8888 16.8513 14.8957H15.1325C15.0134 14.8957 14.7636 14.8647 14.4611 14.6562C14.2285 14.4935 13.9993 14.2265 13.7759 13.9664C13.4424 13.5791 13.1537 13.2445 12.8626 13.2445C12.8257 13.2444 12.7889 13.2502 12.7538 13.2617C12.5338 13.3328 12.2519 13.6467 12.2519 14.4832C12.2519 14.7444 12.0457 14.8945 11.9001 14.8945H11.1129C10.8448 14.8945 9.44805 14.8006 8.21055 13.4955C6.69576 11.897 5.33222 8.691 5.32076 8.6612C5.23482 8.45381 5.41243 8.34266 5.60607 8.34266H7.34201C7.57347 8.34266 7.64909 8.4836 7.7018 8.6085C7.76368 8.75402 7.99055 9.33266 8.36295 9.9835C8.9668 11.0445 9.33691 11.4754 9.63368 11.4754C9.68932 11.4747 9.74398 11.4606 9.79295 11.4341C10.1802 11.2187 10.1081 9.83797 10.0909 9.55152C10.0909 9.49766 10.0897 8.93391 9.89149 8.6635C9.74941 8.46756 9.50764 8.39308 9.36097 8.36558C9.42033 8.28366 9.49854 8.21724 9.58899 8.17193C9.85482 8.03902 10.3338 8.01954 10.8093 8.01954H11.074C11.5896 8.02641 11.7225 8.05964 11.9093 8.10662C12.2874 8.19714 12.2954 8.4412 12.2622 9.27652C12.2519 9.5137 12.2416 9.78183 12.2416 10.0981L12.2382 10.3181C12.2267 10.7432 12.2129 11.2256 12.5132 11.4238C12.5519 11.4493 12.5974 11.4625 12.6438 11.4616C12.7481 11.4616 13.062 11.4616 13.9122 10.003C14.1734 9.53298 14.4013 9.04517 14.594 8.54318C14.6112 8.51339 14.6616 8.42172 14.7212 8.3862C14.7656 8.36509 14.8141 8.35376 14.8633 8.35297H16.904C17.1263 8.35297 17.2787 8.3862 17.3073 8.47214C17.3577 8.6085 17.2982 9.02443 16.3666 10.286L15.9507 10.8348C15.1062 11.9417 15.1062 11.9979 16.0034 12.8378Z" fill="black"/>
</svg>
