<svg width="21" height="21" viewBox="0 0 21 21" fill="none" xmlns="http://www.w3.org/2000/svg">
<path d="M17.5 3.83731C16.5832 2.91123 15.4912 2.17697 14.2876 1.67736C13.0841 1.17774 11.7931 0.922766 10.49 0.927306C5.03 0.927306 0.58 5.37731 0.58 10.8373C0.58 12.5873 1.04 14.2873 1.9 15.7873L0.5 20.9273L5.75 19.5473C7.2 20.3373 8.83 20.7573 10.49 20.7573C15.95 20.7573 20.4 16.3073 20.4 10.8473C20.4 8.19731 19.37 5.70731 17.5 3.83731ZM10.49 19.0773C9.01 19.0773 7.56 18.6773 6.29 17.9273L5.99 17.7473L2.87 18.5673L3.7 15.5273L3.5 15.2173C2.67775 13.9043 2.24114 12.3865 2.24 10.8373C2.24 6.29731 5.94 2.59731 10.48 2.59731C12.68 2.59731 14.75 3.45731 16.3 5.01731C17.0675 5.78127 17.6757 6.68997 18.0894 7.69073C18.5031 8.69149 18.714 9.76441 18.71 10.8473C18.73 15.3873 15.03 19.0773 10.49 19.0773ZM15.01 12.9173C14.76 12.7973 13.54 12.1973 13.32 12.1073C13.09 12.0273 12.93 11.9873 12.76 12.2273C12.59 12.4773 12.12 13.0373 11.98 13.1973C11.84 13.3673 11.69 13.3873 11.44 13.2573C11.19 13.1373 10.39 12.8673 9.45 12.0273C8.71 11.3673 8.22 10.5573 8.07 10.3073C7.93 10.0573 8.05 9.92731 8.18 9.79731C8.29 9.68731 8.43 9.50731 8.55 9.3673C8.67 9.2273 8.72 9.1173 8.8 8.9573C8.88 8.7873 8.84 8.64731 8.78 8.52731C8.72 8.40731 8.22 7.18731 8.02 6.68731C7.82 6.20731 7.61 6.26731 7.46 6.25731H6.98C6.81 6.25731 6.55 6.31731 6.32 6.56731C6.1 6.81731 5.46 7.41731 5.46 8.63731C5.46 9.85731 6.35 11.0373 6.47 11.1973C6.59 11.3673 8.22 13.8673 10.7 14.9373C11.29 15.1973 11.75 15.3473 12.11 15.4573C12.7 15.6473 13.24 15.6173 13.67 15.5573C14.15 15.4873 15.14 14.9573 15.34 14.3773C15.55 13.7973 15.55 13.3073 15.48 13.1973C15.41 13.0873 15.26 13.0373 15.01 12.9173Z" fill="black"/>
</svg>
