<svg width="24" height="17" viewBox="0 0 24 17" fill="none" xmlns="http://www.w3.org/2000/svg">
<path d="M23.27 3.90393C23.27 3.90393 23.04 2.29393 22.35 1.60393C21.5067 0.683925 20.51 0.683925 20.05 0.607258C16.83 0.377258 12 0.377258 12 0.377258C12 0.377258 7.17 0.377258 3.95 0.607258C3.49 0.683925 2.49333 0.683925 1.65 1.60393C0.96 2.29393 0.73 3.90393 0.73 3.90393C0.73 3.90393 0.5 5.74393 0.5 7.58393V9.27059C0.5 11.1106 0.73 13.0273 0.73 13.0273C0.73 13.0273 0.96 14.6373 1.65 15.3273C2.49333 16.2473 3.64333 16.2473 4.18 16.3239C6.02 16.4006 12 16.4773 12 16.4773C12 16.4773 16.83 16.4773 20.05 16.2473C20.51 16.1706 21.5067 16.1706 22.35 15.2506C23.04 14.5606 23.27 12.9506 23.27 12.9506C23.27 12.9506 23.5 11.1106 23.5 9.27059V7.58393C23.5 5.74393 23.27 3.90393 23.27 3.90393ZM9.62333 11.4173V4.97726L15.8333 8.19726L9.62333 11.4173Z" fill="black"/>
</svg>
