<svg width="101" height="101" viewBox="0 0 101 101" fill="none" xmlns="http://www.w3.org/2000/svg">
<rect x="1" y="0.927246" width="99" height="99" rx="49.5" stroke="#E8E8E8"/>
<path d="M63.9212 37.8157C63.9089 37.605 63.8197 37.4062 63.6705 37.257C63.5213 37.1078 63.3225 37.0186 63.1119 37.0063C52.2946 36.3691 43.6427 39.6123 39.9676 45.6811C37.4649 49.8126 37.5625 54.6931 40.2245 59.4862L37.274 62.4366C37.1894 62.5154 37.1216 62.6105 37.0745 62.7161C37.0275 62.8217 37.0022 62.9357 37.0001 63.0513C36.9981 63.1669 37.0194 63.2818 37.0627 63.389C37.106 63.4962 37.1704 63.5936 37.2522 63.6754C37.3339 63.7571 37.4313 63.8216 37.5386 63.8649C37.6458 63.9082 37.7606 63.9295 37.8762 63.9274C37.9918 63.9254 38.1058 63.9001 38.2115 63.853C38.3171 63.8059 38.4121 63.7381 38.491 63.6535L41.4414 60.7031C43.9197 62.0793 46.421 62.771 48.8304 62.771C51.0953 62.7718 53.3162 62.1449 55.2464 60.9599C61.3152 57.2848 64.557 48.633 63.9212 37.8157ZM54.3553 59.4847C50.8997 61.577 46.8013 61.5469 42.7128 59.4288L55.7128 46.4288C55.8649 46.2655 55.9477 46.0497 55.9438 45.8266C55.9398 45.6035 55.8495 45.3907 55.6917 45.2329C55.534 45.0752 55.3212 44.9848 55.0981 44.9809C54.875 44.977 54.6591 45.0598 54.4959 45.2118L41.4959 58.2147C39.3778 54.1263 39.3434 50.035 41.44 46.5723C44.6946 41.2009 52.4366 38.2777 62.248 38.6867C62.6498 48.4909 59.7266 56.2344 54.3553 59.4876V59.4847Z" fill="black"/>
</svg>
