<svg width="101" height="101" viewBox="0 0 101 101" fill="none" xmlns="http://www.w3.org/2000/svg">
<rect x="1.375" y="0.927246" width="99" height="99" rx="49.5" stroke="#E8E8E8"/>
<path d="M64.2309 36.8871L64.2309 36.8871L51.7646 31.614L51.5061 31.5208C51.0141 31.3728 50.4949 31.4004 50.0128 31.6038C50.0128 31.6038 50.0127 31.6038 50.0127 31.6038L37.5437 36.878L37.3129 36.9886C36.8887 37.2194 36.5132 37.5892 36.2422 38.0719C35.9671 38.5617 35.8164 39.1392 35.8164 39.7361V50.5234L35.8251 51.1123C35.9179 54.212 36.7504 57.219 38.2268 59.8159C39.7042 62.4144 41.7669 64.4988 44.1853 65.8628L50.1437 69.2231L50.3472 69.322C50.5465 69.403 50.7537 69.4369 50.9583 69.4249C51.1699 69.4126 51.3823 69.351 51.5827 69.2382L64.2309 36.8871ZM64.2309 36.8871C64.6729 37.0741 65.0769 37.4068 65.3838 37.8647C65.6883 38.3191 65.8797 38.8718 65.9256 39.4604L65.9367 39.7549V50.5307C65.9366 53.6346 65.1933 56.6748 63.7925 59.3293C62.3932 61.9809 60.3943 64.1416 58.0188 65.5967L57.5594 65.8675L51.5832 69.2379L64.2309 36.8871Z" stroke="black" stroke-width="2"/>
<path d="M57.9803 44.8822C57.879 44.7892 57.7601 44.7175 57.6305 44.6714C57.5009 44.6254 57.3634 44.6059 57.2261 44.6142C57.0889 44.6224 56.9547 44.6582 56.8316 44.7195C56.7084 44.7807 56.5989 44.8661 56.5095 44.9706L49.8134 52.6799L45.4879 47.8936C45.3964 47.7911 45.2853 47.7081 45.1611 47.6495C45.0369 47.5909 44.9022 47.5578 44.765 47.5523C44.6277 47.5468 44.4908 47.569 44.3623 47.6175C44.2338 47.666 44.1164 47.7398 44.0171 47.8346C43.8143 48.0295 43.6951 48.2953 43.6844 48.5763C43.6737 48.8573 43.7724 49.1314 43.9597 49.3411L49.064 54.9885C49.1612 55.0978 49.2807 55.185 49.4145 55.2442C49.5482 55.3034 49.6931 55.3333 49.8394 55.3318C49.9857 55.3304 50.1299 55.2976 50.2624 55.2357C50.395 55.1738 50.5127 55.0842 50.6077 54.973L58.0656 46.3871C58.249 46.174 58.3425 45.8981 58.3266 45.6174C58.3107 45.3368 58.1865 45.0732 57.9803 44.8822Z" fill="black"/>
</svg>
