<svg width="101" height="101" viewBox="0 0 101 101" fill="none" xmlns="http://www.w3.org/2000/svg">
<rect x="1" y="0.927246" width="99" height="99" rx="49.5" stroke="#E8E8E8"/>
<path d="M50.9266 56.0897C52.8541 55.0642 54.3832 53.4237 55.2708 51.429C56.1585 49.4344 56.3536 47.2001 55.8251 45.0818C55.2967 42.9635 54.075 41.0827 52.3545 39.7387C50.634 38.3946 48.5135 37.6646 46.3302 37.6646C44.147 37.6646 42.0264 38.3946 40.3059 39.7387C38.5854 41.0827 37.3638 42.9635 36.8353 45.0818C36.3069 47.2001 36.502 49.4344 37.3896 51.429C38.2772 53.4237 39.8064 55.0642 41.7338 56.0897C38.4718 57.0134 35.5242 58.9306 33.1919 61.7077C33.0484 61.8891 32.9812 62.1193 33.0046 62.3495C33.0279 62.5796 33.14 62.7916 33.317 62.9405C33.4941 63.0894 33.7222 63.1635 33.9529 63.147C34.1837 63.1306 34.3989 63.0249 34.553 62.8524C37.5985 59.2316 41.7798 57.2388 46.3302 57.2388C50.8807 57.2388 55.0634 59.2316 58.1044 62.8524C58.1783 62.9457 58.2702 63.0233 58.3746 63.0806C58.479 63.1378 58.5939 63.1735 58.7123 63.1855C58.8308 63.1975 58.9504 63.1856 59.0642 63.1506C59.178 63.1155 59.2836 63.0579 59.3747 62.9813C59.4659 62.9047 59.5407 62.8105 59.5948 62.7044C59.6488 62.5983 59.6811 62.4825 59.6895 62.3637C59.698 62.2449 59.6825 62.1257 59.6441 62.013C59.6056 61.9003 59.5449 61.7965 59.4656 61.7077C57.1333 58.9306 54.1886 57.0134 50.9266 56.0897ZM38.3236 47.4529C38.3236 45.8693 38.7932 44.3213 39.6729 43.0047C40.5527 41.688 41.8032 40.6617 43.2662 40.0557C44.7292 39.4497 46.3391 39.2912 47.8922 39.6001C49.4454 39.9091 50.872 40.6716 51.9918 41.7914C53.1115 42.9111 53.8741 44.3378 54.183 45.8909C54.492 47.444 54.3334 49.0539 53.7274 50.5169C53.1214 51.9799 52.0952 53.2304 50.7785 54.1102C49.4618 54.99 47.9138 55.4596 46.3302 55.4596C44.2074 55.4572 42.1723 54.6129 40.6713 53.1119C39.1702 51.6108 38.3259 49.5757 38.3236 47.4529ZM67.7169 52.2332L62.9722 56.9779C62.8054 57.1445 62.5793 57.238 62.3435 57.238C62.1078 57.238 61.8816 57.1445 61.7148 56.9779L59.3425 54.6055C59.1854 54.4369 59.0998 54.2138 59.1039 53.9833C59.1079 53.7529 59.2013 53.533 59.3643 53.37C59.5273 53.207 59.7472 53.1136 59.9777 53.1095C60.2081 53.1055 60.4312 53.191 60.5998 53.3482L62.3435 55.0904L66.4595 50.9758C66.541 50.8884 66.6392 50.8183 66.7483 50.7697C66.8574 50.7211 66.9752 50.6949 67.0947 50.6928C67.2141 50.6907 67.3328 50.7127 67.4436 50.7574C67.5543 50.8022 67.655 50.8688 67.7394 50.9533C67.8239 51.0377 67.8905 51.1384 67.9353 51.2491C67.98 51.3599 68.002 51.4786 67.9999 51.598C67.9978 51.7175 67.9716 51.8353 67.923 51.9444C67.8744 52.0535 67.8043 52.1517 67.7169 52.2332Z" fill="black"/>
</svg>
