<svg width="101" height="101" viewBox="0 0 101 101" fill="none" xmlns="http://www.w3.org/2000/svg">
<rect x="1.375" y="0.927246" width="99" height="99" rx="49.5" stroke="#E8E8E8"/>
<path d="M42.3483 32.4272H59.4009C60.9085 32.4272 62.3543 33.0261 63.4202 34.0921C64.4862 35.1581 65.0851 36.6039 65.0851 38.1115V62.743C65.0851 64.2506 64.4862 65.6964 63.4202 66.7624C62.3543 67.8284 60.9085 68.4272 59.4009 68.4272H42.3483C40.8407 68.4272 39.3949 67.8284 38.3289 66.7624C37.2629 65.6964 36.6641 64.2506 36.6641 62.743V38.1115C36.6641 36.6039 37.2629 35.1581 38.3289 34.0921C39.3949 33.0261 40.8407 32.4272 42.3483 32.4272ZM42.3483 34.322C41.3432 34.322 40.3794 34.7212 39.6687 35.4319C38.958 36.1426 38.5588 37.1064 38.5588 38.1115V62.743C38.5588 63.7481 38.958 64.7119 39.6687 65.4226C40.3794 66.1333 41.3432 66.5325 42.3483 66.5325H59.4009C60.4059 66.5325 61.3698 66.1333 62.0805 65.4226C62.7911 64.7119 63.1904 63.7481 63.1904 62.743V38.1115C63.1904 37.1064 62.7911 36.1426 62.0805 35.4319C61.3698 34.7212 60.4059 34.322 59.4009 34.322H53.7167V47.0167L48.0325 43.0378L42.3483 47.0167V34.322ZM51.822 34.322H44.243V43.3788L48.0325 40.7262L51.822 43.3788V34.322Z" fill="black"/>
</svg>
