<svg width="101" height="101" viewBox="0 0 101 101" fill="none" xmlns="http://www.w3.org/2000/svg">
<rect x="1" y="0.927246" width="99" height="99" rx="49.5" stroke="#E8E8E8"/>
<path d="M63.8559 36.8871L63.8559 36.8871L51.3896 31.614L51.1311 31.5208C50.6391 31.3728 50.1199 31.4004 49.6378 31.6038C49.6378 31.6038 49.6377 31.6038 49.6377 31.6038L37.1687 36.878L36.9379 36.9886C36.5137 37.2194 36.1382 37.5892 35.8672 38.0719C35.5921 38.5617 35.4414 39.1392 35.4414 39.7361V50.5234L35.4501 51.1123C35.5429 54.212 36.3754 57.219 37.8518 59.8159C39.3292 62.4144 41.3919 64.4988 43.8103 65.8628L49.7687 69.2231L49.9722 69.322C50.1715 69.403 50.3787 69.4369 50.5833 69.4249C50.7949 69.4126 51.0073 69.351 51.2077 69.2382L63.8559 36.8871ZM63.8559 36.8871C64.2979 37.0741 64.7019 37.4068 65.0088 37.8647C65.3133 38.3191 65.5047 38.8718 65.5506 39.4604L65.5617 39.7549V50.5307C65.5616 53.6346 64.8183 56.6748 63.4175 59.3293C62.0182 61.9809 60.0193 64.1416 57.6438 65.5967L57.1844 65.8675L51.2082 69.2379L63.8559 36.8871Z" stroke="black" stroke-width="2"/>
<path d="M57.6053 44.8822C57.504 44.7892 57.3851 44.7175 57.2555 44.6714C57.1259 44.6254 56.9884 44.6059 56.8511 44.6142C56.7139 44.6224 56.5797 44.6582 56.4566 44.7195C56.3334 44.7807 56.2239 44.8661 56.1345 44.9706L49.4384 52.6799L45.1129 47.8936C45.0214 47.7911 44.9103 47.7081 44.7861 47.6495C44.6619 47.5909 44.5272 47.5578 44.39 47.5523C44.2527 47.5468 44.1158 47.569 43.9873 47.6175C43.8588 47.666 43.7414 47.7398 43.6421 47.8346C43.4393 48.0295 43.3201 48.2953 43.3094 48.5763C43.2987 48.8573 43.3974 49.1314 43.5847 49.3411L48.689 54.9885C48.7862 55.0978 48.9057 55.185 49.0395 55.2442C49.1732 55.3034 49.3181 55.3333 49.4644 55.3318C49.6107 55.3304 49.7549 55.2976 49.8874 55.2357C50.02 55.1738 50.1377 55.0842 50.2327 54.973L57.6906 46.3871C57.874 46.174 57.9675 45.8981 57.9516 45.6174C57.9357 45.3368 57.8115 45.0732 57.6053 44.8822Z" fill="black"/>
</svg>
