<?xml version="1.0" encoding="utf-8"?>
<!-- Generator: Adobe Illustrator 27.5.0, SVG Export Plug-In . SVG Version: 6.00 Build 0)  -->
<svg version="1.1" id="Слой_1" xmlns="http://www.w3.org/2000/svg" xmlns:xlink="http://www.w3.org/1999/xlink" x="0px" y="0px"
	 viewBox="0 0 623.2 214" style="enable-background:new 0 0 623.2 214;" xml:space="preserve">
<style type="text/css">
	.st0{clip-path:url(#SVGID_00000075876662553378387160000006521865335627313801_);}
	.st1{fill:#0E163E;}
</style>
<g>
	<defs>
		<rect id="SVGID_1_" width="623" height="214"/>
	</defs>
	<clipPath id="SVGID_00000055684830408907881200000003498865057234540442_">
		<use xlink:href="#SVGID_1_"  style="overflow:visible;"/>
	</clipPath>
	<g style="clip-path:url(#SVGID_00000055684830408907881200000003498865057234540442_);">
		<path class="st1" d="M40.6,135.1c0-53.9,40.7-67.4,62-67.4c19.1,0,31.1,10.8,35.4,15.9C136.6,66.4,122.2,31,78.1,31
			c-20.3,0-37.7,9.5-52.7,23.5c18.9-30.1,51.9-45,80.5-44.7c42.4,0.6,68.2,35,68.2,67.5c0,53.7-40.7,67.4-62,67.4
			c-19.1,0-31.1-10.8-35.4-15.9c1.3,17.2,15.7,52.6,59.9,52.6c20.3,0,37.7-9.5,52.7-23.5c-18.8,29.9-51.7,45-80.5,44.7
			C66.3,202.3,40.6,167.6,40.6,135.1z M107.1,0C47.9,0,0,47.9,0,106.9c0,59,47.9,106.9,107.1,106.9s107.1-47.9,107.1-106.9
			C214.1,47.9,166.2,0,107.1,0z"/>
		<path class="st1" d="M249.4,199.1c0,1.9,0,3.6,0.2,5.3h-2.1l-0.2-3.8c-1.1,2.1-3.6,4.4-7.6,4.4c-2.8,0-7.4-1.3-7.4-9.6v-12.7h2.1
			v12.3c0,4.7,1.5,8.1,5.9,8.1c3.2,0,5.5-2.3,6.4-4.4c0.2-0.8,0.4-1.5,0.4-2.5v-13.6h2.1v16.5H249.4z"/>
		<path class="st1" d="M255.8,187.9c0-2.1,0-3.6-0.2-5.3h2.1l0.2,4c1.1-2.5,4-4.5,7.6-4.5c2.1,0,7.6,0.9,7.6,9.3v13.1H271v-12.9
			c0-4-1.5-7.6-6.1-7.6c-3,0-5.7,2.3-6.6,5.1c-0.2,0.6-0.4,1.3-0.4,1.9v13.6h-2.1V187.9z"/>
		<path class="st1" d="M282.1,176.3c0,0.9-0.8,1.9-1.9,1.9c-0.9,0-1.7-0.9-1.7-1.9c0-0.9,0.8-1.9,1.7-1.9
			C281.6,174.5,282.1,175.2,282.1,176.3z M279.3,204.5v-21.9h2.1v21.9H279.3z"/>
		<path class="st1" d="M291.1,177.7v4.9h6.3v1.7h-6.3v14.2c0,2.8,0.9,4.5,3.2,4.5c1.1,0,1.9-0.2,2.5-0.4l0.2,1.7
			c-0.8,0.4-1.7,0.6-3,0.6c-1.5,0-2.8-0.6-3.8-1.5c-0.9-1.1-1.3-3-1.3-5.1v-13.8H285v-1.7h3.8v-4L291.1,177.7z"/>
		<path class="st1" d="M301.3,193.4c0,7,3.8,9.8,8.3,9.8c3.2,0,4.9-0.6,6.1-1.1l0.6,1.7c-0.8,0.4-3,1.3-6.8,1.3
			c-6.3,0-10.2-4.5-10.2-11c0-7.2,4.2-11.9,9.9-11.9c7.2,0,8.5,6.8,8.5,9.8c0,0.6,0,0.9,0,1.3H301.3L301.3,193.4z M315.3,191.5
			c0-3-1.3-7.8-6.4-7.8c-4.9,0-7,4.4-7.4,7.8H315.3z"/>
		<path class="st1" d="M339.6,172.2v27.2c0,1.7,0,3.6,0.2,5.1h-1.9l-0.2-4.2h-0.2c-1.1,2.5-3.8,4.7-7.8,4.7c-5.3,0-9.5-4.5-9.5-11
			c0-7.2,4.5-11.9,9.9-11.9c3.8,0,6.1,1.9,7.2,3.8v-13.8H339.6z M337.5,191.3c0-0.6,0-1.3-0.2-2.1c-0.8-2.8-3.4-5.3-6.8-5.3
			c-4.7,0-7.8,4.2-7.8,9.8c0,4.9,2.5,9.5,7.6,9.5c3.2,0,6.1-2.1,7-5.7c0.2-0.6,0.2-1.1,0.2-1.9V191.3z"/>
		<path class="st1" d="M364.2,172.2h2.1v14.6h0.2c1.5-2.8,4.2-4.5,8-4.5c5.5,0,9.3,4.5,9.3,11.2c0,7.8-4.9,11.7-9.9,11.7
			c-3.6,0-6.1-1.3-7.8-4.5h-0.2l-0.2,4h-1.9c0-1.5,0.2-3.4,0.2-5.1v-27.2H364.2z M366.3,196c0,0.6,0.2,1.1,0.2,1.5
			c0.9,3.4,3.8,5.5,7.2,5.5c4.9,0,8-4.2,8-9.8c0-4.9-2.7-9.5-7.8-9.5c-3.2,0-6.3,2.3-7.4,5.9c-0.2,0.6-0.2,1.1-0.2,1.9V196z"/>
		<path class="st1" d="M407.2,193.4c0,8.1-5.7,11.7-10.4,11.7c-5.7,0-10-4.4-10-11.4c0-7.6,4.9-11.5,10.4-11.5
			C403,182,407.2,186.6,407.2,193.4z M388.8,193.6c0,5.5,3.6,9.6,8,9.6c4.5,0,8.1-4.2,8.1-9.6c0-4-2.3-9.6-8-9.6
			C391.5,183.9,388.8,188.8,388.8,193.6z"/>
		<path class="st1" d="M414.8,177.7v4.9h6.3v1.7h-6.3v14.2c0,2.8,0.9,4.5,3.2,4.5c1.1,0,1.9-0.2,2.5-0.4l0.2,1.7
			c-0.8,0.4-1.7,0.6-3,0.6c-1.5,0-2.8-0.6-3.8-1.5c-0.9-1.1-1.3-3-1.3-5.1v-13.8h-3.6v-1.7h3.6v-4L414.8,177.7z"/>
		<path class="st1" d="M428.1,177.7v4.9h6.3v1.7h-6.3v14.2c0,2.8,0.9,4.5,3.2,4.5c1.1,0,1.9-0.2,2.5-0.4l0.2,1.7
			c-0.8,0.4-1.7,0.6-3,0.6c-1.5,0-2.8-0.6-3.8-1.5c-0.9-1.1-1.3-3-1.3-5.1v-13.8H422v-1.7h3.8v-4L428.1,177.7z"/>
		<path class="st1" d="M440.4,172.2h-2.1v32.4h2.1V172.2z"/>
		<path class="st1" d="M449.8,176.3c0,0.9-0.8,1.9-1.9,1.9c-0.9,0-1.7-0.9-1.7-1.9c0-0.9,0.8-1.9,1.7-1.9
			C449.1,174.5,449.8,175.2,449.8,176.3z M447,204.5v-21.9h2.1v21.9H447z"/>
		<path class="st1" d="M455.5,187.9c0-2.1,0-3.6-0.2-5.3h2.1l0.2,4h0.2c1.1-2.5,4-4.5,7.6-4.5c2.1,0,7.6,0.9,7.6,9.3v13.1h-2.1
			v-12.9c0-4-1.5-7.6-6.1-7.6c-3,0-5.7,2.3-6.6,5.1c-0.2,0.6-0.4,1.3-0.4,1.9v13.6h-2.1v-16.7H455.5z"/>
		<path class="st1" d="M496.6,201.3c0,5.7-1.1,8.3-3,10c-2.1,1.9-4.9,2.6-7.4,2.6c-2.5,0-5.3-0.6-7-1.9l0.8-1.7
			c1.5,0.9,3.6,1.9,6.4,1.9c4.5,0,8-2.5,8-8.9v-3c-1.1,2.3-3.8,4.2-7.6,4.2c-5.5,0-9.5-4.7-9.5-10.8c0-7.6,5.1-11.5,9.9-11.5
			c4.4,0,6.4,2.3,7.4,4.2v-3.8h2.1c-0.2,1.7-0.2,3.4-0.2,5.7v13.1H496.6z M494.4,190.9c0-0.8,0-1.5-0.2-2.1
			c-0.9-2.6-3.2-5.1-6.8-5.1c-4.7,0-7.8,3.8-7.8,9.6c0,4.9,2.7,9.1,7.8,9.1c2.8,0,5.7-1.7,6.8-4.9c0.2-0.8,0.4-1.5,0.4-2.3v-4.4
			H494.4z"/>
		<path class="st1" d="M538.7,201.3c0,5.7-1.1,8.3-3,10c-2.1,1.9-4.9,2.6-7.4,2.6s-5.3-0.6-7-1.9l0.8-1.7c1.5,0.9,3.6,1.9,6.4,1.9
			c4.5,0,8-2.5,8-8.9v-3c-1.1,2.3-3.8,4.2-7.6,4.2c-5.5,0-9.5-4.7-9.5-10.8c0-7.6,5.1-11.5,9.9-11.5c4.4,0,6.4,2.3,7.4,4.2v-3.8h2.1
			c0,1.7-0.2,3.4-0.2,5.7v13.1H538.7z M536.4,190.9c0-0.8,0-1.5-0.2-2.1c-0.9-2.6-3.2-5.1-6.8-5.1c-4.7,0-7.8,3.8-7.8,9.6
			c0,4.9,2.7,9.1,7.8,9.1c2.8,0,5.7-1.7,6.8-4.9c0.2-0.8,0.4-1.5,0.4-2.3v-4.4H536.4z"/>
		<path class="st1" d="M544.8,189.2c0-2.3-0.2-4.5-0.2-6.6h2.1v4.4c0.9-2.6,3.2-4.9,6.3-4.9c0.2,0,0.6,0,0.9,0v2.1
			c-0.4,0-0.6,0-1.1,0c-3,0-5.1,2.6-5.7,6.1c0,0.6-0.2,1.3-0.2,2.1v12.1h-2.1V189.2L544.8,189.2z"/>
		<path class="st1" d="M575.5,193.4c0,8.1-5.7,11.7-10.4,11.7c-5.7,0-10-4.4-10-11.4c0-7.6,4.9-11.5,10.4-11.5
			C571.3,182,575.5,186.6,575.5,193.4z M557.1,193.6c0,5.5,3.6,9.6,8,9.6c4.5,0,8.1-4.2,8.1-9.6c0-4-2.3-9.6-8-9.6
			C559.7,183.9,557.1,188.8,557.1,193.6z"/>
		<path class="st1" d="M597.1,199.1c0,1.9,0,3.6,0.2,5.3h-2.1l-0.2-3.8c-1.1,2.1-3.6,4.4-7.6,4.4c-2.8,0-7.4-1.3-7.4-9.6v-12.7h2.1
			v12.3c0,4.7,1.5,8.1,5.9,8.1c3.2,0,5.5-2.3,6.4-4.4c0.2-0.8,0.4-1.5,0.4-2.5v-13.6h2.1v16.5H597.1z"/>
		<path class="st1" d="M603.5,189.6c0-2.6,0-4.9-0.2-7h2.1l0.2,4.2c1.5-2.8,4.2-4.7,8.1-4.7c5.7,0,9.5,4.7,9.5,11
			c0,7.8-4.7,11.7-9.9,11.7c-3.2,0-5.9-1.3-7.4-4v12.7h-2.1v-23.8H603.5z M605.6,195.8c0,0.6,0,1.1,0.2,1.7c0.9,3.4,3.8,5.5,7.2,5.5
			c5.1,0,8-4,8-9.8c0-4.9-2.7-9.5-7.8-9.5c-3.2,0-6.3,2.3-7.2,5.9c-0.2,0.6-0.4,1.3-0.4,1.9V195.8z"/>
		<path class="st1" d="M235.2,111.1V56h19.9v54.5c0,12.9,7.4,21.6,21.6,21.6c14.2,0,21.4-8.9,21.4-21.6V56H318v55.1
			c0,22.7-13.5,38.4-41.5,38.4C248.6,149.5,235.2,133.8,235.2,111.1z"/>
		<path class="st1" d="M329.3,147.8V56h48.3c17.4,0,26.3,11.2,26.3,23.5c0,11.4-7.2,19.3-15.7,21c9.9,1.5,17.6,11,17.6,22.3
			c0,13.8-9.1,24.8-26.7,24.8h-49.8V147.8z M384.1,82.9c0-5.7-4.2-9.7-10.8-9.7h-24.4v19.3h24.4C379.9,92.5,384.1,88.7,384.1,82.9z
			 M386,120.2c0-5.9-4.2-10.4-11.7-10.4h-25.4v20.8h25.4C381.4,130.6,386,126.8,386,120.2z"/>
		<path class="st1" d="M409.3,102c0-28.9,22-47.5,49.1-47.5c18.9,0,30.9,9.6,37.9,20.4l-16.1,8.9c-4.4-6.4-12.1-11.9-21.8-11.9
			c-16.9,0-29,12.9-29,30.1c0,17.4,12.1,30.1,29,30.1c8.1,0,15.7-3.6,19.3-7v-11h-24.3v-17h43.8v35.2c-9.3,10.4-22.4,17.2-39,17.2
			C431.3,149.5,409.3,130.9,409.3,102z"/>
	</g>
</g>
</svg>
