<?xml version="1.0" encoding="UTF-8"?>
<!DOCTYPE svg PUBLIC "-//W3C//DTD SVG 1.1//EN" "http://www.w3.org/Graphics/SVG/1.1/DTD/svg11.dtd">
<svg xmlns="http://www.w3.org/2000/svg" version="1.1" width="191px" height="69px" style="shape-rendering:geometricPrecision; text-rendering:geometricPrecision; image-rendering:optimizeQuality; fill-rule:evenodd; clip-rule:evenodd" xmlns:xlink="http://www.w3.org/1999/xlink">
<g><path style="opacity:0.99" fill="#a31d32" d="M -0.5,-0.5 C 10.5,-0.5 21.5,-0.5 32.5,-0.5C 28.8777,5.12153 24.8777,10.4549 20.5,15.5C 19.0937,15.9731 18.427,16.9731 18.5,18.5C 17.8301,21.3478 16.1634,22.8478 13.5,23C 9.18277,15.5124 4.5161,8.34571 -0.5,1.5C -0.5,0.833333 -0.5,0.166667 -0.5,-0.5 Z"/></g>
<g><path style="opacity:0.996" fill="#a31e32" d="M 43.5,-0.5 C 52.5,-0.5 61.5,-0.5 70.5,-0.5C 70.1667,0.166667 69.8333,0.833333 69.5,1.5C 68.2347,4.52485 66.568,7.35818 64.5,10C 60.1667,10.3333 55.8333,10.6667 51.5,11C 39.9338,29.3163 28.2671,47.4829 16.5,65.5C 15.8826,65.6107 15.3826,65.944 15,66.5C 14.7216,65.5842 14.2216,64.9175 13.5,64.5C 13.3339,58.8236 13.5006,53.1569 14,47.5C 20.3631,36.9934 26.8631,26.6601 33.5,16.5C 34.9063,16.0269 35.573,15.0269 35.5,13.5C 37.0002,9.82704 39.0002,6.4937 41.5,3.5C 42.9063,3.02694 43.573,2.02694 43.5,0.5C 43.5,0.166667 43.5,-0.166667 43.5,-0.5 Z"/></g>
<g><path style="opacity:0.997" fill="#a21a30" d="M 80.5,-0.5 C 86.5,-0.5 92.5,-0.5 98.5,-0.5C 98.6663,6.17499 98.4996,12.8417 98,19.5C 95.3318,23.3341 92.1652,26.6675 88.5,29.5C 87.8333,29.5 87.5,29.8333 87.5,30.5C 78.9832,30.8261 70.6499,30.4927 62.5,29.5C 63.7589,25.9754 65.7589,22.9754 68.5,20.5C 74.8333,20.5 81.1667,20.5 87.5,20.5C 87.8128,16.9581 87.4794,13.6248 86.5,10.5C 82.4454,10.8242 78.4454,10.4909 74.5,9.5C 76.9249,6.41139 78.9249,3.07805 80.5,-0.5 Z"/></g>
<g><path style="opacity:0.381" fill="#c05f64" d="M 108.5,-0.5 C 108.833,-0.5 109.167,-0.5 109.5,-0.5C 109.172,10.0135 109.506,20.3468 110.5,30.5C 110.157,32.2252 109.157,32.7252 107.5,32C 108.487,21.2483 108.82,10.415 108.5,-0.5 Z"/></g>
<g><path style="opacity:0.988" fill="#a0142e" d="M 109.5,-0.5 C 123.5,-0.5 137.5,-0.5 151.5,-0.5C 150.331,2.51132 148.664,5.17799 146.5,7.5C 144.588,8.79919 142.588,9.79919 140.5,10.5C 134.824,10.3339 129.157,10.5006 123.5,11C 119.515,17.8235 115.182,24.3235 110.5,30.5C 109.506,20.3468 109.172,10.0135 109.5,-0.5 Z"/></g>
<g><path style="opacity:0.953" fill="#9e072a" d="M 162.5,-0.5 C 171.5,-0.5 180.5,-0.5 189.5,-0.5C 189.951,14.2522 189.285,28.9188 187.5,43.5C 187.076,46.354 186.076,49.0207 184.5,51.5C 170.182,52.4993 155.849,52.8326 141.5,52.5C 141.334,45.1591 141.5,37.8258 142,30.5C 142.383,29.944 142.883,29.6107 143.5,29.5C 144.906,29.0269 145.573,28.0269 145.5,26.5C 146.11,24.5659 147.11,22.8993 148.5,21.5C 158.751,20.525 169.085,20.1917 179.5,20.5C 179.813,16.9581 179.479,13.6248 178.5,10.5C 170.804,10.8308 163.138,10.4975 155.5,9.5C 156.943,6.92346 158.61,4.59012 160.5,2.5C 161.906,2.02694 162.573,1.02694 162.5,-0.5 Z M 153.5,31.5 C 161.833,31.5 170.167,31.5 178.5,31.5C 178.5,34.5 178.5,37.5 178.5,40.5C 170.167,40.5 161.833,40.5 153.5,40.5C 153.5,37.5 153.5,34.5 153.5,31.5 Z"/></g>
<g><path style="opacity:0.004" fill="#e3b7b0" d="M 70.5,-0.5 C 70.8333,-0.5 71.1667,-0.5 71.5,-0.5C 71.5,0.833333 70.8333,1.5 69.5,1.5C 69.8333,0.833333 70.1667,0.166667 70.5,-0.5 Z"/></g>
<g><path style="opacity:0.376" fill="#cc7c80" d="M 161.5,-0.5 C 161.833,-0.5 162.167,-0.5 162.5,-0.5C 162.573,1.02694 161.906,2.02694 160.5,2.5C 160.557,1.39105 160.89,0.391047 161.5,-0.5 Z"/></g>
<g><path style="opacity:0.306" fill="#cf8588" d="M 43.5,0.5 C 43.573,2.02694 42.9063,3.02694 41.5,3.5C 41.427,1.97306 42.0937,0.973056 43.5,0.5 Z"/></g>
<g><path style="opacity:0.176" fill="#be5e60" d="M 146.5,7.5 C 146.586,8.4959 146.252,9.32924 145.5,10C 143.866,10.4935 142.199,10.6602 140.5,10.5C 142.588,9.79919 144.588,8.79919 146.5,7.5 Z"/></g>
<g><path style="opacity:0.31" fill="#cd8082" d="M 35.5,13.5 C 35.573,15.0269 34.9063,16.0269 33.5,16.5C 33.427,14.9731 34.0937,13.9731 35.5,13.5 Z"/></g>
<g><path style="opacity:0.082" fill="#cd7e81" d="M 20.5,15.5 C 20.573,17.0269 19.9063,18.0269 18.5,18.5C 18.427,16.9731 19.0937,15.9731 20.5,15.5 Z"/></g>
<g><path style="opacity:0.723" fill="#b54555" d="M 189.5,-0.5 C 189.833,-0.5 190.167,-0.5 190.5,-0.5C 190.5,12.8333 190.5,26.1667 190.5,39.5C 189.5,40.8333 188.5,42.1667 187.5,43.5C 189.285,28.9188 189.951,14.2522 189.5,-0.5 Z"/></g>
<g><path style="opacity:0.216" fill="#c46c6e" d="M 86.5,10.5 C 87.4794,13.6248 87.8128,16.9581 87.5,20.5C 81.1667,20.5 74.8333,20.5 68.5,20.5C 74.31,19.5104 80.31,19.1771 86.5,19.5C 86.5,16.5 86.5,13.5 86.5,10.5 Z"/></g>
<g><path style="opacity:0.216" fill="#c16665" d="M 178.5,10.5 C 179.479,13.6248 179.813,16.9581 179.5,20.5C 169.085,20.1917 158.751,20.525 148.5,21.5C 158.111,19.5257 168.111,18.859 178.5,19.5C 178.5,16.5 178.5,13.5 178.5,10.5 Z"/></g>
<g><path style="opacity:0.396" fill="#c87379" d="M 145.5,26.5 C 145.573,28.0269 144.906,29.0269 143.5,29.5C 143.427,27.9731 144.094,26.9731 145.5,26.5 Z"/></g>
<g><path style="opacity:0.275" fill="#cf838c" d="M 62.5,29.5 C 70.6499,30.4927 78.9832,30.8261 87.5,30.5C 87.5,30.8333 87.5,31.1667 87.5,31.5C 87.5,34.8333 87.5,38.1667 87.5,41.5C 74.1667,41.5 60.8333,41.5 47.5,41.5C 60.3226,40.5045 73.3226,40.1712 86.5,40.5C 86.5,37.5 86.5,34.5 86.5,31.5C 78.1401,31.8312 69.8068,31.4979 61.5,30.5C 61.6236,29.8933 61.9569,29.56 62.5,29.5 Z"/></g>
<g><path style="opacity:0.751" fill="#b23c53" d="M 88.5,29.5 C 91.2869,30.4767 94.2869,30.81 97.5,30.5C 97.5,35.8333 97.5,41.1667 97.5,46.5C 96.5128,41.6946 96.1795,36.6946 96.5,31.5C 93.5,31.5 90.5,31.5 87.5,31.5C 87.5,31.1667 87.5,30.8333 87.5,30.5C 87.5,29.8333 87.8333,29.5 88.5,29.5 Z"/></g>
<g><path style="opacity:0.905" fill="#9d052a" d="M 87.5,31.5 C 90.5,31.5 93.5,31.5 96.5,31.5C 96.1795,36.6946 96.5128,41.6946 97.5,46.5C 97.5,48.5 97.5,50.5 97.5,52.5C 78.5,52.5 59.5,52.5 40.5,52.5C 40.5569,51.391 40.8902,50.391 41.5,49.5C 43.016,46.4669 45.016,43.8003 47.5,41.5C 60.8333,41.5 74.1667,41.5 87.5,41.5C 87.5,38.1667 87.5,34.8333 87.5,31.5 Z"/></g>
<g><path style="opacity:1" fill="#a1162f" d="M 123.5,51.5 C 119.116,51.8256 114.783,51.4922 110.5,50.5C 113.422,48.6567 114.755,45.99 114.5,42.5C 114.328,41.5084 114.662,40.8417 115.5,40.5C 116.906,40.0269 117.573,39.0269 117.5,37.5C 118.807,34.8864 120.14,32.2198 121.5,29.5C 122.5,28.1667 123.5,28.1667 124.5,29.5C 123.535,36.776 123.201,44.1093 123.5,51.5 Z"/></g>
<g><path style="opacity:0.318" fill="#d1888c" d="M 117.5,37.5 C 117.573,39.0269 116.906,40.0269 115.5,40.5C 115.427,38.9731 116.094,37.9731 117.5,37.5 Z"/></g>
<g><path style="opacity:0.549" fill="#c66c76" d="M 152.5,30.5 C 161.5,30.5 170.5,30.5 179.5,30.5C 179.5,34.1667 179.5,37.8333 179.5,41.5C 170.5,41.5 161.5,41.5 152.5,41.5C 152.5,37.8333 152.5,34.1667 152.5,30.5 Z M 153.5,31.5 C 153.5,34.5 153.5,37.5 153.5,40.5C 161.833,40.5 170.167,40.5 178.5,40.5C 178.5,37.5 178.5,34.5 178.5,31.5C 170.167,31.5 161.833,31.5 153.5,31.5 Z"/></g>
<g><path style="opacity:1" fill="#b54751" d="M 114.5,42.5 C 114.755,45.99 113.422,48.6567 110.5,50.5C 114.783,51.4922 119.116,51.8256 123.5,51.5C 118.652,52.8137 113.652,52.8137 108.5,51.5C 110.275,48.2624 112.275,45.2624 114.5,42.5 Z"/></g>
<g><path style="opacity:0.125" fill="#d7999b" d="M 41.5,49.5 C 40.8902,50.391 40.5569,51.391 40.5,52.5C 39.1148,51.0527 39.4482,50.0527 41.5,49.5 Z"/></g>
<g><path style="opacity:0.29" fill="#c66e70" d="M 13.5,64.5 C 14.2216,64.9175 14.7216,65.5842 15,66.5C 15.3826,65.944 15.8826,65.6107 16.5,65.5C 16.4431,66.609 16.1098,67.609 15.5,68.5C 14.8333,68.5 14.1667,68.5 13.5,68.5C 13.5,67.1667 13.5,65.8333 13.5,64.5 Z"/></g>
</svg>
