<?xml version="1.0" encoding="UTF-8"?>
<!DOCTYPE svg PUBLIC "-//W3C//DTD SVG 1.1//EN" "http://www.w3.org/Graphics/SVG/1.1/DTD/svg11.dtd">
<svg xmlns="http://www.w3.org/2000/svg" version="1.1" width="1330px" height="373px" style="shape-rendering:geometricPrecision; text-rendering:geometricPrecision; image-rendering:optimizeQuality; fill-rule:evenodd; clip-rule:evenodd" xmlns:xlink="http://www.w3.org/1999/xlink">
<g><path style="opacity:1" fill="#33383c" d="M 433.5,245.5 C 414.067,247.469 394.4,248.136 374.5,247.5C 375.543,231.08 377.21,214.413 379.5,197.5C 380.451,196.081 380.784,194.415 380.5,192.5C 357.994,192.169 335.66,192.503 313.5,193.5C 311.997,211.697 309.997,229.697 307.5,247.5C 288.167,247.5 268.833,247.5 249.5,247.5C 249.5,245.5 249.5,243.5 249.5,241.5C 254.134,193.795 259.134,146.128 264.5,98.5C 284.503,98.3334 304.503,98.5 324.5,99C 322.321,115.771 320.321,132.604 318.5,149.5C 340.5,149.5 362.5,149.5 384.5,149.5C 386.533,132.536 388.2,115.536 389.5,98.5C 409.5,98.5 429.5,98.5 449.5,98.5C 444.364,147.529 439.031,196.529 433.5,245.5 Z"/></g>
<g><path style="opacity:1" fill="#32373b" d="M 653.5,245.5 C 634.529,247.488 615.196,248.154 595.5,247.5C 592.633,239.567 589.967,231.567 587.5,223.5C 566.489,223.167 545.489,223.5 524.5,224.5C 520.408,232.356 516.075,240.023 511.5,247.5C 491.804,248.154 472.471,247.488 453.5,245.5C 464.911,224.906 476.578,204.406 488.5,184C 516.833,183.667 545.167,183.333 573.5,183C 569.001,171.669 565.001,160.169 561.5,148.5C 544.5,147.833 527.5,147.167 510.5,146.5C 518.844,130.315 527.844,114.482 537.5,99C 559.508,98.1669 581.508,98.3336 603.5,99.5C 620.77,147.978 637.437,196.645 653.5,245.5 Z"/></g>
<g><path style="opacity:1" fill="#33383c" d="M 896.5,246.5 C 876.909,247.487 857.243,247.821 837.5,247.5C 839.467,224.46 841.801,201.46 844.5,178.5C 845.622,176.712 845.789,174.712 845,172.5C 844.283,173.044 843.783,173.711 843.5,174.5C 824.303,197.549 804.637,220.216 784.5,242.5C 770.238,219.639 756.238,196.639 742.5,173.5C 741.452,171.067 740.786,171.067 740.5,173.5C 738.476,198.377 735.81,223.044 732.5,247.5C 713.167,247.5 693.833,247.5 674.5,247.5C 674.5,245.5 674.5,243.5 674.5,241.5C 679.28,193.81 684.28,146.144 689.5,98.5C 709.511,98.167 729.511,98.5004 749.5,99.5C 763.865,122.702 778.032,146.035 792,169.5C 811.98,146.019 832.146,122.686 852.5,99.5C 872.489,98.5004 892.489,98.167 912.5,98.5C 907.532,147.88 902.198,197.214 896.5,246.5 Z"/></g>
<g><path style="opacity:1" fill="#33383c" d="M 995.5,169.5 C 994.207,171.364 994.207,173.364 995.5,175.5C 996.107,175.376 996.44,175.043 996.5,174.5C 1020.48,149.521 1044.48,124.521 1068.5,99.5C 1088.49,98.5004 1108.49,98.167 1128.5,98.5C 1123.53,148.546 1118.2,198.546 1112.5,248.5C 1092.83,248.5 1073.17,248.5 1053.5,248.5C 1056,222.793 1058.5,197.127 1061,171.5C 1036.27,196.729 1011.77,222.062 987.5,247.5C 967.833,247.5 948.167,247.5 928.5,247.5C 928.5,246.5 928.5,245.5 928.5,244.5C 933.368,195.82 938.368,147.154 943.5,98.5C 963.5,98.5 983.5,98.5 1003.5,98.5C 1000.98,122.198 998.311,145.864 995.5,169.5 Z"/></g>
<g><path style="opacity:0.196" fill="#d8d9d9" d="M 510.5,146.5 C 527.5,147.167 544.5,147.833 561.5,148.5C 544.154,148.833 526.821,148.5 509.5,147.5C 509.624,146.893 509.957,146.56 510.5,146.5 Z"/></g>
<g><path style="opacity:1" fill="#f8b4b5" d="M 1251.5,156.5 C 1251.5,154.5 1251.5,152.5 1251.5,150.5C 1219.28,149.852 1187.28,150.519 1155.5,152.5C 1155.5,151.5 1155.5,150.5 1155.5,149.5C 1187.83,149.5 1220.17,149.5 1252.5,149.5C 1252.8,152.059 1252.47,154.393 1251.5,156.5 Z"/></g>
<g><path style="opacity:1" fill="#f04447" d="M 221.5,190.5 C 189.723,192.481 157.723,193.148 125.5,192.5C 125.5,190.5 125.5,188.5 125.5,186.5C 126.07,174.207 127.403,162.04 129.5,150C 161.498,149.5 193.498,149.333 225.5,149.5C 224.752,163.232 223.419,176.899 221.5,190.5 Z"/></g>
<g><path style="opacity:1" fill="#f04447" d="M 1251.5,156.5 C 1250.93,168.793 1249.6,180.96 1247.5,193C 1215.5,193.5 1183.5,193.667 1151.5,193.5C 1152.25,179.768 1153.58,166.101 1155.5,152.5C 1187.28,150.519 1219.28,149.852 1251.5,150.5C 1251.5,152.5 1251.5,154.5 1251.5,156.5 Z"/></g>
<g><path style="opacity:0.196" fill="#d0d1d2" d="M 742.5,173.5 C 741.833,173.5 741.167,173.5 740.5,173.5C 740.786,171.067 741.452,171.067 742.5,173.5 Z"/></g>
<g><path style="opacity:0.732" fill="#c9cacb" d="M 844.5,178.5 C 844.768,176.901 844.434,175.568 843.5,174.5C 843.783,173.711 844.283,173.044 845,172.5C 845.789,174.712 845.622,176.712 844.5,178.5 Z"/></g>
<g><path style="opacity:1" fill="#a2a4a5" d="M 995.5,169.5 C 995.216,171.415 995.549,173.081 996.5,174.5C 996.44,175.043 996.107,175.376 995.5,175.5C 994.207,173.364 994.207,171.364 995.5,169.5 Z"/></g>
<g><path style="opacity:1" fill="#f8b4b4" d="M 125.5,186.5 C 125.5,188.5 125.5,190.5 125.5,192.5C 157.723,193.148 189.723,192.481 221.5,190.5C 221.5,191.5 221.5,192.5 221.5,193.5C 189.167,193.5 156.833,193.5 124.5,193.5C 124.198,190.941 124.532,188.607 125.5,186.5 Z"/></g>
<g><path style="opacity:1" fill="#afb0b1" d="M 313.5,193.5 C 335.66,192.503 357.994,192.169 380.5,192.5C 380.784,194.415 380.451,196.081 379.5,197.5C 379.5,196.167 379.5,194.833 379.5,193.5C 357.5,193.5 335.5,193.5 313.5,193.5 Z"/></g>
<g><path style="opacity:1" fill="#828485" d="M 249.5,241.5 C 249.5,243.5 249.5,245.5 249.5,247.5C 268.833,247.5 288.167,247.5 307.5,247.5C 288.007,248.497 268.34,248.83 248.5,248.5C 248.198,245.941 248.532,243.607 249.5,241.5 Z"/></g>
<g><path style="opacity:1" fill="#7f8182" d="M 433.5,245.5 C 433.5,246.5 433.5,247.5 433.5,248.5C 413.66,248.83 393.993,248.497 374.5,247.5C 394.4,248.136 414.067,247.469 433.5,245.5 Z"/></g>
<g><path style="opacity:1" fill="#808283" d="M 453.5,245.5 C 472.471,247.488 491.804,248.154 511.5,247.5C 491.671,248.662 471.671,248.829 451.5,248C 452.066,247.005 452.733,246.172 453.5,245.5 Z"/></g>
<g><path style="opacity:1" fill="#7f8182" d="M 653.5,245.5 C 654.404,246.209 654.737,247.209 654.5,248.5C 634.66,248.83 614.993,248.497 595.5,247.5C 615.196,248.154 634.529,247.488 653.5,245.5 Z"/></g>
<g><path style="opacity:1" fill="#838586" d="M 674.5,241.5 C 674.5,243.5 674.5,245.5 674.5,247.5C 693.833,247.5 713.167,247.5 732.5,247.5C 713.007,248.497 693.34,248.83 673.5,248.5C 673.198,245.941 673.532,243.607 674.5,241.5 Z"/></g>
<g><path style="opacity:1" fill="#7f8182" d="M 896.5,246.5 C 887.023,247.832 877.19,248.499 867,248.5C 856.994,248.5 847.161,248.166 837.5,247.5C 857.243,247.821 876.909,247.487 896.5,246.5 Z"/></g>
<g><path style="opacity:1" fill="#838586" d="M 928.5,244.5 C 928.5,245.5 928.5,246.5 928.5,247.5C 948.167,247.5 967.833,247.5 987.5,247.5C 967.674,248.497 947.674,248.83 927.5,248.5C 927.232,246.901 927.566,245.568 928.5,244.5 Z"/></g>
</svg>
