<?xml version="1.0" encoding="UTF-8"?>
<!DOCTYPE svg PUBLIC "-//W3C//DTD SVG 1.1//EN" "http://www.w3.org/Graphics/SVG/1.1/DTD/svg11.dtd">
<svg xmlns="http://www.w3.org/2000/svg" version="1.1" width="7813px" height="1803px" style="shape-rendering:geometricPrecision; text-rendering:geometricPrecision; image-rendering:optimizeQuality; fill-rule:evenodd; clip-rule:evenodd" xmlns:xlink="http://www.w3.org/1999/xlink">
<g><path style="opacity:0.999" fill="#0080c8" d="M 873.5,26.5 C 873.167,412.903 873.501,799.236 874.5,1185.5C 874.5,1382.17 874.5,1578.83 874.5,1775.5C 665.648,1773.18 480.315,1707.01 318.5,1577C 166.72,1449.72 67.5535,1289.22 21,1095.5C 9.30893,1042.96 2.14226,989.959 -0.5,936.5C -0.5,912.833 -0.5,889.167 -0.5,865.5C 15.0717,605.859 121.405,392.359 318.5,225C 479.868,94.8066 664.868,28.6399 873.5,26.5 Z"/></g>
<g><path style="opacity:0.999" fill="#007fc7" d="M 1747.5,1775.5 C 1747.5,1389.17 1747.5,1002.83 1747.5,616.5C 1747.5,419.833 1747.5,223.167 1747.5,26.5C 1979.13,29.3857 2179.46,108.886 2348.5,265C 2514.02,424.984 2604.85,620.484 2621,851.5C 2631.07,1101.02 2552.41,1317.35 2385,1500.5C 2232.64,1658.92 2046.48,1749.42 1826.5,1772C 1800.21,1774.19 1773.88,1775.36 1747.5,1775.5 Z"/></g>
<g><path style="opacity:0.999" fill="#00589c" d="M 873.5,26.5 C 1164.83,223.167 1456.17,419.833 1747.5,616.5C 1747.5,1002.83 1747.5,1389.17 1747.5,1775.5C 1456.5,1578.83 1165.5,1382.17 874.5,1185.5C 873.501,799.236 873.167,412.903 873.5,26.5 Z"/></g>
<g><path style="opacity:0.996" fill="#626261" d="M 3941.5,599.5 C 3990.86,599.048 4040.19,599.548 4089.5,601C 4155.55,608.829 4207.05,639.996 4244,694.5C 4262.48,725.619 4273.15,759.286 4276,795.5C 4278,865.5 4278,935.5 4276,1005.5C 4268.16,1083.77 4229.99,1141.61 4161.5,1179C 4135.29,1191.8 4107.62,1199.47 4078.5,1202C 4032.83,1202.67 3987.17,1202.67 3941.5,1202C 3867.36,1194.54 3810.86,1159.38 3772,1096.5C 3754.87,1064.66 3745.54,1030.66 3744,994.5C 3743.33,932.5 3743.33,870.5 3744,808.5C 3747.71,727.513 3784.21,666.68 3853.5,626C 3881.33,611.774 3910.67,602.941 3941.5,599.5 Z M 4001.5,736.5 C 4034.86,732.874 4060.7,744.874 4079,772.5C 4082.86,780.095 4085.53,788.095 4087,796.5C 4087.98,868.203 4087.65,939.869 4086,1011.5C 4077.22,1040.94 4057.72,1058.44 4027.5,1064C 4002.77,1068.52 3980.1,1063.85 3959.5,1050C 3943.98,1037.12 3935.14,1020.62 3933,1000.5C 3932.33,934.167 3932.33,867.833 3933,801.5C 3939.32,762.281 3962.16,740.614 4001.5,736.5 Z"/></g>
<g><path style="opacity:0.995" fill="#616160" d="M 5944.5,599.5 C 5987.83,599.333 6031.17,599.5 6074.5,600C 6136.5,604.579 6187.33,630.412 6227,677.5C 6253.08,712.386 6267.75,751.719 6271,795.5C 6271.66,808.83 6272.16,822.163 6272.5,835.5C 6209.17,835.5 6145.83,835.5 6082.5,835.5C 6082.67,822.163 6082.5,808.829 6082,795.5C 6072.69,757.693 6048.52,738.026 6009.5,736.5C 5975.11,737.417 5951.61,753.75 5939,785.5C 5937.52,790.406 5936.52,795.406 5936,800.5C 5935.33,867.167 5935.33,933.833 5936,1000.5C 5938.88,1025.78 5951.38,1044.62 5973.5,1057C 5989.44,1064.12 6006.11,1066.46 6023.5,1064C 6055.25,1057.25 6074.75,1038.09 6082,1006.5C 6082.5,995.839 6082.67,985.172 6082.5,974.5C 6145.83,974.5 6209.17,974.5 6272.5,974.5C 6274.14,1035.36 6255.31,1088.69 6216,1134.5C 6176.93,1174.28 6129.43,1196.78 6073.5,1202C 6030.5,1202.67 5987.5,1202.67 5944.5,1202C 5860.89,1193.5 5801.05,1151.66 5765,1076.5C 5754.43,1051.22 5748.43,1024.89 5747,997.5C 5746.33,933.167 5746.33,868.833 5747,804.5C 5753.34,715.583 5796.84,652.75 5877.5,616C 5899.23,607.485 5921.56,601.985 5944.5,599.5 Z"/></g>
<g><path style="opacity:0.994" fill="#616160" d="M 3146.5,608.5 C 3201.5,608.333 3256.5,608.5 3311.5,609C 3375.37,705.243 3438.87,801.743 3502,898.5C 3502.5,801.834 3502.67,705.167 3502.5,608.5C 3562.17,608.5 3621.83,608.5 3681.5,608.5C 3681.5,802.833 3681.5,997.167 3681.5,1191.5C 3626.17,1191.67 3570.83,1191.5 3515.5,1191C 3452,1093.5 3388.5,996 3325,898.5C 3324.5,996.166 3324.33,1093.83 3324.5,1191.5C 3265.17,1191.5 3205.83,1191.5 3146.5,1191.5C 3146.5,997.167 3146.5,802.833 3146.5,608.5 Z"/></g>
<g><path style="opacity:0.995" fill="#616160" d="M 4339.5,608.5 C 4436.83,608.333 4534.17,608.5 4631.5,609C 4679.98,610.94 4724.32,625.274 4764.5,652C 4804.82,682.054 4827.99,722.221 4834,772.5C 4836.26,799.541 4835.93,826.541 4833,853.5C 4823.26,908.55 4794.1,949.717 4745.5,977C 4744.98,977.561 4744.64,978.228 4744.5,979C 4780.59,1049.68 4816.26,1120.51 4851.5,1191.5C 4786.5,1191.83 4721.5,1191.5 4656.5,1190.5C 4631.1,1133.79 4605.6,1077.12 4580,1020.5C 4561.91,1019.51 4543.74,1019.17 4525.5,1019.5C 4525.5,1076.83 4525.5,1134.17 4525.5,1191.5C 4463.5,1191.5 4401.5,1191.5 4339.5,1191.5C 4339.5,997.167 4339.5,802.833 4339.5,608.5 Z M 4525.5,740.5 C 4551.17,740.333 4576.84,740.5 4602.5,741C 4629.05,748.888 4645.22,766.388 4651,793.5C 4655.78,819.044 4650.78,842.377 4636,863.5C 4626.44,874.033 4614.61,880.533 4600.5,883C 4575.52,884.36 4550.52,884.86 4525.5,884.5C 4525.5,836.5 4525.5,788.5 4525.5,740.5 Z"/></g>
<g><path style="opacity:0.996" fill="#616160" d="M 4887.5,608.5 C 4942.83,608.333 4998.17,608.5 5053.5,609C 5115.38,707.248 5176.88,805.748 5238,904.5C 5238.5,805.834 5238.67,707.167 5238.5,608.5C 5297.17,608.5 5355.83,608.5 5414.5,608.5C 5414.5,802.833 5414.5,997.167 5414.5,1191.5C 5359.16,1191.83 5303.83,1191.5 5248.5,1190.5C 5188,1094.17 5127.5,997.833 5067,901.5C 5066.5,998.166 5066.33,1094.83 5066.5,1191.5C 5006.83,1191.5 4947.17,1191.5 4887.5,1191.5C 4887.5,997.167 4887.5,802.833 4887.5,608.5 Z"/></g>
<g><path style="opacity:0.998" fill="#626260" d="M 5495.5,608.5 C 5558.5,608.5 5621.5,608.5 5684.5,608.5C 5684.5,802.833 5684.5,997.167 5684.5,1191.5C 5621.5,1191.5 5558.5,1191.5 5495.5,1191.5C 5495.5,997.167 5495.5,802.833 5495.5,608.5 Z"/></g>
<g><path style="opacity:0.995" fill="#616160" d="M 6327.5,608.5 C 6390.17,608.5 6452.83,608.5 6515.5,608.5C 6515.5,681.833 6515.5,755.167 6515.5,828.5C 6530.85,828.833 6546.18,828.499 6561.5,827.5C 6594.17,754.833 6626.83,682.167 6659.5,609.5C 6727.5,608.167 6795.5,608.167 6863.5,609.5C 6815.5,705.5 6767.5,801.5 6719.5,897.5C 6772.17,995.167 6824.83,1092.83 6877.5,1190.5C 6805.5,1191.83 6733.5,1191.83 6661.5,1190.5C 6628,1122.17 6594.5,1053.83 6561,985.5C 6545.91,984.509 6530.74,984.176 6515.5,984.5C 6515.5,1053.5 6515.5,1122.5 6515.5,1191.5C 6452.83,1191.5 6390.17,1191.5 6327.5,1191.5C 6327.5,997.167 6327.5,802.833 6327.5,608.5 Z"/></g>
<g><path style="opacity:0.994" fill="#626261" d="M 6907.5,608.5 C 7046.83,608.5 7186.17,608.5 7325.5,608.5C 7325.5,659.5 7325.5,710.5 7325.5,761.5C 7248.83,761.5 7172.17,761.5 7095.5,761.5C 7095.5,784.833 7095.5,808.167 7095.5,831.5C 7165.83,831.5 7236.17,831.5 7306.5,831.5C 7306.5,877.833 7306.5,924.167 7306.5,970.5C 7236.17,970.5 7165.83,970.5 7095.5,970.5C 7095.5,993.167 7095.5,1015.83 7095.5,1038.5C 7177.83,1038.5 7260.17,1038.5 7342.5,1038.5C 7342.5,1089.5 7342.5,1140.5 7342.5,1191.5C 7197.5,1191.5 7052.5,1191.5 6907.5,1191.5C 6907.5,997.167 6907.5,802.833 6907.5,608.5 Z"/></g>
<g><path style="opacity:0.995" fill="#616161" d="M 7812.5,1033.5 C 7812.5,1086.17 7812.5,1138.83 7812.5,1191.5C 7676.17,1191.5 7539.83,1191.5 7403.5,1191.5C 7403.5,997.167 7403.5,802.833 7403.5,608.5C 7466.17,608.5 7528.83,608.5 7591.5,608.5C 7591.5,750.167 7591.5,891.833 7591.5,1033.5C 7665.17,1033.5 7738.83,1033.5 7812.5,1033.5 Z"/></g>
</svg>
