<svg id="Layer_1" data-name="Layer 1" xmlns="http://www.w3.org/2000/svg" xmlns:xlink="http://www.w3.org/1999/xlink" viewBox="0 0 618.19 230.79"><defs><style>.cls-1{fill:#3c3c3b;}.cls-2{fill:#11559b;}.cls-3{fill:url(#Безымянный_градиент_24);}.cls-4{fill:url(#Безымянный_градиент_17);}.cls-5{fill:url(#Безымянный_градиент_17-2);}.cls-6{fill:url(#linear-gradient);}.cls-7{fill:url(#Безымянный_градиент_17-3);}.cls-8{fill:url(#Безымянный_градиент_17-4);}.cls-9{fill:url(#linear-gradient-2);}</style><radialGradient id="Безымянный_градиент_24" cx="-6131.18" cy="741.36" r="326.89" gradientTransform="matrix(0.1, 0, 0, 0.1, 813, 77.59)" gradientUnits="userSpaceOnUse"><stop offset="0" stop-color="#4a96d2"/><stop offset="1" stop-color="#1f2466"/></radialGradient><linearGradient id="Безымянный_градиент_17" x1="1068.74" y1="543.15" x2="1169.61" y2="500.19" gradientTransform="translate(-221.83 -1079.78) rotate(45)" xlink:href="#Безымянный_градиент_24"/><linearGradient id="Безымянный_градиент_17-2" x1="1625.39" y1="167.2" x2="1726.26" y2="124.24" gradientTransform="translate(-476.63 1775.79) rotate(-75)" xlink:href="#Безымянный_градиент_24"/><linearGradient id="linear-gradient" x1="1560.24" y1="770.52" x2="1661.12" y2="727.57" gradientTransform="translate(1998.16 533.5) rotate(165)" xlink:href="#Безымянный_градиент_24"/><linearGradient id="Безымянный_градиент_17-3" x1="109.13" y1="137.84" x2="154.85" y2="67.69" gradientTransform="matrix(1, 0, 0, 1, 0, 0)" xlink:href="#Безымянный_градиент_24"/><linearGradient id="Безымянный_градиент_17-4" x1="195.62" y1="237.88" x2="113.62" y2="246.24" gradientTransform="matrix(1, 0, 0, 1, 0, 0)" xlink:href="#Безымянный_градиент_24"/><linearGradient id="linear-gradient-2" x1="248.42" y1="119.26" x2="265.14" y2="203.66" gradientTransform="matrix(1, 0, 0, 1, 0, 0)" xlink:href="#Безымянный_градиент_24"/></defs><title>АО НПО ЦНИИТМАШ_горизонтальный_рус</title><path class="cls-1" d="M399.8,162h-4.5v-7.8H370.85v-35h4.5V150H391.3v-30.8h4.5V150h4Z" transform="translate(-66.66 -52.23)"/><path class="cls-1" d="M437.5,154.18H433v-16.1H415.3v16.1h-4.5v-35h4.5V134H433v-14.8h4.5Z" transform="translate(-66.66 -52.23)"/><path class="cls-1" d="M478.1,154.18h-4.5V126l-17,28.2h-5.1v-35H456v28.2l17-28.2h5.1Z" transform="translate(-66.66 -52.23)"/><path class="cls-1" d="M518.7,154.18h-4.5V126l-17,28.2h-5.1v-35h4.5v28.2l17-28.2h5.1Z" transform="translate(-66.66 -52.23)"/><path class="cls-1" d="M544.05,154.18h-4.5v-30.8H529.2v-4.2h25.2v4.2H544.05Z" transform="translate(-66.66 -52.23)"/><path class="cls-1" d="M599.1,154.18h-4.5l-2.15-27.35-8.85,27.35h-4.7l-8.8-27.25-2.2,27.25h-4.5l3-35h5.5l9.45,30.1,9.25-30.1h5.5Z" transform="translate(-66.66 -52.23)"/><path class="cls-1" d="M630.5,144.83h-15l-3.4,9.35H607.6l13.35-35h4.5l13.1,35h-4.7Zm-13.5-4.1h12l-5.85-16.45H623Z" transform="translate(-66.66 -52.23)"/><path class="cls-1" d="M684.85,154.18h-36.3v-35h4.5V150h11.4v-30.8H669V150h11.4v-30.8h4.5Z" transform="translate(-66.66 -52.23)"/><rect class="cls-1" x="266.32" y="18.89" width="2.4" height="193.36"/><path class="cls-2" d="M374.46,219.75h-3.61v-28h8.25a17.18,17.18,0,0,1,4.31.5,8.93,8.93,0,0,1,3.26,1.58,7,7,0,0,1,2.08,2.73,9.7,9.7,0,0,1,.72,3.92,8.11,8.11,0,0,1-2.82,6.67c-1.88,1.54-4.5,2.3-7.87,2.3h-4.32Zm0-13.7h4.32a8.17,8.17,0,0,0,5.11-1.36,5,5,0,0,0,1.74-4.17,4.82,4.82,0,0,0-1.74-4.16,8.53,8.53,0,0,0-5.11-1.28h-4.32Z" transform="translate(-66.66 -52.23)"/><path class="cls-2" d="M409.78,220.15a13.24,13.24,0,0,1-5.27-1,11,11,0,0,1-4-2.86,12.71,12.71,0,0,1-2.55-4.54,19.42,19.42,0,0,1-.88-6,18.53,18.53,0,0,1,.92-6,13.25,13.25,0,0,1,2.59-4.52,11.08,11.08,0,0,1,4-2.87,12.87,12.87,0,0,1,5.09-1,13.49,13.49,0,0,1,5.5,1.06,11.15,11.15,0,0,1,4,3,12.91,12.91,0,0,1,2.46,4.56,19.33,19.33,0,0,1,.84,5.83,18.73,18.73,0,0,1-1,6.27,12.76,12.76,0,0,1-2.64,4.5,10.86,10.86,0,0,1-4,2.72A13.51,13.51,0,0,1,409.78,220.15Zm.36-3.37a7.61,7.61,0,0,0,6.23-2.78c1.5-1.86,2.26-4.61,2.26-8.27a17.7,17.7,0,0,0-.62-5,9.48,9.48,0,0,0-1.78-3.44,6.89,6.89,0,0,0-2.83-2,10.26,10.26,0,0,0-3.74-.64,8.64,8.64,0,0,0-3.45.68,7.26,7.26,0,0,0-2.76,2,9.88,9.88,0,0,0-1.84,3.44,15.61,15.61,0,0,0-.68,4.89,16,16,0,0,0,.66,4.84,9.66,9.66,0,0,0,1.86,3.47,7.45,7.45,0,0,0,2.9,2.06A10,10,0,0,0,410.14,216.78Z" transform="translate(-66.66 -52.23)"/><path class="cls-2" d="M451,219a11,11,0,0,1-2.73.87,18,18,0,0,1-3.4.3,16.31,16.31,0,0,1-5.87-1,11.9,11.9,0,0,1-4.38-2.82,12.34,12.34,0,0,1-2.77-4.42,16.7,16.7,0,0,1-1-5.83,19.23,19.23,0,0,1,1-6.33,12.43,12.43,0,0,1,2.77-4.64,11.56,11.56,0,0,1,4.34-2.85,16,16,0,0,1,5.67-1,18.65,18.65,0,0,1,3.9.34,18.14,18.14,0,0,1,2.51.74l-.68,3.17a13.6,13.6,0,0,0-2.69-.68,17.55,17.55,0,0,0-2.68-.2q-5,0-7.63,2.8t-2.62,8.25a13.56,13.56,0,0,0,.74,4.66,9.61,9.61,0,0,0,2.1,3.49,8.85,8.85,0,0,0,3.32,2.16,12.62,12.62,0,0,0,4.45.74,15,15,0,0,0,2.66-.24,8.71,8.71,0,0,0,2.39-.76Z" transform="translate(-66.66 -52.23)"/><path class="cls-2" d="M476.17,212.26h-12l-2.72,7.49h-3.65l10.7-28h3.6l10.49,28h-3.76ZM465.36,209H475l-4.68-13.17h-.16Z" transform="translate(-66.66 -52.23)"/><path class="cls-2" d="M497.32,219.75h-3.6V195.08h-8.29v-3.37h20.18v3.37h-8.29Z" transform="translate(-66.66 -52.23)"/><path class="cls-2" d="M524.31,220.15a13.23,13.23,0,0,1-5.26-1,11.16,11.16,0,0,1-4-2.86,12.7,12.7,0,0,1-2.54-4.54,19.12,19.12,0,0,1-.88-6,18.53,18.53,0,0,1,.92-6,13.23,13.23,0,0,1,2.58-4.52,11.2,11.2,0,0,1,4-2.87,12.83,12.83,0,0,1,5.08-1,13.54,13.54,0,0,1,5.51,1.06,11.24,11.24,0,0,1,4,3,12.91,12.91,0,0,1,2.46,4.56,19.33,19.33,0,0,1,.84,5.83,18.73,18.73,0,0,1-1,6.27,12.63,12.63,0,0,1-2.65,4.5,10.83,10.83,0,0,1-4,2.72A13.56,13.56,0,0,1,524.31,220.15Zm.36-3.37A7.6,7.6,0,0,0,530.9,214c1.51-1.86,2.26-4.61,2.26-8.27a17.34,17.34,0,0,0-.62-5,9.19,9.19,0,0,0-1.78-3.44,6.79,6.79,0,0,0-2.82-2,10.31,10.31,0,0,0-3.75-.64,8.62,8.62,0,0,0-3.44.68,7.26,7.26,0,0,0-2.76,2,10.06,10.06,0,0,0-1.85,3.44,18,18,0,0,0,0,9.73A9.67,9.67,0,0,0,518,214a7.38,7.38,0,0,0,2.9,2.06A10,10,0,0,0,524.67,216.78Z" transform="translate(-66.66 -52.23)"/><path class="cls-2" d="M574,219.75h-3.6l-1.72-21.91-7.09,21.91h-3.77l-7.05-21.83L549,219.75h-3.6l2.4-28h4.41l7.57,24.11,7.41-24.11h4.4Z" transform="translate(-66.66 -52.23)"/><path class="cls-3" d="M200.92,184.07a24.2,24.2,0,1,1-1.71-34.22A24.11,24.11,0,0,1,200.92,184.07Z" transform="translate(-66.66 -52.23)"/><path class="cls-4" d="M189.29,84.92c2,2,3.9,4,5.6,6.06a95.4,95.4,0,0,1,14.27,23.09,75.2,75.2,0,0,0,17.4,1.21c.35,0,.67,0,1,0s.62-.07.94-.09c12-1.08,27.5-5.66,41.7-19.9.49-.49,1-1,1.46-1.52-2.19-2.63-4.46-5.21-6.92-7.68a115.75,115.75,0,0,0-151-10.82C149.35,58,174,69.87,189.29,84.92Z" transform="translate(-66.66 -52.23)"/><path class="cls-5" d="M107.36,202.45c.71-2.75,1.55-5.39,2.45-7.88a95.06,95.06,0,0,1,12.87-23.9A74.44,74.44,0,0,0,115,155c-.19-.3-.35-.58-.56-.88s-.36-.5-.54-.77c-6.92-9.81-18.66-21-38.09-26.16-.67-.18-1.36-.34-2-.5-1.17,3.21-2.28,6.47-3.19,9.83a115.77,115.77,0,0,0,66.12,136.17C104,250.51,102,223.23,107.36,202.45Z" transform="translate(-66.66 -52.23)"/><path class="cls-6" d="M250.38,214.77c-2.74.76-5.44,1.35-8,1.81a95.07,95.07,0,0,1-27.14.81,74.84,74.84,0,0,0-9.74,14.47c-.15.31-.32.6-.48.92s-.25.57-.39.86c-5.05,10.9-8.84,26.65-3.61,46.06.17.67.39,1.35.59,2,3.37-.59,6.74-1.26,10.11-2.16a115.75,115.75,0,0,0,84.86-125.35C293.69,193.64,271.07,209,250.38,214.77Z" transform="translate(-66.66 -52.23)"/><path class="cls-7" d="M113.78,75.22S88.67,90.94,75.55,122.5a69.18,69.18,0,0,1,51.51,46.58c3.2-2,13-9.77,19.57-31.09,8-25.78,23.07-44.79,42.66-53.07C189.29,84.92,164.48,49.55,113.78,75.22Z" transform="translate(-66.66 -52.23)"/><path class="cls-8" d="M193.34,260.79c0-13.07,3.62-30.36,18.13-46.66l.16-.25c-2.36-2.53-10.66-8.76-32-3.9-26.29,6-55.31,5.3-72.28-7.53,0,0-18.22,39.17,29.35,70.24,0,0,26.14,13.87,60,9.48A66.08,66.08,0,0,1,193.34,260.79Z" transform="translate(-66.66 -52.23)"/><path class="cls-9" d="M274.72,97.49a68.33,68.33,0,0,1-51.19,23.19,74.8,74.8,0,0,1-15.21-1.59l-.25-.06c-1,3.59-1.79,13.76,12.7,29.37,18.33,19.78,32.24,45.26,29.61,66.37,0,0,43.05-3.81,46.16-60.55C296.54,154.22,295.48,124.63,274.72,97.49Z" transform="translate(-66.66 -52.23)"/></svg>