<svg width="22" height="23" viewBox="0 0 22 23" fill="none" xmlns="http://www.w3.org/2000/svg">
<path d="M9.243 15.7414L5 11.4974L6.414 10.0834L9.243 12.9114L14.899 7.25439L16.314 8.66939L9.243 15.7414Z" fill="#C31625"/>
<path fill-rule="evenodd" clip-rule="evenodd" d="M0 11.4272C0 5.35225 4.925 0.427246 11 0.427246C17.075 0.427246 22 5.35225 22 11.4272C22 17.5022 17.075 22.4272 11 22.4272C4.925 22.4272 0 17.5022 0 11.4272ZM11 20.4272C9.8181 20.4272 8.64778 20.1945 7.55585 19.7422C6.46392 19.2899 5.47177 18.6269 4.63604 17.7912C3.80031 16.9555 3.13738 15.9633 2.68508 14.8714C2.23279 13.7795 2 12.6091 2 11.4272C2 10.2453 2.23279 9.07503 2.68508 7.9831C3.13738 6.89116 3.80031 5.89901 4.63604 5.06328C5.47177 4.22756 6.46392 3.56462 7.55585 3.11233C8.64778 2.66004 9.8181 2.42725 11 2.42725C13.3869 2.42725 15.6761 3.37546 17.364 5.06328C19.0518 6.75111 20 9.0403 20 11.4272C20 13.8142 19.0518 16.1034 17.364 17.7912C15.6761 19.479 13.3869 20.4272 11 20.4272Z" fill="#C31625"/>
</svg>
