<svg width="52" height="53" viewBox="0 0 52 53" fill="none" xmlns="http://www.w3.org/2000/svg">
<rect x="1" y="1.42725" width="50" height="50" rx="25" stroke="black" stroke-width="2"/>
<path d="M21.7197 30.8896L23.4806 30.3816L34.0829 19.6522C34.1666 19.5665 34.2131 19.4514 34.2126 19.3316C34.212 19.2119 34.1644 19.0972 34.0799 19.0123L33.445 18.3703C33.4039 18.3281 33.3549 18.2946 33.3008 18.2716C33.2466 18.2486 33.1885 18.2366 33.1296 18.2363C33.0708 18.236 33.0125 18.2474 32.9581 18.2699C32.9038 18.2924 32.8544 18.3255 32.813 18.3673L22.2386 29.0687L21.7197 30.8896ZM34.7019 17.0984L35.3369 17.7413C36.2128 18.6283 36.2208 20.0592 35.3529 20.9372L24.4275 31.9945L20.6637 33.0784C20.5499 33.1104 20.431 33.1197 20.3136 33.1057C20.1963 33.0917 20.0828 33.0547 19.9797 32.9969C19.8767 32.939 19.786 32.8614 19.7129 32.7685C19.6398 32.6756 19.5858 32.5693 19.5538 32.4555C19.5048 32.2905 19.5041 32.1149 19.5518 31.9495L20.6467 28.1097L31.5431 17.0814C31.7503 16.8727 31.9969 16.7075 32.2687 16.5952C32.5404 16.4829 32.8318 16.4258 33.1259 16.4273C33.4199 16.4288 33.7107 16.4888 33.9813 16.6038C34.2519 16.7189 34.4968 16.8877 34.7019 17.0984ZM23.1836 18.2513C23.6796 18.2513 24.0815 18.6583 24.0815 19.1603C24.0823 19.2789 24.0597 19.3966 24.015 19.5065C23.9703 19.6164 23.9044 19.7164 23.821 19.8009C23.7376 19.8853 23.6383 19.9524 23.529 19.9985C23.4196 20.0445 23.3022 20.0685 23.1836 20.0692H19.5918C18.5998 20.0692 17.7959 20.8832 17.7959 21.8861V32.7915C17.7959 33.7954 18.5998 34.6094 19.5918 34.6094H30.3672C31.3591 34.6094 32.1641 33.7954 32.1641 32.7915V29.1567C32.1641 28.6547 32.566 28.2477 33.062 28.2477C33.558 28.2477 33.9599 28.6547 33.9599 29.1577V32.7915C33.9599 34.7993 32.351 36.4272 30.3672 36.4272H19.5918C17.6079 36.4272 16 34.7993 16 32.7915V21.8861C16 19.8792 17.6079 18.2513 19.5918 18.2513H23.1836Z" fill="black"/>
</svg>
