<svg width="80" height="70" viewBox="0 0 80 70" fill="none" xmlns="http://www.w3.org/2000/svg">
<path d="M11.9575 7.2157V59.4101C11.823 56.5851 9.64371 54.1637 6.92637 54.1637C4.20904 54.1637 2.02979 56.3161 1.76074 59.141C1.89526 63.9838 5.29866 67.8849 10.1818 67.8849H78.1152V7.35022C70.9183 7.2157 18.8853 7.2157 11.9575 7.2157Z" fill="white" fill-opacity="0.2"/>
<path d="M6.79258 54.0292C4.07525 54.0292 1.896 56.1816 1.62695 59.0065V7.48475C1.62695 6.00501 2.16504 4.65979 3.12014 3.71814C4.07525 2.77649 5.29939 2.10388 6.65806 2.10388C9.50992 2.10388 11.6892 4.25623 11.6892 7.2157V59.4101C11.6892 56.5851 9.50992 54.0292 6.79258 54.0292Z" fill="white"/>
<path d="M61.1403 13.9418V30.757L49.3159 20.6679L42.5225 25.7797L42.119 26.0487L39.1326 22.4166L28.9358 32.5058H25.5459V13.9418H61.1403Z" fill="white"/>
<path d="M61.1395 30.757V32.5057H47.5528L42.1182 26.0487L42.5217 25.7797L49.3151 20.6678L61.1395 30.757Z" fill="#C31625"/>
<path d="M42.1187 26.0488L47.5533 32.5059H28.9355L39.1323 22.4167L42.1187 26.0488Z" fill="#C31625"/>
<path d="M73.0853 29.1428H69.6953V32.5059H73.0853V29.1428Z" fill="#414140"/>
<path d="M73.0853 22.4167H69.6953V25.7798H73.0853V22.4167Z" fill="#414140"/>
<path d="M69.6819 32.5059H66.292V35.8689H69.6819V32.5059Z" fill="#414140"/>
<path d="M69.6819 25.7798H66.292V29.1428H69.6819V25.7798Z" fill="#414140"/>
<path d="M1.76223 60.7554C1.67255 60.7554 1.67255 60.7554 1.76223 60.7554C0.80713 60.7554 0 59.9482 0 59.0066V58.8721C0 57.9304 0.672608 57.1233 1.62771 57.1233C2.58281 57.1233 3.38994 57.7959 3.38994 58.7376V59.0066C3.25542 60.0828 2.56936 60.7554 1.76223 60.7554Z" fill="#414140"/>
<path d="M1.76223 60.6208C0.80713 60.6208 0 59.8137 0 58.8721V7.35029C0 5.46698 0.672608 3.7182 2.03128 2.37299C3.25542 1.02777 5.01766 0.355164 6.92786 0.355164C10.7348 0.355164 13.7212 3.31464 13.7212 7.21576C13.7212 8.15742 12.9006 8.96455 11.959 8.96455C11.0173 8.96455 10.1967 8.15742 10.1967 7.21576C10.1967 5.19794 8.70355 3.7182 6.80679 3.7182C5.85169 3.7182 5.04456 4.12177 4.49302 4.79438C3.82041 5.46698 3.4034 6.40864 3.4034 7.48481V59.0066C3.4034 59.9482 2.58281 60.6208 1.77569 60.6208H1.76223Z" fill="#414140"/>
<path d="M78.1167 69.4993H10.1833C4.47957 69.4993 0.134522 65.0601 0 59.1411V59.0066C0.269043 55.3745 3.25542 52.5495 6.79334 52.5495C8.01749 52.5495 9.24163 52.9531 10.1833 53.4912V7.21576C10.1833 6.27411 11.0039 5.46698 11.9455 5.46698H78.2378C79.1929 5.46698 80 6.27411 80 7.21576V67.7505C79.8655 68.6921 79.0449 69.4993 78.1032 69.4993H78.1167ZM3.38994 59.0066C3.52447 63.0422 6.37632 66.0017 10.1833 66.0017H76.4755V8.96454H13.5867V59.4101C13.5867 60.3518 12.9141 61.0244 11.959 61.0244C11.0039 61.0244 10.3313 60.3518 10.1967 59.4101C10.0622 57.3923 8.56903 55.7781 6.80679 55.7781C5.04456 55.7781 3.55137 57.2578 3.41685 59.0066H3.38994Z" fill="#414140"/>
<path d="M61.1399 34.1201H25.5454C24.5903 34.1201 23.7832 33.3129 23.7832 32.3713V13.9418C23.7832 13.0002 24.6038 12.1931 25.5454 12.1931H61.1399C62.095 12.1931 62.9021 13.0002 62.9021 13.9418V32.5058C62.9021 33.3129 62.0815 34.1201 61.1399 34.1201ZM27.1731 30.757H59.5121V15.6906H27.1731V30.757Z" fill="#414140"/>
<path d="M50.9439 40.8462H25.5327C24.5776 40.8462 23.7705 40.0391 23.7705 39.0974C23.7705 38.1558 24.5911 37.3486 25.5327 37.3486H51.0784C52.0335 37.3486 52.8406 38.1558 52.8406 39.0974C52.8406 40.0391 51.8855 40.8462 50.9439 40.8462Z" fill="#414140"/>
<path d="M61.1395 40.8462H57.7495C56.7944 40.8462 55.9873 40.0391 55.9873 39.0974C55.9873 38.1558 56.8079 37.3486 57.7495 37.3486H61.1395C62.0946 37.3486 62.9017 38.1558 62.9017 39.0974C62.9017 40.0391 62.0811 40.8462 61.1395 40.8462Z" fill="#414140"/>
<path d="M50.9439 45.958H25.5327C24.5776 45.958 23.7705 45.1509 23.7705 44.2092C23.7705 43.2676 24.5911 42.4604 25.5327 42.4604H51.0784C52.0335 42.4604 52.8406 43.2676 52.8406 44.2092C52.8406 45.1509 51.8855 45.958 50.9439 45.958Z" fill="#414140"/>
<path d="M61.1395 45.958H57.7495C56.7944 45.958 55.9873 45.1509 55.9873 44.2092C55.9873 43.2676 56.8079 42.4604 57.7495 42.4604H61.1395C62.0946 42.4604 62.9017 43.2676 62.9017 44.2092C62.9017 45.1509 62.0811 45.958 61.1395 45.958Z" fill="#414140"/>
<path d="M50.9439 50.9353H25.5327C24.5776 50.9353 23.7705 50.1282 23.7705 49.1865C23.7705 48.2449 24.5911 47.4377 25.5327 47.4377H51.0784C52.0335 47.4377 52.8406 48.2449 52.8406 49.1865C52.8406 50.1282 51.8855 50.9353 50.9439 50.9353Z" fill="#414140"/>
<path d="M61.1395 50.9353H57.7495C56.7944 50.9353 55.9873 50.1282 55.9873 49.1865C55.9873 48.2449 56.8079 47.4377 57.7495 47.4377H61.1395C62.0946 47.4377 62.9017 48.2449 62.9017 49.1865C62.9017 50.1282 62.0811 50.9353 61.1395 50.9353Z" fill="#414140"/>
<path d="M50.9439 56.0471H25.5327C24.5776 56.0471 23.7705 55.2399 23.7705 54.2983C23.7705 53.3566 24.5911 52.5495 25.5327 52.5495H51.0784C52.0335 52.5495 52.8406 53.3566 52.8406 54.2983C52.8406 55.2399 51.8855 56.0471 50.9439 56.0471Z" fill="#414140"/>
<path d="M61.1395 56.0471H57.7495C56.7944 56.0471 55.9873 55.2399 55.9873 54.2983C55.9873 53.3566 56.8079 52.5495 57.7495 52.5495H61.1395C62.0946 52.5495 62.9017 53.3566 62.9017 54.2983C62.9017 55.2399 62.0811 56.0471 61.1395 56.0471Z" fill="#414140"/>
<path d="M50.9439 61.0244H25.5327C24.5776 61.0244 23.7705 60.2173 23.7705 59.2756C23.7705 58.334 24.5911 57.5269 25.5327 57.5269H51.0784C52.0335 57.5269 52.8406 58.334 52.8406 59.2756C52.7061 60.2173 51.8855 61.0244 50.9439 61.0244Z" fill="#414140"/>
<path d="M61.1395 61.0244H57.7495C56.7944 61.0244 55.9873 60.2173 55.9873 59.2756C55.9873 58.334 56.8079 57.5269 57.7495 57.5269H61.1395C62.0946 57.5269 62.9017 58.334 62.9017 59.2756C62.9017 60.2173 62.0811 61.0244 61.1395 61.0244Z" fill="#414140"/>
</svg>
