<svg width="70" height="71" viewBox="0 0 70 71" fill="none" xmlns="http://www.w3.org/2000/svg">
<path d="M62 8H8V64H62V8Z" fill="white" fill-opacity="0.3"/>
<path d="M39.1394 46.6362L35.7655 49.2041L37.0436 53.3955L33.6582 50.8392L30.2843 53.3955L31.5625 49.2041L28.3037 46.6362H32.38L33.6582 42.5599L34.9479 46.6362H39.1394Z" fill="#414140"/>
<path d="M68.4915 70.8754H1.50847C0.690903 70.8754 0 70.173 0 69.3554V2.49905C0 1.68148 0.702418 0.979065 1.50847 0.979065H68.4915C69.3091 0.979065 70 1.68148 70 2.49905V69.4821C69.8848 70.1845 69.1824 70.8754 68.4915 70.8754ZM2.91331 67.9621H66.983V3.89237H2.91331V67.9621Z" fill="#414140"/>
<path d="M59.6459 64H10.3541C9.62576 64 9 63.3248 9 62.5388V9.46116C9 8.67523 9.62576 8 10.3541 8H59.6459C60.3742 8 61 8.67523 61 9.46116V62.6495C60.8974 63.3248 60.2716 63.9889 59.6459 63.9889V64ZM11.5954 61.1994H58.2918V10.8116H11.6056V61.1994H11.5954Z" fill="#414140"/>
<path d="M48.9269 19.9673H19.8053C18.9878 19.9673 18.2969 19.2649 18.2969 18.4474C18.2969 17.6298 18.9993 16.9274 19.8053 16.9274H48.9269C49.7445 16.9274 50.4469 17.6298 50.4469 18.4474C50.3318 19.2649 49.7445 19.9673 48.9269 19.9673Z" fill="#414140"/>
<path d="M48.9269 28.5807H19.8053C18.9878 28.5807 18.2969 27.8783 18.2969 27.0607C18.2969 26.2431 18.9993 25.5522 19.8053 25.5522H48.9269C49.7445 25.5522 50.4469 26.2547 50.4469 27.0607C50.3318 27.8783 49.7445 28.5807 48.9269 28.5807Z" fill="#414140"/>
<path d="M48.9269 37.3206H19.8053C18.9878 37.3206 18.2969 36.6182 18.2969 35.8006C18.2969 34.983 18.9993 34.2921 19.8053 34.2921H48.9269C49.7445 34.2921 50.4469 34.9945 50.4469 35.8006C50.4469 36.6066 49.7445 37.3206 48.9269 37.3206Z" fill="#414140"/>
<path d="M37.0447 54.9156C36.6992 54.9156 36.4574 54.8004 36.1119 54.5701L33.6708 52.7047L31.2296 54.5701C30.769 54.9156 30.0665 54.9156 29.4793 54.5701C29.0187 54.2247 28.7769 53.5223 28.892 52.935L29.8247 49.7914L27.3835 47.8108C26.9114 47.4653 26.6811 46.7629 26.9114 46.1757C27.1417 45.5884 27.6138 45.2429 28.3047 45.2429H31.4483L32.3811 42.0993C32.6114 41.5121 33.0835 41.0515 33.7744 41.0515C34.3617 41.0515 34.9374 41.5121 35.1677 42.0993L36.1004 45.2429H39.1289C39.7162 45.2429 40.2919 45.5884 40.5222 46.1757C40.7525 46.7629 40.5222 47.4538 40.0501 47.8108L37.4938 49.7914L38.4265 52.935C38.6568 53.5223 38.4265 54.2132 37.8392 54.5701C37.6089 54.8004 37.3786 54.9156 37.0216 54.9156H37.0447ZM32.4962 48.1562C32.9683 48.5017 33.0835 49.089 32.9683 49.5496C33.3138 49.3193 33.9011 49.3193 34.2465 49.5496C34.1314 49.0774 34.3617 48.5017 34.7071 48.1562C34.2465 48.1562 33.7744 47.8108 33.5441 47.4538C33.4289 47.7993 33.072 48.1562 32.4962 48.1562Z" fill="#C31625"/>
</svg>
