<svg width="76" height="76" viewBox="0 0 76 76" fill="none" xmlns="http://www.w3.org/2000/svg">
<path d="M67.7908 1.57648H8.06715C4.8001 1.57648 2.0625 4.15912 2.0625 7.51656V39.2831C2.0625 42.5114 4.67097 45.2232 8.06715 45.2232H67.8037C71.0578 45.2232 73.8084 42.6405 73.8084 39.2831V7.51656C73.8084 4.15912 71.1999 1.57648 67.8037 1.57648H67.7908Z" fill="white"/>
<path d="M67.2736 8.03314H8.58301V38.7666H67.2736V8.03314Z" fill="white" fill-opacity="0.3"/>
<path d="M58.0154 13.9732C58.5319 14.4897 58.8031 15.0063 58.8031 15.6519C58.8031 16.2976 58.5448 16.9433 58.0154 17.3307L47.065 28.3069L39.627 32.31L43.6688 24.9495L54.6192 14.1023C55.536 13.0693 57.0985 13.0693 58.0025 13.9732H58.0154Z" fill="white"/>
<path d="M67.6612 56.4578H8.32497C6.63334 56.4578 5.3291 57.7491 5.3291 59.4278V71.4371C5.3291 72.9867 6.63334 74.4071 8.32497 74.4071H67.6612C69.2237 74.4071 70.6571 73.1158 70.6571 71.4371V59.4278C70.528 57.7491 69.2237 56.4578 67.6612 56.4578Z" fill="white" fill-opacity="0.3"/>
<path d="M47.7102 45.2232C49.531 45.2232 50.9773 46.6437 50.9773 48.4515C50.9773 49.3554 50.5899 50.1302 50.0605 50.7759C49.531 51.4216 48.6271 51.6798 47.7102 51.6798H28.1467C26.3259 51.6798 24.8926 50.2594 24.8926 48.4515C24.8926 47.5476 25.28 46.7728 25.8094 46.1271C26.4551 45.4815 27.2428 45.2232 28.1596 45.2232H47.7232H47.7102Z" fill="white" fill-opacity="0.3"/>
<path d="M65.6975 66.1426H62.4434V69.3709H65.6975V66.1426Z" fill="#414140"/>
<path d="M65.6975 61.3647H62.4434V64.5931H65.6975V61.3647Z" fill="#414140"/>
<path d="M59.177 66.1426H55.9229V69.3709H59.177V66.1426Z" fill="#414140"/>
<path d="M59.177 61.3647H55.9229V64.5931H59.177V61.3647Z" fill="#414140"/>
<path d="M52.6575 66.1426H49.4033V69.3709H52.6575V66.1426Z" fill="#414140"/>
<path d="M52.6575 61.3647H49.4033V64.5931H52.6575V61.3647Z" fill="#414140"/>
<path d="M46.1499 66.1426H42.8828V69.3709H46.1499V66.1426Z" fill="#414140"/>
<path d="M46.1499 61.3647H42.8828V64.5931H46.1499V61.3647Z" fill="#414140"/>
<path d="M39.6139 66.1426H23.3174V69.3709H39.6139V66.1426Z" fill="#414140"/>
<path d="M39.6135 61.3647H36.3594V64.5931H39.6135V61.3647Z" fill="#414140"/>
<path d="M34.6679 16.1685H24.8926V19.3968H34.6679V16.1685Z" fill="#414140"/>
<path d="M33.1067 30.6313C34.0235 30.6313 34.7983 31.4061 34.7983 32.31C34.7983 33.2139 34.0106 33.9887 33.1067 33.9887C32.2027 33.9887 31.415 33.0848 31.415 32.31C31.415 31.4061 32.2027 30.6313 33.1067 30.6313Z" fill="#C31625"/>
<path d="M33.092 61.3647H29.8379V64.5931H33.092V61.3647Z" fill="#414140"/>
<path d="M28.1467 30.6313C29.0635 30.6313 29.8383 31.4061 29.8383 32.31C29.8383 33.2139 29.0506 33.9887 28.1467 33.9887C27.2428 33.9887 26.4551 33.2139 26.4551 32.31C26.5842 31.4061 27.2428 30.6313 28.1467 30.6313Z" fill="#C31625"/>
<path d="M26.5715 61.3647H23.3174V64.5931H26.5715V61.3647Z" fill="#414140"/>
<path d="M24.8798 12.9401H15.1045V16.1684H24.8798V12.9401Z" fill="#414140"/>
<path d="M23.3196 30.6313C24.2364 30.6313 25.0112 31.4061 25.0112 32.31C25.0112 33.2139 24.2235 33.9887 23.3196 33.9887C22.4156 33.9887 21.6279 33.2139 21.6279 32.31C21.6279 31.4061 22.4156 30.6313 23.3196 30.6313Z" fill="#C31625"/>
<path d="M20.051 66.1426H16.7969V69.3709H20.051V66.1426Z" fill="#414140"/>
<path d="M20.051 61.3647H16.7969V64.5931H20.051V61.3647Z" fill="#414140"/>
<path d="M18.3723 30.6313C19.2891 30.6313 20.0639 31.4061 20.0639 32.31C20.0639 33.2139 19.2762 33.9887 18.3723 33.9887C17.4684 33.9887 16.6807 33.2139 16.6807 32.31C16.8098 31.4061 17.4684 30.6313 18.3723 30.6313Z" fill="#C31625"/>
<path d="M13.5305 66.1426H10.2764V69.3709H13.5305V66.1426Z" fill="#414140"/>
<path d="M13.5305 61.3647H10.2764V64.5931H13.5305V61.3647Z" fill="#414140"/>
<path d="M67.7908 46.7728H47.7107C46.7939 46.7728 46.0191 45.998 46.0191 45.0941C46.0191 44.1901 46.8068 43.4153 47.7107 43.4153H67.7908C70.141 43.4153 72.0909 41.4784 72.0909 39.154V7.51659C72.0909 5.19221 70.1281 3.25522 67.7908 3.25522H8.06715C5.71694 3.25522 3.76705 5.19221 3.76705 7.51659V39.2831C3.76705 41.6075 5.71694 43.5445 8.06715 43.5445H28.1472C29.064 43.5445 29.8388 44.3193 29.8388 45.2232C29.8388 46.1271 29.0511 46.9019 28.1472 46.9019H8.06715C3.89618 46.9019 0.5 43.5445 0.5 39.4122V7.51659C0.5 3.38435 3.89618 0.0269165 8.06715 0.0269165H67.9328C72.1038 0.0269165 75.5 3.38435 75.5 7.51659V39.2831C75.5 43.4153 71.9747 46.7728 67.8037 46.7728H67.7908Z" fill="#414140"/>
<path d="M67.2748 40.3162H8.58421C7.66737 40.3162 6.89258 39.5414 6.89258 38.6375V8.03315C6.89258 7.12922 7.68029 6.35443 8.58421 6.35443H67.2748C68.1916 6.35443 68.9664 7.12922 68.9664 8.03315V38.7666C68.9664 39.5414 68.1787 40.3162 67.2748 40.3162ZM10.2888 37.0879H65.7123V9.71187H10.2758V37.0879H10.2888Z" fill="#414140"/>
<path d="M67.6622 75.8275H8.32595C5.84661 75.8275 3.76758 73.7614 3.76758 71.3079V59.2986C3.76758 56.8451 5.85952 54.779 8.32595 54.779H67.6622C70.1415 54.779 72.2335 56.8451 72.2335 59.2986V71.3079C72.2335 73.7614 70.1415 75.8275 67.6622 75.8275ZM8.32595 58.1364C7.53824 58.1364 7.02171 58.653 7.02171 59.4278V71.437C7.02171 72.2118 7.53824 72.7284 8.32595 72.7284H67.6622C68.4499 72.7284 68.9664 72.2118 68.9664 71.437V59.4278C68.9664 58.653 68.4499 58.1364 67.6622 58.1364H8.32595Z" fill="#414140"/>
<path d="M47.7107 53.2293H28.1472C25.4096 53.2293 23.1885 51.0341 23.1885 48.3223C23.1885 47.031 23.705 45.8688 24.6218 44.8357C25.5387 43.9318 26.8429 43.4153 28.1472 43.4153H47.7107C50.4483 43.4153 52.6694 45.6105 52.6694 48.3223C52.6694 49.6136 52.1528 50.7758 51.236 51.8089C50.3192 52.8419 49.0149 53.2293 47.7107 53.2293ZM28.1472 46.7727C27.7598 46.7727 27.3594 46.9019 26.9721 47.2893C26.7138 47.5475 26.4555 47.9349 26.4555 48.4514C26.4555 49.3554 27.2432 50.1302 28.1472 50.1302H47.7107C48.0981 50.1302 48.4984 50.001 48.8858 49.6136C49.1441 49.3554 49.4023 48.968 49.4023 48.4514C49.4023 47.5475 48.6146 46.7727 47.7107 46.7727H28.1472Z" fill="#414140"/>
<path d="M43.2597 30C42.9654 30 42.6614 29.9012 42.3672 29.6046C41.9749 29.2093 41.8769 28.6163 42.1711 28.1221L45.2407 22.4884C45.3388 22.3895 45.3388 22.2907 45.4368 22.1919L53.7532 13.8895C54.3514 13.2965 55.136 13 55.9304 13C56.7248 13 57.5191 13.2965 58.1076 13.8895C58.7058 14.4826 59 15.2733 59 16.064C59 16.8547 58.7058 17.6453 58.1076 18.2384L49.7912 26.5407C49.6931 26.6395 49.595 26.7384 49.4969 26.7384L43.8481 29.8023C43.6519 30 43.4558 30 43.2498 30H43.2597Z" fill="#C31625"/>
</svg>
