<svg width="70" height="84" viewBox="0 0 70 84" fill="none" xmlns="http://www.w3.org/2000/svg">
<path d="M60.0746 25.6865V51.9677C60.0746 67.4785 34.9162 73.2172 34.9162 73.2172C34.9162 73.2172 9.75781 67.3399 9.75781 51.9677V25.6865C9.75781 25.6865 22.8984 29.4568 32.6707 18.1459C33.9321 16.7459 34.9024 15.637 34.9024 15.637C34.9024 15.637 36.1638 16.4825 37.1341 18.1459C43.843 30.7182 60.0469 25.6865 60.0469 25.6865H60.0746ZM48.8885 47.2132C48.8885 39.5201 42.5954 33.2409 34.9162 33.2409C27.237 33.2409 20.944 39.534 20.944 47.2132C20.944 54.8924 27.237 61.1855 34.9162 61.1855C42.5954 61.1855 48.8885 54.8924 48.8885 47.2132Z" fill="white" fill-opacity="0.3"/>
<path d="M68.1839 15.7617V52.3835C68.1839 73.9102 34.9166 82.1439 34.9166 82.1439C34.9166 82.1439 1.80176 73.8964 1.80176 52.3835V15.7617C1.80176 15.7617 19.1285 20.932 32.1305 5.2825C33.8077 3.32804 35.0691 1.78943 35.0691 1.78943C35.0691 1.78943 36.7463 2.9122 38.0077 5.2825C46.6711 22.6092 68.1978 15.7617 68.1978 15.7617H68.1839ZM60.075 52.0924V25.6726C60.075 25.6726 43.8572 30.7043 37.1622 18.132C36.3166 16.4548 34.9305 15.6231 34.9305 15.6231C34.9305 15.6231 33.9463 16.7459 32.6988 18.132C22.9126 29.3181 9.78592 25.6726 9.78592 25.6726V51.9538C9.78592 67.4647 34.9443 73.2033 34.9443 73.2033C34.9443 73.2033 60.1027 67.4785 60.1027 52.1063L60.075 52.0924Z" fill="white" fill-opacity="0.3"/>
<path d="M34.9303 33.2408C42.6095 33.2408 48.9026 39.5339 48.9026 47.2131C48.9026 54.8923 42.6095 61.1854 34.9303 61.1854C27.2511 61.1854 20.958 54.8923 20.958 47.2131C20.958 39.5339 27.2511 33.2408 34.9303 33.2408Z" fill="white"/>
<path d="M34.9307 83.8211H34.5149C34.2376 83.6824 25.8515 81.728 17.4653 76.8349C12.4337 74.0349 8.52475 70.6805 5.58614 67.1874C1.81584 62.7102 0 57.6785 0 52.3696V15.7478C0 15.1933 0.277228 14.625 0.693069 14.3478C1.10891 14.0706 1.67723 13.9319 2.23168 14.0706C2.23168 14.0706 4.89307 14.7636 8.66337 14.7636C14.6653 14.7636 23.4812 12.9478 30.7446 4.14581C32.4218 2.19135 33.6832 0.652737 33.6832 0.652737C34.2376 -0.0403325 35.2218 -0.178945 36.0535 0.375511C36.3307 0.514125 38.1465 1.91412 39.5465 4.56165C43.1782 11.825 49.6099 15.4567 58.6891 15.4567C63.8594 15.4567 67.7683 14.1953 67.7683 14.1953C68.3228 14.0567 68.8911 14.0567 69.3069 14.4725C69.7228 14.7498 70 15.3181 70 15.8725V52.3418C70 57.6508 68.1842 62.6824 64.4139 67.1597C61.4752 70.6527 57.5663 73.8686 52.5347 76.8072C44.1485 81.5616 35.901 83.6547 35.4851 83.7933H34.9307V83.8211ZM3.49307 17.8547V52.3696C3.49307 71.0963 31.1604 79.2052 34.9307 80.3141C36.7465 79.8983 43.7327 77.8052 50.7188 73.7438C61.0594 67.728 66.3683 60.6032 66.3683 52.3557V17.9795C64.5525 18.3953 61.7525 18.825 58.398 18.825C51.2733 18.825 41.6257 16.5933 36.1782 5.96165C35.7624 5.26858 35.3465 4.70026 35.0554 4.28442C34.6396 4.83888 33.9327 5.54581 33.3782 6.37749C25.2693 16.3022 15.3446 18.2567 8.64951 18.2567C6.55644 18.2567 4.74059 17.9795 3.47921 17.8409L3.49307 17.8547Z" fill="#414140"/>
<path d="M34.9313 75.1576H34.5154C34.2382 75.1576 27.9451 73.619 21.5135 70.126C12.7115 65.3715 7.95703 59.0923 7.95703 52.0923V25.6725C7.95703 25.118 8.23426 24.5497 8.6501 24.2725C9.06594 23.9953 9.63426 23.8567 10.1887 23.9953C10.1887 23.9953 12.1432 24.5497 14.9432 24.5497C19.4204 24.5497 25.9768 23.2883 31.4382 16.9953L33.6699 14.4864C34.2244 13.7933 35.2085 13.6547 35.9016 14.2091C36.0402 14.3477 37.5788 15.3319 38.7016 17.425C41.363 22.4567 46.1036 24.9656 52.8125 24.9656C56.5828 24.9656 59.5214 24.1339 59.66 24.1339C60.2145 23.9953 60.7828 24.1339 61.1986 24.4111C61.6145 24.6883 61.8917 25.2567 61.8917 25.8111V52.0784C61.8917 59.0646 57.2758 65.3576 48.3353 70.1121C41.9036 73.6052 35.6244 75.0052 35.3333 75.1438C35.1947 75.0052 35.056 75.1438 34.9174 75.1438L34.9313 75.1576ZM11.5887 27.7794V51.9537C11.5887 64.8171 31.8541 70.6804 34.9313 71.526C38.0085 70.6804 58.2739 64.9557 58.2739 51.9537V27.918C56.8739 28.1953 54.9194 28.4725 52.6877 28.4725C47.2402 28.4725 39.6857 26.7953 35.4996 19.1161C35.361 18.8388 35.0838 18.5616 34.9451 18.2844L33.961 19.4071C27.6679 26.5319 20.1273 28.0705 14.957 28.0705C13.6956 28.0705 12.4481 27.9319 11.6026 27.7933L11.5887 27.7794Z" fill="#414140"/>
<path d="M34.9307 62.8626C26.2673 62.8626 19.1426 55.8765 19.1426 47.0745C19.1426 38.2725 26.2673 31.425 34.9307 31.425C43.5941 31.425 50.7188 38.4111 50.7188 47.2131C50.7188 56.0151 43.5941 62.8626 34.9307 62.8626ZM34.9307 34.9181C28.2218 34.9181 22.6356 40.3656 22.6356 47.2131C22.6356 54.0606 28.0832 59.5082 34.9307 59.5082C41.7782 59.5082 47.2257 54.0606 47.2257 47.2131C47.2257 40.3656 41.6396 34.9181 34.9307 34.9181Z" fill="#414140"/>
<path d="M33.1151 54.1992C32.6992 54.1992 32.2695 54.0606 31.8537 53.6448L28.3606 50.1517C27.6676 49.4586 27.6676 48.3358 28.3606 47.6289C29.0537 46.922 30.1765 46.9358 30.8695 47.6289L32.824 49.5834L38.6874 40.92C39.2418 40.0745 40.3646 39.9358 41.0577 40.5042C41.8893 41.0586 42.0418 42.1814 41.4735 42.8745L34.4874 53.3537C34.2101 53.7695 33.7943 54.0467 33.226 54.1992C33.226 54.0606 33.226 54.1992 33.0874 54.1992H33.1151Z" fill="#C31625"/>
</svg>
