<svg width="70" height="78" viewBox="0 0 70 78" fill="none" xmlns="http://www.w3.org/2000/svg">
<path d="M6.4834 2.15088V21.4453H11.4227V27.8769L20.0023 21.4453H34.9363H37.9204H63.3892V2.15088H6.4834Z" fill="white"/>
<path d="M30.1245 48.5618H21.9434V75.9602H30.1245V48.5618Z" fill="white" fill-opacity="0.301961"/>
<path d="M47.9268 47.7903C47.9268 49.977 49.7403 51.7774 51.9528 51.7774C50.7822 51.7774 49.8689 52.1632 49.0973 52.9354C48.3126 53.7075 47.9268 54.6077 47.9268 55.7651C47.9268 57.9519 49.7403 59.7528 51.9528 59.7528C50.7822 59.7528 49.8689 60.1386 49.0973 60.9102C48.3126 61.6824 47.9268 62.5826 47.9268 63.74C47.9268 65.9267 49.7403 67.7277 51.9528 67.7277C50.7822 67.7277 49.8689 68.1135 49.0973 68.8856C48.3126 69.6572 47.9268 70.558 47.9268 71.7154C47.9268 73.9021 49.7403 75.7031 51.9528 75.7031H29.9961V48.5619C32.7235 48.5619 34.9354 41.6158 34.9354 38.9147V27.5957H37.9195C40.775 27.5957 42.9874 29.9105 42.9874 32.6122V38.7866C42.9874 39.5577 42.9874 40.3298 43.116 40.9734C43.3732 42.5166 44.2866 43.6745 46.2287 43.6745H51.9396C50.7691 43.6745 49.8558 44.0603 49.0842 44.8325C48.3 45.6041 47.9136 46.6334 47.9136 47.7908H47.9268V47.7903Z" fill="white" fill-opacity="0.301961"/>
<path d="M64.1609 67.8568C66.3728 67.8568 68.1869 69.6578 68.1869 71.8445C68.1869 73.0025 67.8011 73.9027 67.0164 74.6743C66.2316 75.4459 65.3314 75.8322 64.1609 75.8322H51.9537C49.7413 75.8322 47.9277 74.0313 47.9277 71.8451C47.9277 70.6871 48.3135 69.7869 49.0983 69.0153C49.883 68.2437 50.7832 67.8574 51.9537 67.8574H64.1609V67.8568Z" fill="white" fill-opacity="0.301961"/>
<path d="M64.1609 51.778C66.3728 51.778 68.1869 53.5789 68.1869 55.7656C68.1869 56.9236 67.8011 57.8238 67.0164 58.5954C66.2316 59.367 65.3314 59.7533 64.1609 59.7533H51.9537C49.7413 59.7533 47.9277 57.9524 47.9277 55.7656C47.9277 54.6077 48.3135 53.7075 49.0983 52.9359C49.883 52.1643 50.7832 51.778 51.9537 51.778H64.1609Z" fill="white" fill-opacity="0.301961"/>
<path d="M64.1609 59.8819C66.3728 59.8819 68.1869 61.6828 68.1869 63.869C68.1869 65.027 67.8011 65.9272 67.0164 66.6988C66.2316 67.4709 65.2028 67.8567 64.1609 67.8567H51.9537C49.7413 67.8567 47.9277 66.0558 47.9277 63.869C47.9277 62.7116 48.3135 61.8109 49.0983 61.0393C49.883 60.2677 50.7832 59.8813 51.9537 59.8813H64.1609V59.8819Z" fill="white" fill-opacity="0.301961"/>
<path d="M64.1609 43.8025C66.3728 43.8025 68.1869 45.6034 68.1869 47.7902C68.1869 48.9481 67.8011 49.8483 67.0164 50.6199C66.2316 51.3915 65.3314 51.7773 64.1609 51.7773H51.9537C49.7413 51.7773 47.9277 49.9769 47.9277 47.7902C47.9277 46.6322 48.3135 45.732 49.0983 44.9604C49.883 44.1888 50.7832 43.8025 51.9537 43.8025H64.1609Z" fill="white" fill-opacity="0.301961"/>
<path d="M51.9541 77.504H29.9974C29.0841 77.504 28.3125 76.7324 28.3125 75.8316C28.3125 74.9314 29.0972 74.1593 29.9974 74.1593H51.9541C52.8674 74.1593 53.639 74.9314 53.639 75.8316C53.639 76.7324 52.8543 77.504 51.9541 77.504Z" fill="#414140"/>
<path d="M64.1606 61.4251C63.2472 61.4251 62.4751 60.6535 62.4751 59.7533C62.4751 58.8526 63.2598 58.081 64.1606 58.081C64.8036 58.081 65.4597 57.8232 65.8455 57.438C66.3599 56.9236 66.4885 56.4086 66.4885 55.7656C66.4885 54.4796 65.4466 53.3217 64.0188 53.3217H51.9403C51.2973 53.3217 50.6412 53.5789 50.2554 53.9647C49.741 54.4791 49.6124 54.994 49.6124 55.637C49.6124 56.923 50.6543 58.081 52.082 58.081C52.9954 58.081 53.767 58.8526 53.767 59.7533C53.767 60.6535 52.9828 61.4251 52.082 61.4251C48.9694 61.4251 46.3711 58.8526 46.3711 55.7656C46.3711 54.2224 47.0141 52.8073 48.056 51.7779C49.098 50.7491 50.5257 50.1061 52.082 50.1061H64.2892C67.4018 50.1061 70.0001 52.6787 70.0001 55.7656C70.0001 57.3094 69.3571 58.724 68.3152 59.7533C67.016 60.7821 65.5878 61.4251 64.1606 61.4251Z" fill="#414140"/>
<path d="M64.1606 69.5292C63.2472 69.5292 62.4751 68.757 62.4751 67.8568C62.4751 66.9561 63.2598 66.1845 64.1606 66.1845C64.8036 66.1845 65.4597 65.9273 65.8455 65.5415C66.3599 65.0271 66.4885 64.5127 66.4885 63.8691C66.4885 62.5831 65.4466 61.4252 64.0188 61.4252H51.9403C51.2973 61.4252 50.6412 61.6829 50.2554 62.0682C49.741 62.5826 49.6124 63.0975 49.6124 63.7405C49.6124 65.0265 50.6543 66.1845 52.082 66.1845C52.9954 66.1845 53.767 66.9561 53.767 67.8568C53.767 68.757 52.9828 69.5292 52.082 69.5292C48.9694 69.5292 46.3711 66.9561 46.3711 63.8691C46.3711 62.3259 47.0141 60.9108 48.056 59.882C49.098 58.8527 50.5257 58.2097 52.082 58.2097H64.2892C67.4018 58.2097 70.0001 60.7822 70.0001 63.8691C70.0001 65.4129 69.3571 66.8275 68.3152 67.8568C67.016 68.8862 65.5878 69.5292 64.1606 69.5292Z" fill="#414140"/>
<path d="M64.1613 77.504H51.9541C48.8414 77.504 46.2432 74.9314 46.2432 71.8445C46.2432 70.3007 46.8862 68.8861 47.9281 67.8568C48.97 66.8274 50.3978 66.1844 51.9541 66.1844H64.1613C67.2739 66.1844 69.8722 68.7575 69.8722 71.8445C69.8722 73.3877 69.2292 74.8028 68.1873 75.8316C67.0167 76.861 65.589 77.504 64.1613 77.504ZM51.9541 69.5291C51.3111 69.5291 50.655 69.7863 50.2692 70.1721C49.7548 70.6865 49.6262 71.2009 49.6262 71.8445C49.6262 73.1305 50.6681 74.2884 52.0958 74.2884H64.3024C64.946 74.2884 65.6016 74.0307 65.9879 73.6449C66.5023 73.1305 66.6309 72.6161 66.6309 71.9731C66.6309 70.6871 65.589 69.5291 64.1613 69.5291H51.9541Z" fill="#414140"/>
<path d="M29.996 77.5039H21.8148C20.9015 77.5039 20.1299 76.7323 20.1299 75.8316C20.1299 74.9314 20.9146 74.1592 21.8148 74.1592H28.3105V50.2342H21.8148C20.9015 50.2342 20.1299 49.4626 20.1299 48.5618C20.1299 47.6616 20.9146 46.89 21.8148 46.89H29.996C30.9093 46.89 31.6809 47.6616 31.6809 48.5618V75.9602C31.6809 76.7323 30.8962 77.5039 29.996 77.5039Z" fill="#414140"/>
<path d="M21.9446 77.5039H1.68548C0.772147 77.5039 0 76.7323 0 75.8316C0 74.9314 0.784734 74.1592 1.68548 74.1592H20.3878V50.2342H9.86608C8.95275 50.2342 8.18115 49.4626 8.18115 48.5618C8.18115 47.6616 8.96588 46.89 9.86608 46.89H22.0732C22.9866 46.89 23.7582 47.6616 23.7582 48.5618V75.9602C23.5004 76.7323 22.8448 77.5039 21.9446 77.5039Z" fill="#414140"/>
<path d="M37.4055 58.2096C36.8911 58.2096 36.363 57.9524 36.1063 57.5666C35.5919 56.795 35.7205 55.8942 36.4921 55.3798C41.2142 52.0236 41.7593 45.3167 41.7078 41.9206C41.6531 41.7427 41.6027 41.5561 41.559 41.3591C41.4304 40.7161 41.3018 39.8159 41.3018 38.9157V32.7413C41.3018 28.88 38.0583 28.9008 36.6213 28.7859V38.9157C36.6213 40.5875 35.9777 43.1606 35.0644 45.3468C33.6372 48.5624 31.9517 50.2347 29.9965 50.2347C29.0831 50.2347 28.3115 49.4631 28.3115 48.5624C28.3115 47.6622 29.0963 46.8906 29.9965 46.8906C30.1251 46.8906 31.0384 46.247 32.0803 43.9322C32.8645 42.0027 33.2509 39.9445 33.2509 38.9157V27.5967C33.2509 26.696 34.0356 25.9244 34.9358 25.9244C36.1162 25.9244 36.6098 25.9244 37.7902 25.9244C41.559 25.9244 44.543 28.8827 44.543 32.6132C44.543 34.2341 44.0188 42.0027 46.0994 42.0027C52.1687 42.0027 58.2097 42.1313 64.2889 42.1313C67.4016 42.1313 69.9998 44.7044 69.9998 47.7913C69.9998 49.3345 69.3568 50.7497 68.3149 51.7785C67.0158 52.8078 65.5875 53.4508 64.1603 53.4508C63.2469 53.4508 62.4748 52.6792 62.4748 51.7785C62.4748 50.8783 63.2595 50.1067 64.1603 50.1067C64.8033 50.1067 65.4594 49.8489 65.8452 49.4637C66.3596 48.9493 66.4882 48.4343 66.4882 47.7913C66.4882 46.5053 65.4463 45.3474 64.0186 45.3474H51.94H51.9395H51.9104C51.2773 45.3556 50.6354 45.6106 50.2556 45.9904C49.7412 46.5048 49.6126 47.0192 49.6126 47.6627C49.6126 48.9487 50.6545 50.1067 52.0823 50.1067C52.9956 50.1067 53.7672 50.8783 53.7672 51.7785C53.7672 52.6792 52.983 53.4508 52.0823 53.4508C48.9696 53.4508 46.3713 50.8783 46.3713 47.7913C46.3713 46.9201 46.576 46.09 46.9416 45.3474H46.2417C45.8679 45.3474 45.4224 45.3123 44.9551 45.198C44.5742 49.5698 43.1356 54.9059 38.564 58.082C38.0496 58.082 37.6506 58.2106 37.3934 58.2106H37.4066L37.4055 58.2096Z" fill="#414140"/>
<path d="M12.9784 77.504C12.0651 77.504 11.293 76.7324 11.293 75.8317V64.5127C11.293 63.6119 12.0777 62.8403 12.9784 62.8403C13.8786 62.8403 14.6634 63.6119 14.6634 64.5127V75.8317C14.6634 76.7324 13.8786 77.504 12.9784 77.504Z" fill="#414140"/>
<path d="M11.2925 29.4207C11.0348 29.4207 10.7781 29.4207 10.5078 29.2921C9.99341 29.0343 9.59448 28.5205 9.59448 27.8769V22.9891H6.48181C5.56848 22.9891 4.79688 22.2175 4.79688 21.3173V2.02287C4.79688 1.12212 5.58161 0.350525 6.48181 0.350525H63.3876C64.3009 0.350525 65.0725 1.12212 65.0725 2.02287V21.3173C65.0725 22.2175 64.2878 22.9891 63.3876 22.9891H20.5156L12.3345 29.1635C12.0773 29.2926 11.6915 29.4212 11.2925 29.4212V29.4207ZM8.17988 19.7735H11.4343C12.3476 19.7735 13.1192 20.5451 13.1192 21.4459V24.6614L19.2291 20.1593C19.4868 19.9016 19.8726 19.7735 20.2716 19.7735H61.973V3.69467H8.17988V19.7735Z" fill="#414140"/>
<path d="M55.6742 7.80488C55.655 7.76606 55.6253 7.73339 55.5885 7.71055C55.5517 7.6877 55.5092 7.6756 55.4659 7.6756C55.4225 7.6756 55.3801 7.6877 55.3433 7.71055C55.3064 7.73339 55.2767 7.76606 55.2575 7.80488L54.3054 9.73366L52.1767 10.043C52.1337 10.0492 52.0934 10.0673 52.0602 10.0953C52.027 10.1233 52.0023 10.16 51.9889 10.2013C51.9755 10.2425 51.9739 10.2868 51.9843 10.3289C51.9947 10.371 52.0167 10.4094 52.0478 10.4397L53.5883 11.941L53.2245 14.0614C53.2172 14.1042 53.222 14.1481 53.2384 14.1883C53.2547 14.2284 53.282 14.2632 53.317 14.2887C53.3521 14.3142 53.3936 14.3294 53.4368 14.3325C53.4801 14.3357 53.5233 14.3267 53.5617 14.3065L55.4659 13.3052L57.37 14.3065C57.4084 14.3267 57.4517 14.3357 57.4949 14.3325C57.5381 14.3294 57.5796 14.3142 57.6147 14.2887C57.6498 14.2632 57.677 14.2284 57.6934 14.1883C57.7097 14.1481 57.7145 14.1042 57.7072 14.0614L57.3435 11.9406L58.8839 10.4397C58.915 10.4094 58.937 10.371 58.9474 10.3289C58.9578 10.2868 58.9562 10.2425 58.9428 10.2013C58.9294 10.16 58.9047 10.1233 58.8716 10.0953C58.8384 10.0673 58.798 10.0492 58.7551 10.043L56.6263 9.73366L55.6742 7.80488Z" fill="#C31625"/>
<path d="M45.558 7.80488C45.5388 7.76606 45.5091 7.73339 45.4723 7.71055C45.4355 7.6877 45.393 7.6756 45.3497 7.6756C45.3063 7.6756 45.2639 7.6877 45.2271 7.71055C45.1902 7.73339 45.1605 7.76606 45.1413 7.80488L44.1892 9.73366L42.0605 10.043C42.0175 10.0492 41.9772 10.0673 41.944 10.0953C41.9108 10.1233 41.8861 10.16 41.8727 10.2013C41.8593 10.2425 41.8577 10.2868 41.8681 10.3289C41.8785 10.371 41.9005 10.4094 41.9316 10.4397L43.472 11.941L43.1083 14.0614C43.101 14.1042 43.1058 14.1481 43.1222 14.1883C43.1385 14.2284 43.1658 14.2632 43.2008 14.2887C43.2359 14.3142 43.2774 14.3294 43.3206 14.3325C43.3639 14.3357 43.4071 14.3267 43.4455 14.3065L45.3497 13.3052L47.2538 14.3065C47.2922 14.3267 47.3354 14.3357 47.3787 14.3325C47.4219 14.3294 47.4634 14.3142 47.4985 14.2887C47.5336 14.2632 47.5608 14.2284 47.5771 14.1883C47.5935 14.1481 47.5983 14.1042 47.591 14.0614L47.2273 11.9406L48.7677 10.4397C48.7988 10.4094 48.8208 10.371 48.8312 10.3289C48.8416 10.2868 48.84 10.2425 48.8266 10.2013C48.8132 10.16 48.7885 10.1233 48.7553 10.0953C48.7222 10.0673 48.6818 10.0492 48.6389 10.043L46.5101 9.73366L45.558 7.80488Z" fill="#C31625"/>
<path d="M35.4408 7.80488C35.4216 7.76606 35.3919 7.73339 35.3551 7.71055C35.3183 7.6877 35.2758 7.6756 35.2325 7.6756C35.1891 7.6756 35.1467 7.6877 35.1099 7.71055C35.0731 7.73339 35.0433 7.76606 35.0241 7.80488L34.072 9.73366L31.9433 10.043C31.9003 10.0492 31.86 10.0673 31.8268 10.0953C31.7936 10.1233 31.7689 10.16 31.7555 10.2013C31.7421 10.2425 31.7405 10.2868 31.7509 10.3289C31.7613 10.371 31.7833 10.4094 31.8144 10.4397L33.3549 11.941L32.9911 14.0614C32.9839 14.1042 32.9886 14.1481 33.005 14.1883C33.0213 14.2284 33.0486 14.2632 33.0836 14.2887C33.1187 14.3142 33.1602 14.3294 33.2034 14.3325C33.2467 14.3357 33.2899 14.3267 33.3283 14.3065L35.2325 13.3052L37.1366 14.3065C37.175 14.3267 37.2183 14.3357 37.2615 14.3325C37.3047 14.3294 37.3462 14.3142 37.3813 14.2887C37.4164 14.2632 37.4436 14.2284 37.46 14.1883C37.4763 14.1481 37.4811 14.1042 37.4738 14.0614L37.1101 11.9406L38.6505 10.4397C38.6816 10.4094 38.7036 10.371 38.714 10.3289C38.7244 10.2868 38.7228 10.2425 38.7094 10.2013C38.696 10.16 38.6713 10.1233 38.6382 10.0953C38.605 10.0673 38.5646 10.0492 38.5217 10.043L36.3929 9.73366L35.4408 7.80488Z" fill="#C31625"/>
<path d="M25.3246 7.80488C25.3054 7.76606 25.2757 7.73339 25.2389 7.71055C25.2021 7.6877 25.1596 7.6756 25.1163 7.6756C25.0729 7.6756 25.0305 7.6877 24.9937 7.71055C24.9568 7.73339 24.9271 7.76606 24.9079 7.80488L23.9558 9.73366L21.8271 10.043C21.7841 10.0492 21.7438 10.0673 21.7106 10.0953C21.6774 10.1233 21.6527 10.16 21.6393 10.2013C21.6259 10.2425 21.6243 10.2868 21.6347 10.3289C21.6451 10.371 21.6671 10.4094 21.6982 10.4397L23.2386 11.941L22.8749 14.0614C22.8676 14.1042 22.8724 14.1481 22.8888 14.1883C22.9051 14.2284 22.9324 14.2632 22.9674 14.2887C23.0025 14.3142 23.044 14.3294 23.0872 14.3325C23.1305 14.3357 23.1737 14.3267 23.2121 14.3065L25.1163 13.3052L27.0204 14.3065C27.0588 14.3267 27.1021 14.3357 27.1453 14.3325C27.1885 14.3294 27.23 14.3142 27.2651 14.2887C27.3002 14.2632 27.3274 14.2284 27.3437 14.1883C27.3601 14.1481 27.3649 14.1042 27.3576 14.0614L26.9939 11.9406L28.5343 10.4397C28.5654 10.4094 28.5874 10.371 28.5978 10.3289C28.6082 10.2868 28.6066 10.2425 28.5932 10.2013C28.5798 10.16 28.5551 10.1233 28.522 10.0953C28.4888 10.0673 28.4484 10.0492 28.4055 10.043L26.2767 9.73366L25.3246 7.80488Z" fill="#C31625"/>
<path d="M15.2084 7.80482C15.1892 7.766 15.1595 7.73333 15.1227 7.71048C15.0858 7.68764 15.0434 7.67554 15.0001 7.67554C14.9567 7.67554 14.9143 7.68764 14.8774 7.71048C14.8406 7.73333 14.8109 7.766 14.7917 7.80482L13.8396 9.7336L11.7108 10.0429C11.6679 10.0491 11.6275 10.0673 11.5944 10.0952C11.5612 10.1232 11.5365 10.1599 11.5231 10.2012C11.5097 10.2425 11.5081 10.2867 11.5185 10.3288C11.5289 10.371 11.5509 10.4093 11.582 10.4396L13.1224 11.941L12.7587 14.0614C12.7514 14.1041 12.7562 14.148 12.7726 14.1882C12.7889 14.2283 12.8162 14.2631 12.8512 14.2886C12.8863 14.3141 12.9278 14.3293 12.971 14.3325C13.0143 14.3356 13.0575 14.3266 13.0959 14.3065L15.0001 13.3051L16.9042 14.3065C16.9426 14.3266 16.9858 14.3356 17.0291 14.3325C17.0723 14.3293 17.1138 14.3141 17.1489 14.2886C17.1839 14.2631 17.2112 14.2283 17.2275 14.1882C17.2439 14.148 17.2487 14.1041 17.2414 14.0614L16.8777 11.9405L18.4181 10.4396C18.4492 10.4093 18.4712 10.371 18.4816 10.3288C18.492 10.2867 18.4904 10.2425 18.477 10.2012C18.4636 10.1599 18.4389 10.1232 18.4057 10.0952C18.3726 10.0673 18.3322 10.0491 18.2893 10.0429L16.1605 9.7336L15.2084 7.80482Z" fill="#C31625"/>
</svg>
