<svg width="221" height="54" viewBox="0 0 221 54" fill="none" xmlns="http://www.w3.org/2000/svg">
<path d="M41.529 0.84082H11.2293C5.07497 0.84082 0.0859375 5.82985 0.0859375 11.9841V42.2838C0.0859375 48.4381 5.07497 53.4272 11.2293 53.4272H41.529C47.6832 53.4272 52.6723 48.4381 52.6723 42.2838V11.9841C52.6723 5.82985 47.6832 0.84082 41.529 0.84082Z" fill="#C31625"/>
<mask id="mask0_650_1341" style="mask-type:luminance" maskUnits="userSpaceOnUse" x="0" y="0" width="53" height="54">
<path d="M41.529 0.84082H11.2293C5.07497 0.84082 0.0859375 5.82985 0.0859375 11.9841V42.2838C0.0859375 48.4381 5.07497 53.4272 11.2293 53.4272H41.529C47.6832 53.4272 52.6723 48.4381 52.6723 42.2838V11.9841C52.6723 5.82985 47.6832 0.84082 41.529 0.84082Z" fill="white"/>
</mask>
<g mask="url(#mask0_650_1341)">
<path d="M21.5317 21.0406C22.2509 21.0913 22.9398 21.3648 23.5375 21.7497C24.125 22.155 24.6214 22.6919 24.9253 23.3199C25.2393 23.948 25.3913 24.6571 25.3406 25.346C25.3001 26.0247 25.0165 26.6629 24.5809 27.1694C24.1351 27.6658 23.5375 28.0305 22.879 28.1622C22.2205 28.3142 21.5519 28.2635 21.0049 27.9596C20.4477 27.6658 20.0222 27.1492 19.8602 26.5515C19.7285 26.0652 19.7589 25.579 19.9615 25.1738C19.9311 25.3055 19.9209 25.4473 19.9209 25.5891C19.9209 26.045 20.0729 26.4603 20.316 26.8048C20.4578 27.0074 20.6301 27.1897 20.8428 27.3214C20.934 27.3822 21.0251 27.4227 21.1264 27.4734C21.3898 27.5949 21.6836 27.676 21.9976 27.676C22.9094 27.676 23.6691 27.0884 23.9528 26.278C24.0338 26.0855 24.0946 25.8829 24.1149 25.6702C24.1453 25.3764 24.1149 25.1231 24.0541 24.8496C23.8008 23.7859 22.8283 22.9755 21.7647 22.9046C20.7415 22.8236 19.7285 23.2794 19.1105 24.0898C18.7965 24.4849 18.5939 24.9712 18.523 25.4676C18.452 25.9741 18.5027 26.4502 18.6445 26.9162C18.918 27.838 19.5968 28.6181 20.4376 29.0435C20.8631 29.2563 21.329 29.388 21.795 29.4285C22.2712 29.469 22.7169 29.4184 23.1626 29.3069C24.0541 29.0942 24.8443 28.5674 25.4318 27.8786C25.9991 27.1796 26.3638 26.2982 26.3841 25.3865C26.4145 24.495 26.1916 23.6238 25.7864 22.8539C25.371 22.084 24.7531 21.4458 24.0237 20.9798C23.9325 20.9292 23.8414 20.8785 23.7502 20.838C23.345 20.605 22.9904 20.4632 22.7169 20.372C22.5447 20.3214 21.9267 20.1188 21.0758 20.058C20.0222 19.9769 19.2118 20.1289 18.7762 20.2403C18.3204 20.3518 17.8645 20.4936 17.4188 20.6455C16.2842 21.071 15.2509 21.7193 14.2784 22.4589C12.3536 23.9784 10.753 25.9336 9.507 28.1318C8.88905 29.236 8.33188 30.3706 7.87602 31.566C7.75446 31.8598 7.64302 32.1637 7.54172 32.4575C7.44042 32.7614 7.32899 33.0551 7.22768 33.3591L6.95416 34.2809L6.82247 34.7368L6.71104 35.2028C5.44475 40.1767 5.23202 45.404 5.53592 50.54C5.67775 53.1131 6.00192 55.6761 6.38687 58.2188L6.70091 60.1233L7.05547 62.0075C7.31886 63.2637 7.47081 64.53 7.67341 65.7861L8.94983 65.5227C8.66618 64.2767 8.36227 63.0206 8.11915 61.7745L7.7342 59.9004L7.38977 58.0263C6.96429 55.5241 6.5996 53.0017 6.41726 50.4691C6.02218 45.4141 6.14374 40.278 7.29859 35.3648L7.3999 34.909L7.52146 34.4531L7.77472 33.5414C7.86589 33.2375 7.96719 32.9437 8.05837 32.6499C8.14954 32.3562 8.25084 32.0522 8.36227 31.7686C8.77762 30.5935 9.31452 29.469 9.89195 28.375C11.0671 26.2071 12.6069 24.2519 14.4607 22.7222C15.3927 21.9726 16.4057 21.3141 17.4998 20.8785C17.9253 20.7165 18.3507 20.5746 18.7863 20.4531C17.9557 20.7165 17.1452 21.0811 16.3855 21.5167C15.342 22.1246 14.4303 22.9552 13.6098 23.8467C11.9788 25.6702 10.7429 27.8786 9.90208 30.2592C9.48674 31.4444 9.13218 32.6702 8.89918 33.9162C8.82827 34.2303 8.77762 34.5443 8.72697 34.8583C8.67631 35.1724 8.62566 35.4864 8.57501 35.8005L8.46358 36.7527L8.41293 37.2288L8.38253 37.705C7.99758 42.8207 8.69657 48.0075 9.89195 53.0118C10.4795 55.5241 11.2393 57.9858 12.0598 60.4272L12.698 62.2506L13.3768 64.0538C13.8529 65.2492 14.2176 66.4648 14.6431 67.6703L15.8587 67.1841C15.3623 65.9989 14.8457 64.8237 14.3898 63.6385L13.6807 61.8657L13.0222 60.0828C12.1713 57.692 11.371 55.2709 10.753 52.8092C9.48674 47.896 8.71684 42.8208 8.99035 37.786L9.01061 37.3099L9.05114 36.8439L9.14231 35.9119C9.18283 35.5978 9.22335 35.2939 9.274 34.9799C9.31452 34.6659 9.36517 34.362 9.42596 34.058C9.62856 32.8222 9.96286 31.6268 10.3478 30.4517C11.1278 28.1116 12.303 25.9234 13.863 24.0898C14.6532 23.1882 15.5345 22.3677 16.5273 21.7497C16.9122 21.5167 17.3175 21.304 17.7227 21.1115C16.9426 21.5066 16.2234 22.0131 15.5447 22.5703C14.6228 23.3503 13.8732 24.3228 13.2147 25.346C11.9281 27.4328 11.0873 29.8236 10.672 32.3055C10.4694 33.5515 10.3276 34.8077 10.3174 36.0841C10.2972 36.3981 10.3073 36.7223 10.3174 37.0363C10.3174 37.3504 10.3174 37.6746 10.3377 37.9886L10.3985 38.9408L10.4289 39.417L10.4795 39.8931C10.9962 44.9988 12.5765 49.9829 14.6228 54.7036C15.6358 57.0741 16.8109 59.3635 18.0468 61.6226L18.9889 63.3042L19.9716 64.9554C20.6503 66.0495 21.2277 67.1841 21.8457 68.2984L22.96 67.6096C22.2712 66.5358 21.562 65.462 20.8934 64.378L19.8905 62.7572L18.9282 61.1161C17.672 58.9077 16.4665 56.6689 15.4332 54.349C13.3362 49.7296 11.685 44.8671 11.0975 39.8627L11.0367 39.3967L10.9962 38.9307L10.9252 37.9886C10.905 37.6746 10.905 37.3605 10.8948 37.0465C10.8847 36.7324 10.8746 36.4184 10.8847 36.1145C10.8746 34.8685 10.986 33.6224 11.1582 32.4068C11.5229 29.9654 12.2928 27.605 13.5186 25.5385C14.1365 24.5153 14.8659 23.5529 15.7371 22.7729C16.0816 22.4791 16.4361 22.1955 16.8008 21.9321C16.1018 22.4589 15.4737 23.0768 14.9064 23.7555C14.1365 24.6875 13.5591 25.7715 13.0931 26.8959C12.1915 29.1651 11.7762 31.6673 11.7964 34.1897C11.8167 35.4459 11.8977 36.7122 12.1004 37.9785C12.1409 38.2925 12.2017 38.6065 12.2624 38.9206C12.3232 39.2346 12.384 39.5487 12.4448 39.8627L12.6676 40.7947L12.7791 41.2607L12.9108 41.7267C14.2986 46.6703 16.7299 51.2998 19.5664 55.595C20.9745 57.7528 22.5346 59.8092 24.1351 61.815L25.3508 63.3042L26.6069 64.763C27.468 65.7152 28.2278 66.7384 29.0281 67.7311L30.0006 66.8599C29.1294 65.9178 28.248 64.9858 27.4072 64.0336L26.1308 62.6052L24.8949 61.1566C23.2741 59.2014 21.7039 57.2058 20.2755 55.0987C17.4086 50.9148 14.9368 46.4069 13.4882 41.5849L13.3464 41.1391L13.2248 40.6833L12.9918 39.7715C12.9209 39.4676 12.8601 39.1637 12.7993 38.8497C12.7284 38.5458 12.6676 38.2419 12.6271 37.9278C12.3941 36.7021 12.303 35.456 12.2523 34.2201C12.1814 31.7483 12.536 29.2968 13.3768 27.0479C13.8124 25.9335 14.3594 24.8597 15.0888 23.9379C15.3724 23.5833 15.6763 23.249 15.9904 22.9249C15.3927 23.5631 14.8862 24.2823 14.4404 25.0421C13.8428 26.0956 13.4679 27.2606 13.2046 28.456C12.7082 30.8569 12.7386 33.3894 13.2046 35.8612C13.4376 37.0971 13.7415 38.333 14.1669 39.5385C14.2581 39.8424 14.3695 40.1362 14.4911 40.4401C14.6025 40.7339 14.714 41.0378 14.8355 41.3316L15.2205 42.2129L15.413 42.6485L15.6257 43.0841C17.8544 47.7137 21.0555 51.8468 24.5809 55.5849C26.3435 57.4691 28.2379 59.2217 30.1627 60.9236L31.6214 62.1797L33.1106 63.3954C34.1236 64.1855 35.0455 65.0567 36.0078 65.8975L36.8183 64.8744C35.8052 64.0944 34.7618 63.3346 33.769 62.5444L32.2698 61.3592L30.8009 60.1435C28.866 58.5024 26.9716 56.8005 25.1988 54.9872C21.6532 51.3707 18.4318 47.349 16.1626 42.8511L15.9499 42.4358L15.7574 42.0103L15.3623 41.1594C15.2407 40.8757 15.1293 40.5819 15.0077 40.2882C14.8862 39.9944 14.7747 39.7107 14.6734 39.417C14.2378 38.2419 13.9238 37.0465 13.6604 35.8308C13.164 33.4097 13.083 30.9278 13.5287 28.5674C13.7617 27.3923 14.1163 26.2375 14.6734 25.2042C14.8963 24.8091 15.1293 24.4241 15.3927 24.0493C14.9166 24.7888 14.5418 25.579 14.2378 26.4097C13.8326 27.5443 13.6604 28.7599 13.6098 29.9857C13.5389 32.4372 14.0048 34.9191 14.8862 37.2795C15.3319 38.4546 15.8384 39.6196 16.4665 40.7339C16.6083 41.0176 16.7704 41.2911 16.9426 41.5646C17.1047 41.8381 17.2668 42.1116 17.439 42.3851L17.9658 43.1854L18.2292 43.5805L18.5128 43.9655C21.5114 48.129 25.3812 51.6544 29.5042 54.7238C31.5708 56.2738 33.7285 57.6718 35.9268 59.0089L37.5882 59.9916L39.2698 60.9337C40.4044 61.5415 41.4681 62.2405 42.5621 62.8889L43.1801 61.734C42.0455 61.1464 40.8906 60.569 39.7763 59.9612L38.0947 59.0596L36.4434 58.1175C34.2553 56.8309 32.0874 55.4937 30.031 54.0046C25.9079 51.0567 22.0483 47.663 19.0295 43.621L18.7458 43.2462L18.4824 42.8613L17.9455 42.0914C17.7733 41.828 17.6112 41.5646 17.4491 41.3012C17.2769 41.0378 17.1148 40.7744 16.973 40.5009C16.3348 39.4271 15.8182 38.2925 15.3623 37.1478C14.4506 34.8482 13.9441 32.4169 13.9643 30.0161C13.9947 28.8207 14.1365 27.6253 14.5012 26.511C14.6431 26.0855 14.8153 25.66 15.0077 25.2447C14.6734 26.0551 14.4303 26.9061 14.2784 27.7671C14.0758 28.9625 14.1163 30.1883 14.2784 31.3938C14.6329 33.8149 15.5244 36.1854 16.8008 38.3533C17.4491 39.4372 18.1481 40.4908 18.9586 41.4734C19.151 41.7267 19.3536 41.9698 19.5664 42.2129C19.7791 42.4561 19.9817 42.6992 20.1945 42.9322L20.8529 43.6312L21.1872 43.9756L21.5317 44.3099C25.2089 47.896 29.6258 50.692 34.2249 52.9916C36.5245 54.1565 38.9051 55.1594 41.2958 56.0914L43.099 56.7702L44.9124 57.4084C46.1381 57.8034 47.3031 58.31 48.4985 58.7658L48.9037 57.5198C47.6779 57.1348 46.442 56.7702 45.2467 56.3751L43.4333 55.7774L41.6403 55.1392C39.2597 54.2578 36.8993 53.3157 34.6099 52.2014C30.0411 50.0133 25.6446 47.3389 21.9673 43.8946L21.6228 43.5704L21.2885 43.2361L20.6301 42.5675C20.4173 42.3345 20.2147 42.1015 20.002 41.8685C19.7892 41.6355 19.5866 41.4025 19.3942 41.1594C18.5837 40.2071 17.8746 39.184 17.2161 38.1406C15.9195 36.0335 14.9976 33.7339 14.6025 31.3634C14.4202 30.1781 14.3594 28.9726 14.5316 27.8178C14.6025 27.3721 14.6937 26.9263 14.8051 26.4907C14.6127 27.3417 14.5316 28.223 14.5215 29.1043C14.5215 30.3098 14.7849 31.5153 15.1496 32.6803C15.9195 35.0002 17.206 37.1883 18.8471 39.1029C19.6677 40.0552 20.549 40.977 21.5114 41.8077C21.7444 42.0205 21.9875 42.2231 22.2408 42.4257C22.494 42.6283 22.7372 42.8309 22.9803 43.0234L23.7502 43.5906L24.1351 43.8743L24.5302 44.1377C28.7748 47.0248 33.607 49.0103 38.5404 50.4894C41.0122 51.239 43.5245 51.8063 46.047 52.3128L47.9413 52.6775L49.8357 52.9916C51.1121 53.1739 52.348 53.4677 53.6042 53.7108L53.7865 52.4141C52.5202 52.252 51.2337 52.1102 49.9775 51.9177L48.0831 51.6442L46.209 51.3201C43.7069 50.8642 41.2249 50.3476 38.7734 49.6486C33.8906 48.2911 29.099 46.417 24.8848 43.6616L24.4897 43.4083L24.1047 43.1348L23.3348 42.5877C23.0816 42.3953 22.8385 42.2028 22.5953 42.0103C22.3522 41.8178 22.0989 41.6254 21.866 41.4228C20.9036 40.6326 20.0222 39.7411 19.2017 38.8193C17.5606 36.9756 16.2538 34.8583 15.4535 32.5993C15.0685 31.4647 14.795 30.2896 14.7646 29.1145C14.7646 28.6586 14.7646 28.2129 14.8051 27.757C14.7646 28.6282 14.8355 29.5095 14.9774 30.3706C15.1901 31.5559 15.6561 32.7006 16.2234 33.7744C17.3782 35.9321 19.0396 37.8569 20.9745 39.4575C21.947 40.2477 22.9702 41.0074 24.0744 41.6558C24.3377 41.828 24.6214 41.9799 24.8949 42.142C25.1786 42.294 25.4521 42.4561 25.7357 42.608L26.5968 43.0335L27.0223 43.2462L27.4579 43.4387C32.1381 45.5458 37.2437 46.6601 42.3595 47.2578C44.9225 47.5617 47.4956 47.6934 50.0687 47.7542L51.9934 47.7846L53.9182 47.7643C55.2047 47.7238 56.471 47.7947 57.7474 47.815L57.7069 46.5082C56.4305 46.569 55.144 46.65 53.8777 46.6804L51.9732 46.7412H50.0687C47.526 46.7412 44.9833 46.6601 42.4608 46.3967C37.416 45.9004 32.3711 44.8975 27.7415 42.9119L27.3059 42.7296L26.8804 42.527L26.0295 42.1218C25.7459 41.9799 25.4723 41.828 25.1988 41.6862C24.9253 41.5443 24.6417 41.3924 24.3783 41.2303C23.2943 40.6123 22.2712 39.8931 21.2987 39.1333C19.3638 37.6036 17.7024 35.7498 16.5273 33.6528C15.9499 32.5993 15.4737 31.4951 15.2407 30.3402C15.1496 29.8945 15.0888 29.4488 15.0483 28.9929C15.1597 29.8641 15.3826 30.715 15.6763 31.5457C16.1018 32.6803 16.7502 33.7136 17.4897 34.6861C19.0092 36.6109 20.9644 38.2115 23.1626 39.4575C24.2668 40.0754 25.4014 40.6326 26.5968 41.0885C26.8906 41.21 27.1945 41.3215 27.4883 41.4228C27.7922 41.5241 28.086 41.6355 28.3899 41.7368L29.3117 42.0103L29.7676 42.142L30.2336 42.2534C35.2075 43.5197 40.4348 43.7325 45.5708 43.4286C48.1439 43.2867 50.7069 42.9626 53.2496 42.5776L55.1541 42.2636L57.0383 41.909C58.2945 41.6456 59.5608 41.4937 60.8169 41.2911L60.5535 40.0147C59.3075 40.2983 58.0514 40.6022 56.8053 40.8453L54.9312 41.2303L53.0571 41.5747C50.5549 42.0002 48.0325 42.3649 45.4999 42.5472C40.4449 42.9423 35.3088 42.8207 30.3957 41.6659L29.9398 41.5646L29.4839 41.443L28.5722 41.1898C28.2683 41.0986 27.9745 40.9973 27.6807 40.9061C27.387 40.8149 27.0831 40.7136 26.7994 40.6022C25.6243 40.1869 24.4998 39.65 23.4058 39.0725C21.2379 37.8974 19.2827 36.3576 17.7531 34.5038C17.0034 33.5718 16.3449 32.5588 15.9093 31.4647C15.7473 31.0392 15.6054 30.6137 15.4839 30.1781C15.7473 31.0088 16.1119 31.8192 16.5476 32.579C17.1554 33.6224 17.9861 34.5342 18.8775 35.3547C20.701 36.9857 22.9094 38.2216 25.29 39.0624C26.4752 39.4777 27.701 39.8323 28.947 40.0653C29.2611 40.1362 29.5751 40.1869 29.8891 40.2375C30.2032 40.2882 30.5172 40.3388 30.8313 40.3895L31.7835 40.5009L32.2596 40.5516L32.7358 40.582C37.8516 40.9669 43.0383 40.2679 48.0426 39.0725C50.5549 38.485 53.0166 37.7252 55.458 36.9047L57.2814 36.2665L59.0846 35.5877C60.28 35.1116 61.4957 34.7469 62.7012 34.3214L62.2149 33.1058C61.0297 33.6022 59.8545 34.1188 58.6693 34.5747L56.8965 35.2838L55.1136 35.9423C52.7228 36.7932 50.3017 37.5935 47.84 38.2115C42.9268 39.4778 37.8516 40.2477 32.8168 39.9741L32.3407 39.9539L31.8747 39.9134L30.9427 39.8222C30.6287 39.7817 30.3247 39.7411 30.0107 39.6905C29.6967 39.65 29.3928 39.5993 29.0889 39.5385C27.853 39.3359 26.6576 39.0016 25.4825 38.6167C23.1424 37.8366 20.9542 36.6615 19.1206 35.1015C18.219 34.3113 17.3985 33.43 16.7805 32.4372C16.5475 32.0522 16.3348 31.647 16.1423 31.2418C16.5374 32.0219 17.0439 32.7411 17.6011 33.4198C18.3811 34.3417 19.3536 35.0913 20.3768 35.7498C22.4636 37.0364 24.8544 37.8772 27.3363 38.2925C28.5823 38.4951 29.8385 38.6369 31.1149 38.6471C31.4289 38.6673 31.7531 38.6572 32.0672 38.6471C32.3812 38.6471 32.7054 38.6471 33.0194 38.6268L33.9717 38.566L34.4478 38.5356L34.9239 38.485C40.0296 37.9683 45.0137 36.388 49.7344 34.3417C52.1049 33.3287 54.3943 32.1535 56.6534 30.9177L58.335 29.9755L59.9862 28.9929C61.0803 28.3142 62.2149 27.7367 63.3292 27.1188L62.6404 26.0045C61.5666 26.6933 60.4928 27.4024 59.4088 28.071L57.788 29.0739L56.1469 30.0363C53.9385 31.2925 51.6997 32.498 49.3798 33.5313C44.7604 35.6282 39.8979 37.2795 34.8935 37.867L34.4275 37.9278L33.9615 37.9683L33.0194 38.0393C32.7054 38.0595 32.3913 38.0595 32.0773 38.0696C31.7632 38.0798 31.4492 38.0899 31.1453 38.0798C29.8993 38.0899 28.6532 37.9785 27.4376 37.8063C24.9962 37.4416 22.6359 36.6717 20.5693 35.4459C19.5461 34.8279 18.5837 34.0986 17.8037 33.2274C17.5099 32.8829 17.2263 32.5284 16.9629 32.1637C17.4897 32.8627 18.1076 33.4908 18.7863 34.058C19.7183 34.8279 20.8023 35.4054 21.9267 35.8714C24.1959 36.773 26.6981 37.1883 29.2205 37.168C30.4767 37.1478 31.743 37.0667 33.0093 36.8641C33.3233 36.8236 33.6374 36.7628 33.9514 36.7021C34.2654 36.6413 34.5795 36.5805 34.8935 36.5197L35.8255 36.2968L36.2915 36.1854L36.7575 36.0537C41.7011 34.6659 46.3306 32.2346 50.6258 29.3981C52.7836 27.99 54.84 26.4299 56.8458 24.8294L58.3451 23.6137L59.8039 22.3576C60.7561 21.4965 61.7793 20.7367 62.7721 19.9364L61.9009 18.9639C60.9587 19.8351 60.0268 20.7164 59.0745 21.5573L57.6461 22.8337L56.1975 24.0696C54.2424 25.6904 52.2467 27.2606 50.1396 28.689C45.9558 31.5559 41.4478 34.0277 36.6258 35.4763L36.1801 35.6181L35.7242 35.7397L34.8125 35.9727C34.5086 36.0436 34.2046 36.1044 33.8906 36.1651C33.5867 36.2361 33.2828 36.2968 32.9688 36.3374C31.743 36.5704 30.497 36.6615 29.2611 36.7122C26.7893 36.7831 24.3377 36.4285 22.0888 35.5877C20.9745 35.1521 19.9007 34.6051 18.9788 33.8757C18.6243 33.5921 18.29 33.2881 17.9658 32.9741C18.604 33.5718 19.3232 34.0783 20.083 34.524C21.1366 35.1217 22.3016 35.4965 23.4969 35.7599C25.8978 36.2563 28.4304 36.2259 30.9022 35.7599C32.1381 35.5269 33.374 35.223 34.5795 34.7976C34.8834 34.7064 35.1772 34.5949 35.4811 34.4734C35.7748 34.362 36.0788 34.2505 36.3725 34.129L37.2539 33.744L37.6895 33.5515L38.1251 33.3388C42.7546 31.1101 46.8878 27.909 50.6258 24.3836C52.5101 22.6209 54.2626 20.7266 55.9645 18.8018L57.2207 17.3431L58.4363 15.8539C59.2265 14.8409 60.0977 13.919 60.9385 12.9566L59.9153 12.1462C59.1353 13.1593 58.3755 14.2027 57.5854 15.1954L56.4001 16.6947L55.1845 18.1636C53.5434 20.0985 51.8415 21.9929 50.0282 23.7657C46.4116 27.3113 42.3899 30.5327 37.8921 32.8019L37.4767 33.0146L37.0513 33.2071L36.2003 33.6022C35.9167 33.7237 35.6229 33.8352 35.3291 33.9567C35.0353 34.0783 34.7517 34.1897 34.4579 34.291C33.2828 34.7266 32.0874 35.0407 30.8718 35.3041C28.4506 35.8005 25.9687 35.8815 23.6084 35.4358C22.4332 35.2028 21.2784 34.8482 20.2451 34.291C19.85 34.0682 19.4651 33.8352 19.0903 33.5718C19.8298 34.0479 20.6199 34.4227 21.4506 34.7266C22.5852 35.1319 23.8008 35.3041 25.0266 35.3547C27.4781 35.4256 29.9601 34.9596 32.3204 34.0783C33.4955 33.6326 34.6605 33.1261 35.7748 32.498C36.0585 32.3562 36.332 32.1941 36.6055 32.0219C36.879 31.8598 37.1526 31.6977 37.4261 31.5255L38.2264 30.9987L38.6215 30.7353L39.0064 30.4517C43.17 27.4531 46.6953 23.5833 49.7648 19.4603C51.3147 17.3937 52.7127 15.236 54.0499 13.0377L55.0325 11.3763L55.9746 9.69469C56.5825 8.5601 57.2814 7.49642 57.9298 6.40235L56.7749 5.7844C56.1874 6.91899 55.61 8.07385 55.0021 9.18818L54.1005 10.8698L53.1584 12.521C51.8719 14.7092 50.5347 16.8771 49.0455 18.9335C46.0976 23.0566 42.704 26.9162 38.662 29.935L38.2872 30.2187L37.9022 30.4821L37.1323 31.019C36.8689 31.1912 36.6055 31.3533 36.3421 31.5153C36.0788 31.6876 35.8154 31.8496 35.5418 31.9915C34.468 32.6297 33.3334 33.1463 32.1887 33.6022C29.8891 34.5139 27.4579 35.0204 25.057 35.0002C23.8616 34.9698 22.6662 34.8279 21.5519 34.4633C21.1264 34.3214 20.701 34.1492 20.2856 33.9567C21.0961 34.291 21.947 34.5342 22.8081 34.6861C24.0034 34.8887 25.2292 34.8482 26.4347 34.6861C28.8559 34.3316 31.2263 33.4401 33.3942 32.1637C34.4782 31.5153 35.5317 30.8164 36.5144 30.0059C36.7676 29.8135 37.0107 29.6108 37.2539 29.3981C37.497 29.1854 37.7401 28.9828 37.9731 28.77L38.6721 28.1116L39.0165 27.7773L39.3508 27.4328C42.937 23.7555 45.7329 19.3387 48.0325 14.7396C49.1975 12.44 50.2004 10.0594 51.1324 7.66864L51.8111 5.86545L52.4493 4.05212C52.8444 2.82636 53.3509 1.66138 53.8068 0.466001L52.5607 0.0607882C52.1758 1.28655 51.8111 2.52245 51.4059 3.71782L50.8082 5.53115L50.17 7.32421C49.2886 9.70482 48.3465 12.0652 47.2322 14.3546C45.0441 18.9234 42.3697 23.3199 38.9254 26.9972L38.6012 27.3417L38.2669 27.676L37.5983 28.3344C37.3653 28.5472 37.1323 28.7498 36.8993 28.9625C36.6663 29.1752 36.4333 29.3779 36.1902 29.5703C35.2379 30.3808 34.2148 31.0899 33.1714 31.7483C31.0643 33.045 28.7647 33.9669 26.3942 34.362C25.2089 34.5443 24.0034 34.6051 22.8486 34.4329C22.4029 34.3619 21.9571 34.2708 21.5215 34.1593C22.3725 34.3518 23.2538 34.4329 24.1351 34.443C25.3406 34.443 26.5461 34.1796 27.7111 33.8149C30.031 33.045 32.2191 31.7585 34.1337 30.1174C35.086 29.2968 36.0078 28.4155 36.8385 27.4531C37.0513 27.2201 37.2539 26.977 37.4565 26.7237C37.6591 26.4705 37.8617 26.2273 38.0542 25.9842L38.6215 25.2143L38.9051 24.8294L39.1685 24.4343C42.0556 20.1897 44.0412 15.3575 45.5202 10.4241C46.2698 7.95229 46.8371 5.43997 47.3436 2.91753L47.7083 1.02317L48.0224 -0.871199C48.2047 -2.14762 48.4985 -3.38351 48.7416 -4.63967L47.4449 -4.82201C47.2829 -3.55573 47.141 -2.26918 46.9486 -1.01302L46.675 0.881342L46.3509 2.75545C45.895 5.25763 45.3784 7.73955 44.6794 10.1911C43.3219 15.0739 41.4478 19.8655 38.6924 24.0797L38.4391 24.4748L38.1656 24.8597L37.6186 25.6296C37.4261 25.8829 37.2336 26.126 37.0411 26.3692C36.8487 26.6123 36.6562 26.8655 36.4536 27.0985C35.6634 28.0609 34.7719 28.9422 33.8501 29.7628C32.0064 31.4039 29.8891 32.7107 27.6301 33.511C26.4955 33.896 25.3204 34.1695 24.1453 34.1999C23.6894 34.1999 23.2437 34.1999 22.7878 34.1593C23.659 34.1999 24.5403 34.129 25.4014 33.9871C26.5867 33.7744 27.7314 33.3084 28.8052 32.7411C30.963 31.5863 32.8877 29.9249 34.4883 27.99C35.2785 27.0175 36.0382 25.9943 36.6866 24.8901C36.8588 24.6267 37.0107 24.3431 37.1728 24.0696C37.3248 23.7859 37.4869 23.5124 37.6388 23.2288L38.0643 22.3677L38.277 21.9422L38.4695 21.5066C40.5766 16.8264 41.6909 11.7208 42.2886 6.60496C42.5925 4.04199 42.7242 1.4689 42.785 -1.10419L42.8154 -3.02895L42.7951 -4.95371C42.7546 -6.24025 42.8255 -7.50654 42.8458 -8.78296L41.539 -8.74243C41.5998 -7.46602 41.6808 -6.17947 41.7112 -4.91319L41.772 -3.00869V-1.10419C41.772 1.43851 41.6909 3.98121 41.4275 6.50365C40.9312 11.5485 39.9283 16.5934 37.9427 21.223L37.7604 21.6586L37.5578 22.084L37.1526 22.935C37.0107 23.2186 36.8588 23.4921 36.717 23.7657C36.5751 24.0392 36.4232 24.3228 36.2611 24.5862C35.6431 25.6702 34.9239 26.6933 34.1641 27.6658C32.6345 29.6007 30.7806 31.2621 28.6836 32.4372C27.6301 33.0146 26.5259 33.4907 25.371 33.7237C24.9253 33.8149 24.4796 33.8757 24.0237 33.9162C24.8949 33.8048 25.7459 33.5819 26.5765 33.2881C27.7111 32.8627 28.7444 32.2143 29.7169 31.4748C31.6417 29.9553 33.2423 28.0001 34.4883 25.8019C35.1062 24.6977 35.6634 23.5631 36.1193 22.3677C36.2408 22.0739 36.3523 21.77 36.4536 21.4762C36.5549 21.1723 36.6663 20.8785 36.7676 20.5746L37.0411 19.6528L37.1728 19.1969L37.2843 18.7309C38.5505 13.7569 38.7633 8.52971 38.4594 3.39365C38.3175 0.82056 37.9934 -1.7424 37.6084 -4.28511L37.2944 -6.1896L36.9398 -8.07384C36.6764 -9.32999 36.5245 -10.5963 36.3219 -11.8524L35.0455 -11.589C35.3291 -10.343 35.633 -9.08686 35.8761 -7.84084L36.2611 -5.96673L36.6055 -4.09263C37.031 -1.59045 37.3957 0.931993 37.578 3.46457C37.9731 8.51958 37.8516 13.6556 36.6967 18.5688L36.5954 19.0247L36.4738 19.4806L36.2206 20.3923C36.1294 20.6962 36.0281 20.99 35.9369 21.2837C35.8458 21.5775 35.7445 21.8814 35.633 22.1651C35.2177 23.3402 34.6808 24.4647 34.1033 25.5587C32.9282 27.7266 31.3884 29.6818 29.5346 31.2114C28.6026 31.9611 27.5896 32.6195 26.4955 33.0551C26.07 33.2172 25.6446 33.3591 25.2089 33.4806C26.0396 33.2172 26.8501 32.8525 27.6098 32.4169C28.6532 31.8091 29.565 30.9784 30.3855 30.087C32.0165 28.2635 33.2524 26.0551 34.0932 23.6745C34.5086 22.4893 34.8631 21.2635 35.0961 20.0175C35.167 19.7034 35.2177 19.3894 35.2683 19.0753C35.319 18.7613 35.3696 18.4473 35.4203 18.1332L35.5317 17.181L35.5824 16.7049L35.6128 16.2287C35.9977 11.1129 35.2987 5.92623 34.1033 0.921864C33.5158 -1.59045 32.756 -4.05211 31.9355 -6.49351L31.2973 -8.31696L30.6185 -10.1202C30.1424 -11.3155 29.7777 -12.5312 29.3522 -13.7367L28.1366 -13.2504C28.633 -12.0652 29.1496 -10.8901 29.6055 -9.70481L30.3146 -7.93201L30.9731 -6.14908C31.824 -3.75833 32.6243 -1.33719 33.2423 1.12447C34.5086 6.03766 35.2785 11.1129 35.0049 16.1477L34.9847 16.6238L34.9442 17.0898L34.853 18.0218C34.8125 18.3358 34.7719 18.6397 34.7213 18.9538C34.6808 19.2678 34.6301 19.5717 34.5693 19.8756C34.3667 21.1115 34.0324 22.3069 33.6475 23.482C32.8675 25.8221 31.6923 28.0103 30.1323 29.8438C29.3421 30.7454 28.4608 31.566 27.468 32.1839C27.0831 32.4169 26.6778 32.6297 26.2726 32.8222C27.0527 32.4271 27.7719 31.9206 28.4506 31.3634C29.3725 30.5834 30.1221 29.6108 30.7806 28.5877C32.0672 26.5009 32.908 24.1101 33.3233 21.6282C33.5259 20.3822 33.6677 19.126 33.6779 17.8496C33.6981 17.5355 33.688 17.2114 33.6779 16.8973C33.6779 16.5833 33.6779 16.2591 33.6576 15.9451L33.5968 14.9928L33.5664 14.5167L33.5158 14.0406C32.9991 8.93493 31.4188 3.95082 29.3725 -0.769896C28.3595 -3.14038 27.1844 -5.42983 25.9485 -7.68888L25.0063 -9.37051L24.0237 -11.0217C23.345 -12.1158 22.7675 -13.2504 22.1496 -14.3647L21.0353 -13.6759C21.7241 -12.6021 22.4332 -11.5283 23.1018 -10.4443L24.1047 -8.82348L25.0671 -7.18237C26.3233 -4.97397 27.5288 -2.73517 28.5621 -0.415335C30.659 4.20408 32.3103 9.06662 32.8978 14.071L32.9586 14.537L32.9991 15.003L33.0701 15.9451C33.0903 16.2591 33.0903 16.5732 33.1004 16.8872C33.1106 17.2012 33.1207 17.5153 33.1106 17.8192C33.1207 19.0652 33.0093 20.3112 32.8371 21.5269C32.4724 23.9683 31.7025 26.3286 30.4767 28.3952C29.8588 29.4184 29.1294 30.3808 28.2582 31.1608C27.5997 31.7382 26.8804 32.265 26.1105 32.6803C26.0295 32.7411 25.6749 32.8829 25.5939 32.9336C24.7632 33.2881 24.1554 33.3996 23.2639 33.5009C22.9398 33.5414 22.6156 33.5414 22.2914 33.5515C21.9673 33.5515 21.6431 33.5313 21.329 33.4806C20.6908 33.3895 20.0729 33.197 19.4853 32.9336C18.9079 32.6702 18.3609 32.3156 17.8847 31.9003C17.6416 31.6876 17.4188 31.4647 17.206 31.2317C16.9933 30.9886 16.8109 30.7353 16.6286 30.4719C16.2842 29.935 16.0208 29.3576 15.8486 28.7498C15.7675 28.4459 15.7067 28.1318 15.6662 27.8178C15.6257 27.5037 15.6156 27.1897 15.6257 26.8655C15.6662 25.5993 16.0917 24.3532 16.8413 23.3301C18.0367 21.7092 19.6069 21.0204 21.5013 21.1115L21.5317 21.0406Z" fill="white"/>
</g>
<path d="M73.2567 33.9567C69.3464 30.2085 67.4014 25.4878 67.4014 19.7439C67.4014 14.0001 69.3565 9.21856 73.206 5.53114C77.1163 1.84371 82.0498 0 87.9659 0C91.7141 0 95.0165 0.810423 98.005 2.39075V10.262C95.0773 8.30684 91.7647 7.33433 88.0165 7.33433C84.2683 7.33433 81.3913 8.5297 78.9499 10.8597C76.5592 13.1896 75.3638 16.1274 75.3638 19.7541C75.3638 23.3807 76.6098 26.3691 79.0512 28.7092C81.4926 31.0392 84.5823 32.1839 88.3306 32.1839C92.4536 32.1839 95.9283 31.1 98.7445 28.8713V36.7426C95.6548 38.5863 92.0686 39.5081 87.9456 39.5081C82.0295 39.5081 77.1467 37.6644 73.2364 33.977L73.2567 33.9567Z" fill="#414140"/>
<path d="M105.431 38.7381V0.749512H137.23V38.7381H129.47V7.74954H113.241V38.7381H105.431Z" fill="#414140"/>
<path d="M145.638 38.7381V0.749512H153.449V25.4978L171.855 0.749512H178.582V38.7381H170.822V13.8277L152.213 38.7381H145.648H145.638Z" fill="#414140"/>
<path d="M186.989 38.7381V0.749512H194.8V14.9623H211.95V0.749512H219.71V38.7381H211.95V22.0839H194.8V38.7381H186.989Z" fill="#414140"/>
<path d="M69.3876 51.2898C68.9216 50.8441 68.6987 50.2869 68.6987 49.6082C68.6987 48.9294 68.9317 48.3621 69.3876 47.9265C69.8536 47.4909 70.431 47.2681 71.13 47.2681C71.5757 47.2681 71.9607 47.3694 72.3152 47.5517V48.4837C71.9708 48.2507 71.5757 48.1393 71.13 48.1393C70.6843 48.1393 70.35 48.2811 70.0562 48.5546C69.7725 48.8281 69.6307 49.1726 69.6307 49.6082C69.6307 50.0438 69.7827 50.3882 70.0663 50.6617C70.3601 50.9352 70.7248 51.0771 71.1604 51.0771C71.6466 51.0771 72.062 50.9454 72.3963 50.682V51.614C72.0316 51.8368 71.6061 51.9381 71.1199 51.9381C70.4209 51.9381 69.8435 51.7153 69.3775 51.2797L69.3876 51.2898Z" fill="#414140"/>
<path d="M73.186 51.8569V47.3691H76.9444V51.8569H76.0225V48.1998H74.1079V51.8569H73.186Z" fill="#414140"/>
<path d="M77.9375 51.8569V47.3691H81.2298V48.1998H78.8594V49.0609H80.774V49.8713H78.8594V51.0262H81.3008V51.8569H77.9375Z" fill="#414140"/>
<path d="M85.5147 52.769V51.8471H82.04V47.3594H82.9619V51.0164H84.8461V47.3594H85.768V51.0164H86.3859V52.7588H85.5147V52.769Z" fill="#414140"/>
<path d="M87.0551 51.8569V47.3691H87.9769V50.2968L90.1549 47.3691H90.9451V51.8569H90.0232V48.9089L87.825 51.8569H87.0449H87.0551Z" fill="#414140"/>
<path d="M91.5526 51.857L93.4774 47.3389H94.3587L96.2835 51.857H95.3008L94.8551 50.8136H92.9607L92.515 51.857H91.5425H91.5526ZM93.2545 50.0538H94.5714L93.913 48.4937L93.2545 50.0538Z" fill="#414140"/>
<path d="M96.4253 50.986C96.5165 51.0164 96.6279 51.0367 96.7495 51.0367C96.9926 51.0367 97.1547 50.8746 97.2357 50.5403C97.3168 50.2161 97.3674 49.588 97.3877 48.6763L97.4079 47.3594H100.579V51.8471H99.6569V48.1901H98.2994L98.269 49.1018C98.2386 50.1452 98.1171 50.8746 97.9144 51.2798C97.7017 51.6749 97.337 51.8775 96.8102 51.8775C96.6482 51.8775 96.5165 51.8572 96.4354 51.8167V50.986H96.4253Z" fill="#414140"/>
<path d="M101.572 51.8569V47.3691H102.494V48.8482H103.477C104.014 48.8482 104.429 48.99 104.743 49.2736C105.057 49.5472 105.209 49.9118 105.209 50.3576C105.209 50.8033 105.057 51.168 104.743 51.4415C104.429 51.715 104.003 51.8569 103.477 51.8569H101.562H101.572ZM102.494 51.0464H103.426C103.963 51.0464 104.287 50.7932 104.287 50.3474C104.287 49.9017 103.963 49.6383 103.426 49.6383H102.494V51.0464Z" fill="#414140"/>
<path d="M105.917 51.8569V47.3691H106.839V49.0508H108.865V47.3691H109.787V51.8569H108.865V49.8916H106.839V51.8569H105.917Z" fill="#414140"/>
<path d="M110.77 51.8569V47.3691H111.692V48.8482H112.523C113.059 48.8482 113.475 48.99 113.789 49.2736C114.103 49.5472 114.255 49.9118 114.255 50.3576C114.255 50.8033 114.103 51.168 113.789 51.4415C113.475 51.715 113.049 51.8569 112.523 51.8569H110.77ZM111.692 51.0464H112.472C113.009 51.0464 113.333 50.7932 113.333 50.3474C113.333 49.9017 113.009 49.6383 112.472 49.6383H111.692V51.0464ZM114.802 51.8569V47.3691H115.724V51.8569H114.802Z" fill="#414140"/>
<path d="M116.727 51.8569V47.3691H120.019V48.1998H117.648V49.0609H119.563V49.8713H117.648V51.0262H120.09V51.8569H116.727Z" fill="#414140"/>
<path d="M122.47 51.8569V47.3691H126.229V51.8569H125.307V48.1998H123.392V51.8569H122.47Z" fill="#414140"/>
<path d="M127.211 51.8569V47.3691H129.176C129.652 47.3691 130.037 47.5008 130.321 47.744C130.605 47.9972 130.746 48.3113 130.746 48.7165C130.746 49.1217 130.605 49.4458 130.321 49.6991C130.047 49.9524 129.662 50.0739 129.176 50.0739H128.133V51.8467H127.211V51.8569ZM128.133 49.2939H129.105C129.551 49.2939 129.814 49.0913 129.814 48.7367C129.814 48.3822 129.551 48.1796 129.105 48.1796H128.133V49.2939Z" fill="#414140"/>
<path d="M131.943 47.957C132.388 47.5012 132.946 47.2783 133.614 47.2783C134.283 47.2783 134.83 47.5012 135.276 47.957C135.721 48.4028 135.944 48.9599 135.944 49.6083C135.944 50.2566 135.721 50.8037 135.276 51.2595C134.83 51.7154 134.283 51.9383 133.614 51.9383C132.946 51.9383 132.388 51.7154 131.943 51.2595C131.497 50.8037 131.284 50.2566 131.284 49.6083C131.284 48.9599 131.497 48.4028 131.943 47.957ZM133.614 51.0772C134.009 51.0772 134.344 50.9354 134.597 50.6618C134.86 50.3883 134.992 50.0338 134.992 49.6083C134.992 49.1828 134.86 48.8283 134.597 48.5547C134.333 48.2812 134.009 48.1394 133.614 48.1394C133.219 48.1394 132.885 48.2812 132.621 48.5547C132.358 48.8283 132.226 49.1828 132.226 49.6083C132.226 50.0338 132.358 50.3883 132.621 50.6618C132.885 50.9354 133.219 51.0772 133.614 51.0772Z" fill="#414140"/>
<path d="M136.774 51.8569V47.3691H137.696V50.2968L139.874 47.3691H140.675V51.8569H139.753V48.9089L137.554 51.8569H136.774Z" fill="#414140"/>
<path d="M141.384 51.5227V50.6211C141.779 50.8946 142.366 51.0769 142.873 51.0769C143.562 51.0769 143.957 50.8338 143.957 50.4185C143.957 50.0639 143.602 49.8613 143.005 49.8613H142.437V49.0813H143.116C143.592 49.0813 143.845 48.9192 143.845 48.5849C143.845 48.281 143.521 48.1088 143.005 48.1088C142.488 48.1088 142.012 48.2202 141.566 48.4431V47.5921C141.981 47.3692 142.478 47.2578 143.045 47.2578C143.562 47.2578 143.977 47.3692 144.281 47.6124C144.595 47.8454 144.747 48.1594 144.747 48.5342C144.747 48.9901 144.453 49.294 144.139 49.4358C144.575 49.5979 144.909 49.9727 144.909 50.5096C144.909 50.9148 144.737 51.2491 144.392 51.5227C144.048 51.7962 143.582 51.9279 143.005 51.9279C142.346 51.9279 141.809 51.7861 141.384 51.5125V51.5227Z" fill="#414140"/>
<path d="M145.689 51.8569V47.3691H147.796C148.617 47.3691 149.154 47.7744 149.154 48.4936C149.154 48.9495 148.901 49.2534 148.587 49.3851C148.84 49.4357 149.053 49.5674 149.225 49.7802C149.407 49.9929 149.498 50.2563 149.498 50.5804C149.498 50.9553 149.357 51.2693 149.073 51.5023C148.789 51.7353 148.414 51.8569 147.938 51.8569H145.679H145.689ZM146.611 49.1217H147.655C148.04 49.1217 148.273 48.9393 148.273 48.6354C148.273 48.3315 148.04 48.139 147.655 48.139H146.611V49.1217ZM146.611 51.0566H147.776C148.232 51.0566 148.506 50.854 148.506 50.469C148.506 50.0841 148.232 49.8815 147.776 49.8815H146.611V51.0566Z" fill="#414140"/>
<path d="M150.693 47.957C151.139 47.5012 151.696 47.2783 152.365 47.2783C153.033 47.2783 153.58 47.5012 154.026 47.957C154.472 48.4028 154.695 48.9599 154.695 49.6083C154.695 50.2566 154.472 50.8037 154.026 51.2595C153.58 51.7154 153.033 51.9383 152.365 51.9383C151.696 51.9383 151.139 51.7154 150.693 51.2595C150.247 50.8037 150.035 50.2566 150.035 49.6083C150.035 48.9599 150.247 48.4028 150.693 47.957ZM152.365 51.0772C152.76 51.0772 153.094 50.9354 153.347 50.6618C153.611 50.3883 153.742 50.0338 153.742 49.6083C153.742 49.1828 153.611 48.8283 153.347 48.5547C153.084 48.2812 152.76 48.1394 152.365 48.1394C151.97 48.1394 151.635 48.2812 151.372 48.5547C151.108 48.8283 150.977 49.1828 150.977 49.6083C150.977 50.0338 151.108 50.3883 151.372 50.6618C151.635 50.9354 151.97 51.0772 152.365 51.0772Z" fill="#414140"/>
<path d="M154.907 52.7686V51.0262H155.353C155.556 50.7121 155.708 50.3272 155.799 49.8713C155.89 49.4155 155.941 48.8178 155.941 48.0783V47.3691H159.101V51.0262H159.719V52.7686H158.858V51.8467H155.789V52.7686H154.927H154.907ZM158.169 51.0262V48.1897H156.852C156.852 49.3344 156.751 50.2259 156.366 51.0262H158.169Z" fill="#414140"/>
<path d="M160.925 51.2898C160.459 50.8441 160.236 50.2869 160.236 49.6082C160.236 48.9294 160.469 48.3621 160.925 47.9265C161.391 47.4909 161.969 47.2681 162.668 47.2681C163.113 47.2681 163.498 47.3694 163.853 47.5517V48.4837C163.508 48.2507 163.113 48.1393 162.668 48.1393C162.222 48.1393 161.888 48.2811 161.594 48.5546C161.31 48.8281 161.168 49.1726 161.168 49.6082C161.168 50.0438 161.32 50.3882 161.604 50.6617C161.898 50.9352 162.262 51.0771 162.698 51.0771C163.184 51.0771 163.6 50.9454 163.934 50.682V51.614C163.569 51.8368 163.144 51.9381 162.657 51.9381C161.958 51.9381 161.381 51.7153 160.915 51.2797L160.925 51.2898Z" fill="#414140"/>
<path d="M164.42 47.3691H168.188V48.1998H166.76V51.8569H165.838V48.1998H164.42V47.3691Z" fill="#414140"/>
<path d="M168.877 51.8569V47.3691H170.984C171.804 47.3691 172.341 47.7744 172.341 48.4936C172.341 48.9495 172.088 49.2534 171.774 49.3851C172.027 49.4357 172.24 49.5674 172.412 49.7802C172.595 49.9929 172.686 50.2563 172.686 50.5804C172.686 50.9553 172.544 51.2693 172.26 51.5023C171.977 51.7353 171.602 51.8569 171.126 51.8569H168.867H168.877ZM169.799 49.1217H170.842C171.227 49.1217 171.46 48.9393 171.46 48.6354C171.46 48.3315 171.227 48.139 170.842 48.139H169.799V49.1217ZM169.799 51.0566H170.964C171.42 51.0566 171.693 50.854 171.693 50.469C171.693 50.0841 171.42 49.8815 170.964 49.8815H169.799V51.0566Z" fill="#414140"/>
<path d="M173.071 51.857L174.995 47.3389H175.877L177.802 51.857H176.819L176.373 50.8136H174.479L174.033 51.857H173.061H173.071ZM174.773 50.0538H176.09L175.431 48.4937L174.773 50.0538Z" fill="#414140"/>
<path d="M180.041 51.8569V47.3691H180.963V50.2968L183.141 47.3691H183.931V51.8569H183.01V48.9089L180.811 51.8569H180.031H180.041Z" fill="#414140"/>
<path d="M186.564 51.8569V47.3691H187.486V49.0508H189.512V47.3691H190.434V51.8569H189.512V49.8916H187.486V51.8569H186.564Z" fill="#414140"/>
<path d="M191.934 47.957C192.38 47.5012 192.937 47.2783 193.605 47.2783C194.274 47.2783 194.821 47.5012 195.267 47.957C195.712 48.4028 195.935 48.9599 195.935 49.6083C195.935 50.2566 195.712 50.8037 195.267 51.2595C194.821 51.7154 194.274 51.9383 193.605 51.9383C192.937 51.9383 192.38 51.7154 191.934 51.2595C191.488 50.8037 191.275 50.2566 191.275 49.6083C191.275 48.9599 191.488 48.4028 191.934 47.957ZM193.605 51.0772C194 51.0772 194.335 50.9354 194.588 50.6618C194.851 50.3883 194.983 50.0338 194.983 49.6083C194.983 49.1828 194.851 48.8283 194.588 48.5547C194.325 48.2812 194 48.1394 193.605 48.1394C193.21 48.1394 192.876 48.2812 192.613 48.5547C192.349 48.8283 192.218 49.1828 192.218 49.6083C192.218 50.0338 192.349 50.3883 192.613 50.6618C192.876 50.9354 193.21 51.0772 193.605 51.0772Z" fill="#414140"/>
<path d="M196.756 51.8569V47.3691H198.863C199.684 47.3691 200.221 47.7744 200.221 48.4936C200.221 48.9495 199.968 49.2534 199.653 49.3851C199.907 49.4357 200.119 49.5674 200.292 49.7802C200.474 49.9929 200.565 50.2563 200.565 50.5804C200.565 50.9553 200.423 51.2693 200.14 51.5023C199.856 51.7353 199.481 51.8569 199.005 51.8569H196.746H196.756ZM197.678 49.1217H198.721C199.106 49.1217 199.339 48.9393 199.339 48.6354C199.339 48.3315 199.106 48.139 198.721 48.139H197.678V49.1217ZM197.678 51.0566H198.843C199.299 51.0566 199.572 50.854 199.572 50.469C199.572 50.0841 199.299 49.8815 198.843 49.8815H197.678V51.0566Z" fill="#414140"/>
<path d="M200.96 51.857L202.885 47.3389H203.766L205.691 51.857H204.708L204.262 50.8136H202.368L201.922 51.857H200.95H200.96ZM202.662 50.0538H203.979L203.32 48.4937L202.662 50.0538Z" fill="#414140"/>
<path d="M209.753 52.769V51.8471H206.278V47.3594H207.2V51.0164H209.084V47.3594H210.006V51.0164H210.624V52.7588H209.753V52.769Z" fill="#414140"/>
<path d="M211.303 51.8569V47.3691H212.224V50.2968L214.402 47.3691H215.193V51.8569H214.271V48.9089L212.073 51.8569H211.292H211.303Z" fill="#414140"/>
<path d="M216.186 51.8569V47.3691H217.107V50.2968L219.285 47.3691H220.086V51.8569H219.164V48.9089L216.966 51.8569H216.186Z" fill="#414140"/>
</svg>
