<svg width="23" height="23" viewBox="0 0 23 23" fill="none" xmlns="http://www.w3.org/2000/svg">
<path d="M9.743 15.7413L5.5 11.4973L6.914 10.0833L9.743 12.9113L15.399 7.25427L16.814 8.66927L9.743 15.7413Z" fill="#C31625"/>
<path fill-rule="evenodd" clip-rule="evenodd" d="M0.5 11.4272C0.5 5.35225 5.425 0.427246 11.5 0.427246C17.575 0.427246 22.5 5.35225 22.5 11.4272C22.5 17.5022 17.575 22.4272 11.5 22.4272C5.425 22.4272 0.5 17.5022 0.5 11.4272ZM11.5 20.4272C10.3181 20.4272 9.14778 20.1945 8.05585 19.7422C6.96392 19.2899 5.97177 18.6269 5.13604 17.7912C4.30031 16.9555 3.63738 15.9633 3.18508 14.8714C2.73279 13.7795 2.5 12.6091 2.5 11.4272C2.5 10.2453 2.73279 9.07503 3.18508 7.9831C3.63738 6.89116 4.30031 5.89901 5.13604 5.06328C5.97177 4.22756 6.96392 3.56462 8.05585 3.11233C9.14778 2.66004 10.3181 2.42725 11.5 2.42725C13.8869 2.42725 16.1761 3.37546 17.864 5.06328C19.5518 6.75111 20.5 9.0403 20.5 11.4272C20.5 13.8142 19.5518 16.1034 17.864 17.7912C16.1761 19.479 13.8869 20.4272 11.5 20.4272Z" fill="#C31625"/>
</svg>
