<svg width="52" height="53" viewBox="0 0 52 53" fill="none" xmlns="http://www.w3.org/2000/svg">
<rect x="1" y="1.42725" width="50" height="50" rx="25" stroke="black" stroke-width="2"/>
<path d="M25.039 21.5643C25.3569 21.5018 25.6802 21.4692 26.0035 21.4692C26.6582 21.4692 27.3021 21.5996 27.8998 21.8469C28.4947 22.0941 29.0435 22.4554 29.5081 22.92C29.9727 23.3846 30.334 23.9306 30.5812 24.5283C30.8285 25.1233 30.9589 25.7672 30.9589 26.4246C30.9589 27.0794 30.8285 27.7233 30.5812 28.3209C30.334 28.9159 29.97 29.4647 29.5081 29.9293C29.0463 30.3911 28.4975 30.7552 27.8998 31.0024C27.3048 31.2496 26.6609 31.38 26.0035 31.38C25.6775 31.38 25.3542 31.3474 25.0363 31.285C24.7211 31.2225 24.4087 31.1274 24.1072 31.0024C23.8056 30.8774 23.5176 30.7226 23.2514 30.5433C22.9824 30.364 22.7297 30.1548 22.5015 29.9266C22.2733 29.6984 22.0669 29.4457 21.8875 29.1767C21.7082 28.9078 21.5534 28.6198 21.4284 28.3209C21.3034 28.0194 21.2084 27.707 21.1459 27.3918C21.0834 27.0739 21.0508 26.7507 21.0508 26.4274C21.0508 26.1041 21.0834 25.778 21.1459 25.4629C21.2084 25.145 21.3034 24.8353 21.4284 24.5338C21.5534 24.2349 21.7055 23.9469 21.8875 23.6753C22.0669 23.4063 22.2733 23.1536 22.5015 22.9254C22.7297 22.6972 22.9824 22.4907 23.2514 22.3114C23.5203 22.1321 23.8083 21.9773 24.1072 21.8523C24.4087 21.7273 24.7211 21.6322 25.0363 21.5698L25.039 21.5643ZM23.0612 25.2021C22.9036 25.5852 22.8194 25.9981 22.8194 26.4219C22.8194 26.8457 22.9036 27.2587 23.0612 27.6418C23.2188 28.0221 23.4524 28.3753 23.7513 28.6741C24.0501 28.973 24.4033 29.2066 24.7836 29.3642C25.1667 29.5218 25.5796 29.606 26.0035 29.606C26.4273 29.606 26.8402 29.5218 27.2233 29.3642C27.6036 29.2066 27.9568 28.973 28.2557 28.6741C28.5545 28.3753 28.7882 28.0221 28.9457 27.6418C29.1033 27.2587 29.1875 26.8457 29.1875 26.4219C29.1875 25.9981 29.1033 25.5852 28.9457 25.2021C28.7882 24.8217 28.5545 24.4686 28.2557 24.1697C27.9568 23.8709 27.6036 23.6372 27.2233 23.4797C26.8402 23.3221 26.4273 23.2379 26.0035 23.2379C25.5796 23.2379 25.164 23.3221 24.7836 23.4797C24.4006 23.6372 24.0501 23.8709 23.7513 24.1697C23.4524 24.4686 23.2188 24.8217 23.0612 25.2021Z" fill="black"/>
<path d="M27.5567 14.8565C28.1191 15.2015 28.5782 15.7557 28.801 16.5164L28.9396 16.9892C28.964 17.0707 28.9966 17.1522 29.0401 17.2255C29.0808 17.2989 29.1324 17.3695 29.1895 17.4347C29.2465 17.4972 29.3118 17.557 29.3797 17.6059C29.4503 17.6548 29.5264 17.6982 29.6024 17.7308C29.6812 17.7634 29.7655 17.7879 29.8497 17.8015C29.9339 17.8151 30.0208 17.8205 30.105 17.8178C30.192 17.8123 30.2762 17.7988 30.3577 17.7743C30.4392 17.7499 30.5207 17.7173 30.5941 17.6792L31.026 17.4429C31.7215 17.0652 32.4388 16.9946 33.0799 17.1495C33.6151 17.2771 34.1014 17.5597 34.4845 17.9428C34.8676 18.3258 35.1501 18.8121 35.2778 19.3473C35.4299 19.9885 35.3647 20.7057 34.9844 21.4012L34.748 21.8332C34.7073 21.9065 34.6747 21.988 34.6529 22.0695C34.6285 22.151 34.6149 22.238 34.6095 22.3222C34.604 22.4064 34.6095 22.4934 34.6258 22.5776C34.6393 22.6618 34.6638 22.746 34.6964 22.8248C34.729 22.9036 34.7698 22.9797 34.8214 23.0476C34.8703 23.1182 34.9273 23.1834 34.9925 23.2405C35.0577 23.2975 35.1284 23.3491 35.2017 23.3899C35.2778 23.4306 35.3566 23.466 35.4381 23.4904L35.9108 23.629C36.6715 23.8517 37.2257 24.3109 37.5707 24.8733C37.8587 25.3433 38.0027 25.8839 38.0027 26.4272C38.0027 26.9679 37.8587 27.5112 37.5707 27.9785C37.2257 28.5436 36.6715 29 35.9108 29.2255L35.4381 29.3641C35.3566 29.3885 35.2751 29.4211 35.2017 29.4646C35.1284 29.5054 35.0577 29.557 34.9925 29.614C34.93 29.6711 34.8703 29.7363 34.8214 29.8042C34.7725 29.8748 34.729 29.9509 34.6964 30.027C34.6638 30.1058 34.6393 30.19 34.6258 30.2742C34.6122 30.3584 34.6067 30.4454 34.6095 30.5296C34.6149 30.6165 34.6285 30.7007 34.6529 30.7822C34.6774 30.8637 34.71 30.9452 34.748 31.0186L34.9844 31.4506C35.3647 32.1461 35.4326 32.8606 35.2778 33.5044C35.1501 34.0397 34.8676 34.526 34.4872 34.909C34.1041 35.2921 33.6178 35.5746 33.0826 35.7023C32.4388 35.8572 31.7242 35.7893 31.026 35.4089L30.5941 35.1725C30.5207 35.1318 30.4392 35.0992 30.3577 35.0775C30.2762 35.053 30.1893 35.0394 30.105 35.034C30.0208 35.0286 29.9339 35.034 29.8497 35.0503C29.7655 35.0639 29.6812 35.0883 29.6024 35.1209C29.5237 35.1535 29.4476 35.1943 29.3797 35.2459C29.309 35.2948 29.2438 35.3519 29.1868 35.4171C29.1297 35.4823 29.0781 35.5529 29.0374 35.6262C28.9966 35.7023 28.9613 35.7811 28.9368 35.8626L28.7983 36.3353C28.5755 37.096 28.1164 37.6502 27.554 37.9953C27.084 38.2833 26.5434 38.4272 26 38.4272C25.4594 38.4272 24.916 38.2833 24.4487 37.9953C23.8836 37.6502 23.4272 37.096 23.2017 36.3353L23.0632 35.8626C23.0387 35.7811 23.0061 35.6996 22.9626 35.6262C22.9219 35.5529 22.8703 35.4823 22.8132 35.4171C22.7562 35.3546 22.691 35.2948 22.623 35.2459C22.5524 35.197 22.4763 35.1535 22.4003 35.1209C22.3215 35.0883 22.2373 35.0639 22.153 35.0503C22.0688 35.0367 21.9819 35.0313 21.8977 35.034C21.8107 35.0394 21.7265 35.053 21.645 35.0775C21.5635 35.1019 21.482 35.1345 21.4086 35.1725L20.9767 35.4089C20.2812 35.7893 19.5667 35.8572 18.9228 35.7023C18.3876 35.5746 17.9013 35.2921 17.5182 34.9117C17.1352 34.5287 16.8526 34.0424 16.7249 33.5072C16.5701 32.8633 16.638 32.1488 17.0183 31.4533L17.2547 31.0213C17.2954 30.948 17.3281 30.8665 17.3498 30.785C17.3742 30.7035 17.3878 30.6165 17.3933 30.5323C17.3987 30.4481 17.3933 30.3611 17.377 30.2769C17.3634 30.1927 17.3389 30.1085 17.3063 30.0297C17.2737 29.9509 17.233 29.8748 17.1813 29.8069C17.1324 29.7363 17.0754 29.6711 17.0102 29.614C16.945 29.557 16.8743 29.5054 16.801 29.4646C16.7249 29.4239 16.6461 29.3885 16.5646 29.3641L16.0919 29.2255C15.3339 29.0028 14.7797 28.5436 14.432 27.9812C14.144 27.514 14 26.9706 14 26.4272C14 25.8866 14.144 25.3433 14.432 24.8733C14.7797 24.3082 15.3312 23.8517 16.0919 23.629L16.5646 23.4904C16.6461 23.466 16.7276 23.4334 16.801 23.3899C16.8743 23.3491 16.945 23.2975 17.0102 23.2405C17.0727 23.1834 17.1324 23.1182 17.1813 23.0503C17.2302 22.9797 17.2737 22.9036 17.3063 22.8275C17.3389 22.7487 17.3634 22.6645 17.377 22.5803C17.3905 22.4961 17.396 22.4091 17.3933 22.3249C17.3878 22.238 17.3742 22.1538 17.3498 22.0723C17.3253 21.9908 17.2927 21.9092 17.2547 21.8359L17.0183 21.4039C16.6407 20.7084 16.5701 19.9939 16.7249 19.35C16.8526 18.8148 17.1352 18.3285 17.5182 17.9455C17.9013 17.5624 18.3876 17.2799 18.9228 17.1522C19.5667 16.9973 20.2812 17.0652 20.9767 17.4456L21.4086 17.6819C21.482 17.7227 21.5635 17.7553 21.645 17.777C21.7265 17.8015 21.8134 17.8151 21.8977 17.8205C21.9819 17.8259 22.0688 17.8205 22.153 17.8042C22.2373 17.7906 22.3215 17.7662 22.4003 17.7336C22.4791 17.701 22.5551 17.6602 22.623 17.6086C22.6937 17.5597 22.7589 17.5026 22.8159 17.4374C22.873 17.3722 22.9246 17.3016 22.9654 17.2282C23.0061 17.1522 23.0414 17.0734 23.0659 16.9919L23.2044 16.5192C23.4272 15.7612 23.8863 15.207 24.4487 14.8592C24.916 14.5712 25.4594 14.4272 26.0027 14.4272C26.5434 14.4272 27.0867 14.5712 27.5567 14.8592V14.8565ZM25.3887 16.3589C25.1687 16.4947 24.9866 16.7121 24.8997 17.0136L24.7612 17.4863C24.6987 17.6955 24.6144 17.8966 24.5085 18.084C24.4025 18.2742 24.2748 18.4508 24.1309 18.6111C23.9869 18.7714 23.8239 18.9181 23.6446 19.043C23.468 19.168 23.2778 19.274 23.0767 19.3555C22.8757 19.4397 22.6665 19.4995 22.4546 19.5348C22.2427 19.5701 22.0254 19.5837 21.808 19.5728C21.5907 19.562 21.376 19.5266 21.1669 19.4669C20.9604 19.4071 20.7566 19.3256 20.5664 19.2224L20.1345 18.986C19.8601 18.8366 19.5775 18.8094 19.3249 18.8692C19.113 18.9181 18.9201 19.0322 18.7679 19.1843C18.6158 19.3365 18.5044 19.5294 18.4528 19.7413C18.393 19.9939 18.4202 20.2765 18.5696 20.5509L18.806 20.9828C18.9092 21.173 18.9934 21.3768 19.0505 21.5832C19.1103 21.7897 19.1456 22.0071 19.1564 22.2244C19.1673 22.4417 19.1537 22.6591 19.1184 22.871C19.0831 23.0829 19.0206 23.2921 18.9391 23.4931C18.8576 23.6942 18.7516 23.8843 18.6267 24.0609C18.5017 24.2375 18.3577 24.4005 18.1947 24.5472C18.0344 24.6912 17.8551 24.8189 17.6676 24.9249C17.4802 25.0308 17.2791 25.115 17.07 25.1775L16.5972 25.3161C16.2957 25.4057 16.0783 25.585 15.9425 25.8051C15.8284 25.9898 15.7713 26.2045 15.7713 26.4191C15.7713 26.6337 15.8284 26.8483 15.9425 27.0331C16.0783 27.2531 16.2984 27.4352 16.5972 27.5221L17.07 27.6607C17.2791 27.7204 17.4802 27.8074 17.6676 27.9133C17.8578 28.0193 18.0371 28.147 18.1974 28.291C18.3577 28.4349 18.5044 28.598 18.6294 28.7773C18.7544 28.9538 18.8603 29.1467 18.9418 29.3451C19.026 29.5461 19.0858 29.7553 19.1211 29.9672C19.1564 30.1791 19.17 30.3965 19.1592 30.6165C19.1483 30.8339 19.1103 31.0512 19.0532 31.2577C18.9934 31.4641 18.9119 31.6679 18.806 31.8581L18.5696 32.29C18.4202 32.5644 18.393 32.847 18.4528 33.0996C18.5017 33.3116 18.6158 33.5044 18.7679 33.6566C18.9201 33.8087 19.113 33.9201 19.3249 33.9717C19.5775 34.0315 19.8601 34.0043 20.1345 33.8549L20.5664 33.6186C20.7566 33.5153 20.9604 33.4311 21.1669 33.374C21.3733 33.3143 21.588 33.279 21.808 33.2681C22.0254 33.2572 22.2427 33.2708 22.4546 33.3061C22.6665 33.3414 22.8757 33.4039 23.0767 33.4854C23.2778 33.5697 23.468 33.6756 23.6446 33.7979C23.8211 33.9228 23.9842 34.0668 24.1309 34.2271C24.2748 34.3874 24.4025 34.5667 24.5085 34.7542C24.6144 34.9443 24.6987 35.1454 24.7612 35.3519L24.8997 35.8246C24.9894 36.1261 25.1687 36.3435 25.3887 36.4793C25.5735 36.5934 25.7881 36.6505 26.0027 36.6505C26.2173 36.6505 26.432 36.5934 26.6167 36.4793C26.8368 36.3435 27.0188 36.1261 27.1057 35.8246L27.2443 35.3519C27.3041 35.1427 27.391 34.9416 27.4969 34.7542C27.6029 34.564 27.7306 34.3874 27.8746 34.2244C28.0186 34.0641 28.1816 33.9174 28.3609 33.7924C28.5375 33.6675 28.7276 33.5615 28.9287 33.48C29.1297 33.3958 29.3389 33.336 29.5535 33.298C29.7655 33.2627 29.9828 33.2491 30.2001 33.2599C30.4175 33.2708 30.6348 33.3061 30.8413 33.3659C31.0478 33.4257 31.2515 33.5072 31.4417 33.6104L31.8737 33.8468C32.1481 33.9962 32.4306 34.0234 32.6833 33.9636C32.8952 33.9147 33.0881 33.8006 33.2402 33.6484C33.3923 33.4963 33.5037 33.3034 33.5554 33.0915C33.6151 32.8388 33.588 32.5563 33.4412 32.2819L33.2049 31.8499C33.1017 31.657 33.0174 31.456 32.9604 31.2495C32.9006 31.043 32.8653 30.8257 32.8544 30.6084C32.8436 30.391 32.8571 30.171 32.8925 29.9618C32.9278 29.7499 32.9903 29.538 33.0718 29.3396C33.156 29.1386 33.2619 28.9484 33.3842 28.7718C33.5092 28.5952 33.6532 28.4322 33.8162 28.2855C33.9765 28.1415 34.1558 28.0138 34.3432 27.9079C34.5334 27.8019 34.7344 27.7177 34.9409 27.6552L35.4136 27.5167C35.7152 27.427 35.9325 27.2477 36.0684 27.0277C36.1825 26.8429 36.2395 26.6283 36.2395 26.4137C36.2395 26.199 36.1825 25.9844 36.0684 25.7997C35.9325 25.5796 35.7152 25.3976 35.4136 25.3107L34.9409 25.1721C34.7317 25.1123 34.5334 25.0254 34.3432 24.9194C34.153 24.8135 33.9765 24.6858 33.8134 24.5418C33.6532 24.3978 33.5092 24.2348 33.3815 24.0555C33.2565 23.8789 33.1506 23.6887 33.0663 23.4877C32.9821 23.2867 32.9223 23.0747 32.887 22.8656C32.8517 22.6536 32.8381 22.4363 32.849 22.219C32.8599 22.0016 32.8952 21.787 32.9549 21.5778C33.0147 21.3713 33.0962 21.1676 33.1995 20.9774L33.4358 20.5454C33.5852 20.271 33.6124 19.9885 33.5526 19.7358C33.5037 19.5239 33.3896 19.331 33.2375 19.1789C33.0854 19.0267 32.8925 18.9154 32.6806 18.8637C32.4279 18.804 32.1453 18.8311 31.871 18.9778L31.439 19.2142C31.2461 19.3174 31.0451 19.4017 30.8386 19.4587C30.6321 19.5185 30.4148 19.5538 30.1974 19.5647C29.9801 19.5755 29.76 19.562 29.5508 19.5266C29.3389 19.4913 29.127 19.4288 28.9287 19.3473C28.7276 19.2631 28.5375 19.1572 28.3609 19.0349C28.1843 18.9099 28.0213 18.7659 27.8746 18.6029C27.7306 18.4426 27.6029 18.2633 27.4969 18.0759C27.391 17.8857 27.3068 17.6847 27.2443 17.4782L27.1057 17.0055C27.0161 16.7039 26.8368 16.4866 26.6167 16.3507C26.432 16.2366 26.2173 16.1796 26.0027 16.1796C25.7881 16.1796 25.5735 16.2366 25.3887 16.3507V16.3589Z" fill="black"/>
</svg>
