<svg width="101" height="101" viewBox="0 0 101 101" fill="none" xmlns="http://www.w3.org/2000/svg">
<rect x="2.25" y="1.92725" width="97" height="97" rx="48.5" stroke="#04DBDA" stroke-width="3"/>
<path d="M73.1468 29.7725L72.8607 26.769L70.0003 27.7225C65.0979 29.4258 59.8629 29.9485 54.7206 29.2481C49.3171 28.4095 43.7863 29.1547 38.7974 31.3935C36.1526 32.5196 33.8315 34.2895 32.0455 36.5418C30.2594 38.7942 29.0651 41.4575 28.5713 44.2894C27.931 47.9476 28.2513 51.7094 29.5009 55.2068C30.3056 53.3906 31.2458 51.6376 32.3137 49.9626C34.736 46.3986 38.0925 43.5699 42.0154 41.7865C45.7947 40.0609 49.9255 39.2446 54.077 39.4027C50.1252 40.0084 46.3425 41.4289 42.9689 43.5742C41.3423 44.5969 39.8524 45.8225 38.5352 47.2213C37.2761 48.6201 36.1657 50.1459 35.2218 51.7742C33.4499 55.1783 32.1889 58.8248 31.4794 62.5963C30.7147 66.38 30.2998 70.2261 30.2399 74.0858H35.0073C35.2338 70.6245 35.7038 67.1834 36.4137 63.7881C39.7209 65.574 43.4298 66.4848 47.1881 66.4341C50.6933 66.4317 54.1624 65.7265 57.3904 64.3602C75.5305 56.6132 73.1468 30.8452 73.1468 29.7725Z" fill="#04DBDA"/>
</svg>
