<svg width="101" height="101" viewBox="0 0 101 101" fill="none" xmlns="http://www.w3.org/2000/svg">
<rect x="2" y="1.92725" width="97" height="97" rx="48.5" stroke="#66BCF8" stroke-width="3"/>
<path d="M73.7836 71.1515L73.3575 68.6858C72.9915 66.5632 71.5148 64.7181 69.4077 63.7508L60.4374 59.6294C59.3361 59.1244 59.0212 57.5276 58.9895 57.4412C58.8923 57.2976 58.7279 57.2111 58.4754 57.2111C58.4679 57.2111 58.4601 57.2111 58.4526 57.2111C58.2377 57.2384 58.0617 57.3839 58.0036 57.5831L56.9684 61.2162L50.5009 72.953L44.0495 61.2552L42.997 57.5831C42.941 57.3849 42.7645 57.2384 42.4691 57.2056C42.283 57.2056 42.112 57.2938 41.983 57.5113C41.9799 57.5277 41.6684 59.1226 40.5641 59.6294L31.5924 63.7508C29.4861 64.7189 28.0099 66.5631 27.6437 68.6858L27.2176 71.1515C27.0502 72.1177 27.2884 73.4679 28.2066 74.1503C28.3147 74.2313 28.4503 74.3514 28.622 74.5042C30.2731 75.969 35.2978 80.4272 50.5009 80.4272C65.701 80.4272 70.727 75.969 72.3786 74.5042C72.5505 74.3523 72.6866 74.2313 72.7948 74.1503C73.7135 73.467 73.9514 72.1167 73.7836 71.1515Z" fill="#66BCF8"/>
<path d="M54.7734 35.1147C56.9473 39.1944 59.9243 44.7835 61.2237 45.595L61.4702 45.7488L62.374 38.6921C62.6217 35.5923 61.6252 32.6581 59.5683 30.4299C57.3199 27.9943 54.0142 26.5977 50.4988 26.5977C46.9832 26.5977 43.6773 27.9943 41.4289 30.4299C39.3718 32.6572 38.375 35.5923 38.6232 38.6994L39.4454 45.6852L39.7205 45.3849C40.2878 44.7671 41.31 44.1221 42.604 43.3051C45.5967 41.4163 50.0948 38.5776 53.6278 32.9776C53.955 33.578 54.3446 34.3095 54.7734 35.1147Z" fill="#66BCF8"/>
<path d="M32.4662 48.8669C32.6177 49.4974 33.1759 49.9378 33.8235 49.9378C33.9329 49.9378 34.0425 49.924 34.1499 49.8986L36.5025 49.3335C36.9513 49.2262 37.3146 48.9013 37.4776 48.4692L37.5745 48.4755L37.5305 48.299C37.5835 48.077 37.5849 47.8595 37.5348 47.6503L36.3083 42.5743C36.0142 40.8046 35.865 39.2916 35.865 38.0751C35.865 30.0049 42.4306 23.4396 50.5006 23.4396C58.5703 23.4396 65.1358 30.0049 65.1358 38.0751C65.1358 39.2907 64.9866 40.8046 64.671 42.6306L63.466 47.6503C63.4483 47.7249 63.4374 47.8004 63.4331 47.8796L63.3851 47.9869C63.3692 48.0224 61.7472 51.5299 56.7089 52.5188C56.4474 52.0358 55.9429 51.7308 55.3852 51.7308H52.3495C51.5192 51.7308 50.8436 52.4069 50.8436 53.2375V54.4249C50.8436 55.2555 51.5192 55.9315 52.3495 55.9315H55.3852C56.0166 55.9315 56.5802 55.5294 56.7952 54.939C59.8106 54.4222 61.8274 53.153 62.9928 52.1722C64.2001 51.1569 64.9219 50.1168 65.276 49.5209L66.8511 49.8985C66.9583 49.9239 67.0679 49.9376 67.1774 49.9376C67.825 49.9376 68.3829 49.4972 68.5344 48.8668L69.7396 43.8472C69.919 43.0983 69.4561 42.3432 68.7076 42.1631L67.8376 41.9547C68.0441 40.4862 68.1489 39.1816 68.1489 38.0751C68.1486 28.3447 60.2317 20.4272 50.5006 20.4272C40.7694 20.4272 32.8525 28.3447 32.8525 38.0753C32.8525 39.1817 32.9571 40.4863 33.1636 41.954L32.2929 42.1633C31.5443 42.3434 31.0817 43.0986 31.2614 43.8474L32.4662 48.8669Z" fill="#66BCF8"/>
</svg>
