<svg width="101" height="101" viewBox="0 0 101 101" fill="none" xmlns="http://www.w3.org/2000/svg">
<rect x="2.25" y="1.92725" width="97" height="97" rx="48.5" stroke="#B2A0F2" stroke-width="3"/>
<path d="M71.2045 66.3363H75.75V70.8817H25.75V66.3363H30.2955V32.2454C30.2955 31.6426 30.5349 31.0645 30.9611 30.6383C31.3873 30.2121 31.9654 29.9727 32.5682 29.9727H55.2955C55.8982 29.9727 56.4763 30.2121 56.9025 30.6383C57.3287 31.0645 57.5682 31.6426 57.5682 32.2454V66.3363H62.1136V43.609H68.9318C69.5346 43.609 70.1127 43.8485 70.5389 44.2747C70.9651 44.7009 71.2045 45.279 71.2045 45.8817V66.3363ZM39.3864 48.1545V52.6999H48.4773V48.1545H39.3864ZM39.3864 39.0636V43.609H48.4773V39.0636H39.3864Z" fill="#B2A0F2"/>
</svg>
